<?xml version="1.0" encoding="UTF-8"?><svg id="Capa_2" xmlns="http://www.w3.org/2000/svg" xmlns:xlink="http://www.w3.org/1999/xlink" viewBox="0 0 202.15 202.15"><defs><style>.cls-1{fill:#fff;}.cls-2{fill:#0093d4;}.cls-3{fill:#ffcc03;}.cls-4{fill:url(#Degradado_sin_nombre_9);}.cls-5{fill:none;stroke:#fff;stroke-miterlimit:10;stroke-width:.25px;}.cls-6{fill:url(#Degradado_sin_nombre_87);}</style><linearGradient id="Degradado_sin_nombre_9" x1="1055.97" y1="350.78" x2="1073.52" y2="312.25" gradientTransform="translate(-227.84 1103.9) rotate(-90)" gradientUnits="userSpaceOnUse"><stop offset="0" stop-color="#c9a309"/><stop offset=".03" stop-color="#d5ac07"/><stop offset=".11" stop-color="#ecbe05"/><stop offset=".16" stop-color="#f5c505"/><stop offset="1" stop-color="#ffcc03"/></linearGradient><linearGradient id="Degradado_sin_nombre_87" x1="45.85" y1="122.95" x2="63.4" y2="84.43" gradientTransform="translate(202.15) rotate(90)" gradientUnits="userSpaceOnUse"><stop offset="0" stop-color="#00709f"/><stop offset=".01" stop-color="#0073a3"/><stop offset=".06" stop-color="#007eb5"/><stop offset=".12" stop-color="#0085bf"/><stop offset=".19" stop-color="#0088c3"/><stop offset="1" stop-color="#0093d4"/></linearGradient></defs><g id="Capa_1-2"><path class="cls-4" d="m117.18,50.4l-34.72-14.77v-12.13l47.06,21.29"/><path class="cls-6" d="m84.95,43.38l34.72,14.77v12.13l-47.06-21.29"/><polygon class="cls-2" points="72.62 48.99 119.68 28.5 119.68 15.68 72.62 37.08 72.62 48.99"/><polygon class="cls-3" points="129.52 44.79 82.46 65.28 82.46 78.1 129.52 56.7 129.52 44.79"/><path class="cls-1" d="m109.88,177l-26.73,9.56v-7.88l17.65-5.59-17.65-5.65v-7.44l26.73,9.61v7.39Z"/><path class="cls-1" d="m83.14,86.35h36.51v6.95h-13.25c2.79,1.99,4.18,4.64,4.18,7.93,0,1.74-.34,3.29-1,4.64-.67,1.36-1.62,2.51-2.85,3.45-1.23.94-2.69,1.66-4.37,2.15-1.68.49-3.54.73-5.57.73-2.25,0-4.26-.29-6.03-.87-1.78-.58-3.28-1.38-4.51-2.39-1.23-1.01-2.17-2.24-2.82-3.67-.65-1.43-.98-2.98-.98-4.65,0-3.33,1.32-5.81,3.97-7.44l-3.26-.05v-6.79Zm5.05,12.66c0,1.77.75,3.22,2.25,4.35,1.5,1.12,3.45,1.68,5.84,1.68,5.5,0,8.26-2.03,8.26-6.09s-2.9-5.92-8.69-5.92c-2.28,0-4.13.57-5.54,1.71-1.41,1.14-2.12,2.56-2.12,4.27Z"/><path class="cls-1" d="m83.14,114.81h36.51v6.95h-13.25c2.79,1.99,4.18,4.64,4.18,7.93,0,1.74-.34,3.29-1,4.64-.67,1.36-1.62,2.51-2.85,3.45-1.23.94-2.69,1.66-4.37,2.15-1.68.49-3.54.73-5.57.73-2.25,0-4.26-.29-6.03-.87-1.78-.58-3.28-1.38-4.51-2.39-1.23-1.01-2.17-2.24-2.82-3.67-.65-1.43-.98-2.98-.98-4.65,0-3.33,1.32-5.81,3.97-7.44l-3.26-.05v-6.79Zm5.05,12.66c0,1.77.75,3.22,2.25,4.35,1.5,1.12,3.45,1.68,5.84,1.68,5.5,0,8.26-2.03,8.26-6.09s-2.9-5.92-8.69-5.92c-2.28,0-4.13.57-5.54,1.71-1.41,1.14-2.12,2.56-2.12,4.27Z"/><path class="cls-1" d="m83.14,149.74l26.73-9.56v7.88l-17.65,5.59,17.65,5.65v7.44l-26.73-9.61v-7.39Z"/><line class="cls-5" x1="186.62" y1="19.93" x2="15.53" y2="94.43"/><line class="cls-5" x1="186.4" y1="30.83" x2="15.61" y2="108.51"/><line class="cls-5" x1="149.27" y1="15.61" x2="15.56" y2="73.83"/><line class="cls-5" x1="119.68" y1="15.68" x2="15.57" y2="63.03"/><rect class="cls-5" x="72.6" y="15.62" width="56.92" height="170.89"/><rect class="cls-5" x="15.62" y="15.62" width="170.9" height="170.9"/><line class="cls-5" x1="101.07" y1="15.62" x2="101.07" y2="186.53"/><line class="cls-5" x1="186.52" y1="101.08" x2="15.62" y2="101.08"/><rect class="cls-5" x=".12" y=".12" width="201.9" height="201.9"/><line class="cls-5" x1="101.08" y1=".12" x2="101.08" y2="202.03"/><line class="cls-5" x1="202.03" y1="101.08" x2=".12" y2="101.08"/><line class="cls-5" x1="15.54" y1="23.17" x2="186.52" y2="100.51"/><line class="cls-5" x1="186.52" y1="70.58" x2="65.1" y2="15.65"/><line class="cls-5" x1="186.53" y1="80" x2="35.19" y2="15.48"/><line class="cls-5" x1="186.55" y1="86.63" x2="19.65" y2="15.48"/><rect class="cls-5" x="69.81" y="18.42" width="62.51" height="56.91" transform="translate(147.94 -54.19) rotate(90)"/><line class="cls-5" x1="15.62" y1="86.35" x2="186.53" y2="86.35"/><line class="cls-5" x1="15.62" y1="114.83" x2="186.6" y2="114.83"/><line class="cls-5" x1="15.68" y1="135.72" x2="156.73" y2="186.46"/><line class="cls-5" x1="15.68" y1="177.91" x2="186.6" y2="123.74"/><line class="cls-5" x1="186.6" y1="112.73" x2="15.72" y2="173.86"/><line class="cls-5" x1="15.68" y1="129.16" x2="186.6" y2="183.86"/><line class="cls-5" x1="15.68" y1="132.86" x2="164.51" y2="186.4"/><line class="cls-5" x1="15.56" y1="145.8" x2="142.55" y2="186.45"/><line class="cls-5" x1="186.43" y1="149.61" x2="83.15" y2="186.56"/><line class="cls-5" x1="186.49" y1="145.93" x2="58.44" y2="186.51"/><rect class="cls-5" x="51.3" y="118.2" width="100.21" height="36.5" transform="translate(237.85 35.05) rotate(90)"/><line class="cls-5" x1="15.68" y1="121.31" x2="186.55" y2="122.06"/><line class="cls-5" x1="186.55" y1="93.59" x2="15.62" y2="92.84"/></g></svg>