<?xml version="1.0" encoding="UTF-8"?><svg id="Capa_2" xmlns="http://www.w3.org/2000/svg" xmlns:xlink="http://www.w3.org/1999/xlink" viewBox="0 0 201.63 228.58"><defs><style>.cls-1{fill:url(#Degradado_sin_nombre_87-5);}.cls-2{fill:#fff;}.cls-3{fill:#0093d4;}.cls-4{fill:url(#Degradado_sin_nombre_9-4);}.cls-5{fill:url(#Degradado_sin_nombre_9-5);}.cls-6{fill:#ffcc03;}.cls-7{fill:url(#Degradado_sin_nombre_9-2);}.cls-8{fill:url(#Degradado_sin_nombre_9-3);}.cls-9{fill:url(#Degradado_sin_nombre_87-3);}.cls-10{fill:url(#Degradado_sin_nombre_87-4);}.cls-11{fill:url(#Degradado_sin_nombre_87-2);}.cls-12{fill:url(#Degradado_sin_nombre_9);}.cls-13{fill:url(#Degradado_sin_nombre_87);}</style><linearGradient id="Degradado_sin_nombre_9" x1="-192.03" y1="1051.5" x2="-182.78" y2="1031.21" gradientTransform="translate(-174.91 1104.53) rotate(-180)" gradientUnits="userSpaceOnUse"><stop offset="0" stop-color="#c9a309"/><stop offset=".03" stop-color="#d5ac07"/><stop offset=".11" stop-color="#ecbe05"/><stop offset=".16" stop-color="#f5c505"/><stop offset="1" stop-color="#ffcc03"/></linearGradient><linearGradient id="Degradado_sin_nombre_87" x1="16.02" y1="76.07" x2="25.27" y2="55.78" gradientUnits="userSpaceOnUse"><stop offset="0" stop-color="#00709f"/><stop offset=".01" stop-color="#0073a3"/><stop offset=".06" stop-color="#007eb5"/><stop offset=".12" stop-color="#0085bf"/><stop offset=".19" stop-color="#0088c3"/><stop offset="1" stop-color="#0093d4"/></linearGradient><linearGradient id="Degradado_sin_nombre_9-2" x1="-192.03" y1="1001.75" x2="-182.78" y2="981.45" xlink:href="#Degradado_sin_nombre_9"/><linearGradient id="Degradado_sin_nombre_87-2" y1="125.82" x2="25.27" y2="105.53" xlink:href="#Degradado_sin_nombre_87"/><linearGradient id="Degradado_sin_nombre_9-3" x1="-192.21" y1="952.1" x2="-182.97" y2="931.81" xlink:href="#Degradado_sin_nombre_9"/><linearGradient id="Degradado_sin_nombre_87-3" x1="16.21" y1="175.47" x2="25.45" y2="155.18" xlink:href="#Degradado_sin_nombre_87"/><linearGradient id="Degradado_sin_nombre_9-4" x1="-191.95" y1="902.45" x2="-182.71" y2="882.16" xlink:href="#Degradado_sin_nombre_9"/><linearGradient id="Degradado_sin_nombre_87-4" x1="15.95" y1="225.12" x2="25.19" y2="204.82" xlink:href="#Degradado_sin_nombre_87"/><linearGradient id="Degradado_sin_nombre_9-5" x1="-191.89" y1="1101.06" x2="-182.65" y2="1080.77" xlink:href="#Degradado_sin_nombre_9"/><linearGradient id="Degradado_sin_nombre_87-5" x1="15.89" y1="26.5" x2="25.13" y2="6.21" xlink:href="#Degradado_sin_nombre_87"/></defs><g id="Capa_1-2"><path class="cls-12" d="m18.42,56.06l-7.78,18.29h-6.39l11.21-24.79"/><path class="cls-13" d="m14.72,73.04l7.78-18.29h6.39l-11.21,24.79"/><polygon class="cls-3" points="17.68 79.54 6.88 54.75 .13 54.75 11.41 79.54 17.68 79.54"/><polygon class="cls-6" points="15.47 49.56 26.26 74.35 33.01 74.35 21.74 49.56 15.47 49.56"/><path class="cls-2" d="m85.1,59.91l5.04,14.08h-4.15l-2.95-9.3-2.98,9.3h-3.92l5.06-14.08h3.89Z"/><path class="cls-2" d="m37.35,73.99v-19.23h3.66v6.98c1.05-1.47,2.44-2.2,4.18-2.2.92,0,1.73.18,2.45.53.72.35,1.32.85,1.82,1.5.5.65.87,1.42,1.13,2.3.26.89.39,1.86.39,2.93,0,1.18-.15,2.24-.46,3.18-.31.93-.73,1.73-1.26,2.38s-1.18,1.14-1.93,1.49c-.75.34-1.57.51-2.45.51-1.76,0-3.06-.7-3.92-2.09l-.03,1.72h-3.58Zm6.67-2.66c.93,0,1.7-.4,2.29-1.19.59-.79.89-1.82.89-3.08,0-2.9-1.07-4.35-3.21-4.35s-3.12,1.53-3.12,4.58c0,1.2.3,2.17.9,2.92.6.74,1.35,1.12,2.25,1.12Z"/><path class="cls-2" d="m52.35,73.99v-19.23h3.66v6.98c1.05-1.47,2.44-2.2,4.18-2.2.92,0,1.73.18,2.45.53.72.35,1.32.85,1.82,1.5.5.65.87,1.42,1.13,2.3.26.89.39,1.86.39,2.93,0,1.18-.15,2.24-.46,3.18-.31.93-.73,1.73-1.26,2.38s-1.18,1.14-1.93,1.49c-.75.34-1.57.51-2.45.51-1.76,0-3.06-.7-3.92-2.09l-.03,1.72h-3.58Zm6.67-2.66c.93,0,1.7-.4,2.29-1.19.59-.79.89-1.82.89-3.08,0-2.9-1.07-4.35-3.21-4.35s-3.12,1.53-3.12,4.58c0,1.2.3,2.17.9,2.92.6.74,1.35,1.12,2.25,1.12Z"/><path class="cls-2" d="m70.74,73.99l-5.04-14.08h4.15l2.95,9.3,2.98-9.3h3.92l-5.06,14.08h-3.89Z"/><path class="cls-2" d="m99.18,64.51c-.55-2.07-1.82-3.12-3.82-3.16-1.51.03-2.61.62-3.29,1.77-.71,1.14-1.06,2.43-1.04,3.88,0,1.44.34,2.71,1.02,3.82.68,1.14,1.78,1.73,3.31,1.77,2.25-.03,3.56-1.22,3.94-3.57h1.59c-.24,1.49-.82,2.68-1.73,3.56-.91.91-2.18,1.37-3.79,1.39-2.02-.03-3.51-.71-4.47-2.03-.96-1.3-1.44-2.95-1.44-4.94s.51-3.56,1.54-4.93c.99-1.36,2.45-2.06,4.37-2.09,3.02-.02,4.8,1.49,5.33,4.53h-1.52Z"/><path class="cls-2" d="m108.41,73.97c-1.69-.02-3.08-.62-4.19-1.8-1.15-1.16-1.74-2.89-1.76-5.19,0-2,.5-3.66,1.49-4.98.99-1.31,2.48-1.98,4.46-2.01,2,.03,3.5.71,4.5,2.01.98,1.32,1.47,2.98,1.47,4.98-.02,2.14-.55,3.82-1.61,5.04-1.06,1.28-2.51,1.93-4.35,1.95Zm4.39-6.99c.02-1.61-.32-2.95-1-4.01-.68-1.06-1.81-1.6-3.39-1.62-1.55.03-2.67.61-3.35,1.72-.68,1.11-1.02,2.41-1.02,3.91,0,1.67.38,3.01,1.14,4.02.73,1.04,1.81,1.57,3.23,1.59,1.56-.02,2.69-.6,3.39-1.74.67-1.11,1-2.4,1-3.87Z"/><path class="cls-2" d="m117.56,73.61h-1.48v-13.28h1.48v1.99h.05c.91-1.54,2.28-2.33,4.1-2.34,1.21.02,2.1.26,2.67.74.56.48.97,1.08,1.23,1.82.94-1.7,2.39-2.55,4.33-2.55.93,0,1.66.14,2.2.43.55.29.96.69,1.23,1.19.28.49.47,1.05.58,1.67.08.64.13,1.3.13,1.96v8.38h-1.48v-9.17c0-.96-.2-1.71-.59-2.25-.41-.55-1.17-.83-2.27-.83-1.2,0-2.21.5-3.03,1.51-.33.46-.55,1.02-.67,1.69-.14.67-.21,1.3-.21,1.9v7.15h-1.47v-9.17c0-.96-.2-1.71-.59-2.25-.41-.55-1.17-.83-2.27-.83-1.19,0-2.19.5-3.02,1.52-.33.46-.56,1.02-.68,1.69-.13.67-.2,1.3-.2,1.9v7.14Z"/><path class="cls-2" d="m138.51,78.84h-1.47v-18.51h1.48v2.33h.05c.48-.89,1.13-1.56,1.96-2.02.82-.44,1.66-.66,2.5-.66,2.07.02,3.57.68,4.5,1.99.88,1.3,1.32,2.96,1.32,4.98,0,1.89-.46,3.52-1.39,4.87-.95,1.4-2.39,2.12-4.34,2.15-.91,0-1.79-.22-2.62-.67-.82-.41-1.48-1.01-1.97-1.81v7.35Zm0-11.81c0,1.52.39,2.82,1.17,3.9.76,1.09,1.82,1.65,3.18,1.67,1.54-.02,2.69-.61,3.44-1.79.73-1.11,1.05-2.52.96-4.24-.03-1.68-.45-2.97-1.24-3.87-.81-.89-1.86-1.34-3.16-1.34-1.41.02-2.48.55-3.21,1.62-.76,1.06-1.14,2.41-1.14,4.06Z"/><path class="cls-2" d="m157.4,65.87c.3-.04.64-.1,1.02-.16.36-.08.68-.17.95-.28.24-.14.4-.35.47-.61.05-.28.07-.53.07-.78,0-.8-.24-1.45-.73-1.94-.49-.48-1.32-.73-2.49-.75-1.02-.02-1.86.19-2.52.61-.65.45-1.06,1.25-1.23,2.39h-1.52c.15-1.56.72-2.69,1.7-3.39.97-.66,2.17-.99,3.6-.99,1.33,0,2.44.3,3.32.89.87.63,1.32,1.71,1.34,3.23v7.23c-.02.58.08.94.32,1.1.22.17.63.14,1.25-.07v1.2c-.1.03-.26.08-.47.12-.23.08-.47.12-.7.12s-.45-.03-.66-.07c-.47-.1-.79-.34-.94-.71-.14-.37-.22-.79-.24-1.24-1.29,1.44-2.89,2.17-4.8,2.19-1.16,0-2.15-.33-2.97-.98-.87-.62-1.31-1.56-1.32-2.84,0-2.24,1.5-3.58,4.49-4l2.07-.28Zm2.52.77c-.63.24-1.27.41-1.92.51-.65.12-1.3.19-1.94.23-2.39.14-3.6,1.09-3.63,2.83.02.79.31,1.37.88,1.77.55.41,1.19.61,1.92.61,1.24,0,2.33-.32,3.26-.95.93-.61,1.41-1.58,1.45-2.92v-2.08Z"/><path class="cls-2" d="m165.57,69.46c.4,2.14,1.68,3.19,3.86,3.14,1.09-.02,1.89-.27,2.4-.76.52-.47.78-1.04.78-1.7,0-.48-.11-.87-.33-1.18-.23-.31-.55-.55-.95-.71-.16-.1-.36-.19-.59-.26-.23-.08-.47-.15-.72-.2-.5-.1-1.01-.2-1.54-.3-.25-.09-.49-.17-.73-.24-.24-.05-.49-.12-.74-.2-.5-.16-.95-.36-1.35-.61-.4-.28-.71-.63-.95-1.05-.24-.43-.36-.96-.36-1.59,0-1.14.4-2.05,1.21-2.74.78-.68,1.87-1.04,3.29-1.05,2.87-.06,4.52,1.33,4.97,4.17h-1.52c-.13-1.03-.5-1.76-1.12-2.18-.63-.41-1.42-.61-2.37-.61-1.92.05-2.88.81-2.9,2.28,0,.43.12.79.38,1.08.23.28.54.51.93.7.82.36,1.75.65,2.81.86.53.12,1.04.27,1.54.44.49.17.93.4,1.31.69.4.28.71.63.95,1.08.22.43.33.97.33,1.61-.02,1.27-.5,2.23-1.46,2.88-.98.67-2.23,1-3.77,1-1.52-.02-2.7-.46-3.52-1.34-.83-.83-1.29-1.89-1.37-3.18h1.5Z"/><path class="cls-2" d="m177.36,69.46c.4,2.14,1.68,3.19,3.86,3.14,1.09-.02,1.89-.27,2.4-.76.52-.47.78-1.04.78-1.7,0-.48-.11-.87-.33-1.18-.23-.31-.55-.55-.95-.71-.16-.1-.36-.19-.59-.26-.23-.08-.47-.15-.72-.2-.5-.1-1.01-.2-1.54-.3-.25-.09-.49-.17-.73-.24-.24-.05-.49-.12-.74-.2-.5-.16-.95-.36-1.35-.61-.4-.28-.71-.63-.95-1.05-.24-.43-.36-.96-.36-1.59,0-1.14.4-2.05,1.21-2.74.78-.68,1.87-1.04,3.29-1.05,2.87-.06,4.52,1.33,4.97,4.17h-1.52c-.13-1.03-.5-1.76-1.12-2.18-.63-.41-1.42-.61-2.37-.61-1.92.05-2.88.81-2.9,2.28,0,.43.12.79.38,1.08.23.28.54.51.93.7.82.36,1.75.65,2.81.86.53.12,1.04.27,1.54.44.49.17.93.4,1.31.69.4.28.71.63.95,1.08.22.43.33.97.33,1.61-.02,1.27-.5,2.23-1.46,2.88-.98.67-2.23,1-3.77,1-1.52-.02-2.7-.46-3.52-1.34-.83-.83-1.29-1.89-1.37-3.18h1.5Z"/><path class="cls-7" d="m18.42,105.81l-7.78,18.29h-6.39l11.21-24.79"/><path class="cls-11" d="m14.72,122.79l7.78-18.29h6.39l-11.21,24.79"/><polygon class="cls-3" points="17.68 129.29 6.88 104.5 .13 104.5 11.41 129.29 17.68 129.29"/><polygon class="cls-6" points="15.47 99.32 26.26 124.1 33.01 124.1 21.74 99.32 15.47 99.32"/><path class="cls-2" d="m85.1,109.66l5.04,14.08h-4.15l-2.95-9.3-2.98,9.3h-3.92l5.06-14.08h3.89Z"/><path class="cls-2" d="m37.35,123.74v-19.23h3.66v6.98c1.05-1.47,2.44-2.2,4.18-2.2.92,0,1.73.18,2.45.53.72.35,1.32.85,1.82,1.5.5.65.87,1.42,1.13,2.3.26.89.39,1.86.39,2.93,0,1.18-.15,2.24-.46,3.18-.31.93-.73,1.73-1.26,2.38s-1.18,1.14-1.93,1.49c-.75.34-1.57.51-2.45.51-1.76,0-3.06-.7-3.92-2.09l-.03,1.72h-3.58Zm6.67-2.66c.93,0,1.7-.4,2.29-1.19.59-.79.89-1.82.89-3.08,0-2.9-1.07-4.35-3.21-4.35s-3.12,1.53-3.12,4.58c0,1.2.3,2.17.9,2.92.6.74,1.35,1.12,2.25,1.12Z"/><path class="cls-2" d="m52.35,123.74v-19.23h3.66v6.98c1.05-1.47,2.44-2.2,4.18-2.2.92,0,1.73.18,2.45.53.72.35,1.32.85,1.82,1.5.5.65.87,1.42,1.13,2.3.26.89.39,1.86.39,2.93,0,1.18-.15,2.24-.46,3.18-.31.93-.73,1.73-1.26,2.38s-1.18,1.14-1.93,1.49c-.75.34-1.57.51-2.45.51-1.76,0-3.06-.7-3.92-2.09l-.03,1.72h-3.58Zm6.67-2.66c.93,0,1.7-.4,2.29-1.19.59-.79.89-1.82.89-3.08,0-2.9-1.07-4.35-3.21-4.35s-3.12,1.53-3.12,4.58c0,1.2.3,2.17.9,2.92.6.74,1.35,1.12,2.25,1.12Z"/><path class="cls-2" d="m70.74,123.74l-5.04-14.08h4.15l2.95,9.3,2.98-9.3h3.92l-5.06,14.08h-3.89Z"/><path class="cls-2" d="m99.55,114.26c-.55-2.07-1.82-3.12-3.82-3.16-1.51.03-2.61.62-3.29,1.77-.71,1.14-1.06,2.43-1.04,3.89,0,1.44.34,2.71,1.02,3.82.68,1.15,1.78,1.73,3.31,1.77,2.25-.03,3.56-1.22,3.94-3.57h1.59c-.24,1.49-.82,2.68-1.73,3.56-.91.91-2.18,1.37-3.79,1.39-2.02-.03-3.51-.71-4.47-2.03-.96-1.3-1.44-2.95-1.44-4.94s.51-3.56,1.54-4.93c.99-1.36,2.45-2.06,4.37-2.09,3.02-.03,4.8,1.49,5.33,4.53h-1.52Z"/><path class="cls-2" d="m108.78,123.72c-1.69-.02-3.09-.62-4.19-1.8-1.16-1.16-1.74-2.89-1.76-5.19,0-2,.5-3.66,1.49-4.98.99-1.31,2.48-1.98,4.46-2.02,2,.03,3.5.71,4.5,2.02.98,1.32,1.47,2.98,1.47,4.98-.02,2.14-.55,3.82-1.61,5.04-1.06,1.29-2.51,1.94-4.35,1.95Zm4.39-6.99c.02-1.61-.32-2.95-1-4.01-.68-1.06-1.81-1.6-3.39-1.62-1.56.03-2.67.61-3.35,1.72s-1.02,2.42-1.02,3.91c0,1.67.38,3.01,1.14,4.02.73,1.04,1.81,1.58,3.23,1.59,1.56-.02,2.69-.6,3.39-1.74.66-1.11,1-2.4,1-3.87Z"/><path class="cls-2" d="m118.39,123.36h-1.47v-13.28h1.47v1.84c.58-.68,1.21-1.22,1.87-1.61.65-.39,1.41-.58,2.28-.58,1.64-.04,2.95.59,3.93,1.89.31.46.5.94.56,1.44.05.51.07,1.05.07,1.62v8.69h-1.47v-8.66c.03-2.4-1.08-3.59-3.33-3.59-.93.02-1.7.28-2.29.78-.59.49-1.02,1.1-1.29,1.82-.24.8-.34,1.64-.33,2.52v7.15Z"/><path class="cls-2" d="m134.65,123.41c-.18.03-.41.08-.69.15-.3.09-.64.14-1.02.16-.72,0-1.27-.2-1.64-.59-.42-.42-.62-1.1-.62-2.06v-9.72h-1.82v-1.28h1.82v-3.69h1.47v3.69h2.41v1.28h-2.41v9.12c-.02.63.05,1.1.21,1.41.13.31.49.46,1.09.46.41,0,.81-.06,1.21-.18v1.24Z"/><path class="cls-2" d="m136.39,107.18v-2.28h1.63v2.28h-1.63Zm.08,16.17v-13.28h1.47v13.28h-1.47Z"/><path class="cls-2" d="m142.39,123.36h-1.47v-13.28h1.47v1.84c.58-.68,1.21-1.22,1.87-1.61.65-.39,1.41-.58,2.28-.58,1.64-.04,2.95.59,3.93,1.89.31.46.5.94.56,1.44.05.51.07,1.05.07,1.62v8.69h-1.47v-8.66c.03-2.4-1.08-3.59-3.33-3.59-.93.02-1.7.28-2.29.78-.59.49-1.02,1.1-1.29,1.82-.24.8-.34,1.64-.33,2.52v7.15Z"/><path class="cls-2" d="m155.04,117.07c0,1.47.36,2.71,1.09,3.7.73,1.03,1.81,1.55,3.24,1.57,2.05-.02,3.35-1.04,3.9-3.06h1.66c-.35,1.28-.95,2.33-1.81,3.15-.88.84-2.13,1.27-3.75,1.29-2.04-.03-3.54-.71-4.5-2.03-.96-1.28-1.43-2.92-1.42-4.92,0-2,.53-3.67,1.59-5.01,1.03-1.33,2.47-2.01,4.33-2.04,3.65.03,5.54,2.48,5.65,7.35h-9.99Zm8.41-1.27c0-1.35-.34-2.46-1.02-3.33-.7-.89-1.71-1.35-3.05-1.36-1.31.02-2.33.48-3.04,1.39-.71.9-1.15,2-1.3,3.31h8.41Z"/><path class="cls-2" d="m168.85,123.36h-1.47v-13.28h1.47v1.84c.58-.68,1.21-1.22,1.87-1.61.65-.39,1.41-.58,2.28-.58,1.64-.04,2.95.59,3.93,1.89.31.46.5.94.56,1.44.05.51.07,1.05.07,1.62v8.69h-1.47v-8.66c.03-2.4-1.08-3.59-3.33-3.59-.93.02-1.7.28-2.29.78-.59.49-1.02,1.1-1.29,1.82-.24.8-.34,1.64-.33,2.52v7.15Z"/><path class="cls-2" d="m185.11,123.41c-.18.03-.41.08-.69.15-.3.09-.64.14-1.02.16-.72,0-1.27-.2-1.64-.59-.42-.42-.62-1.1-.62-2.06v-9.72h-1.82v-1.28h1.82v-3.69h1.47v3.69h2.41v1.28h-2.41v9.12c-.02.63.05,1.1.21,1.41.13.31.49.46,1.09.46.41,0,.81-.06,1.21-.18v1.24Z"/><path class="cls-2" d="m192.61,115.62c.3-.04.64-.1,1.02-.16.36-.08.68-.17.95-.28.24-.14.4-.35.47-.61.05-.28.07-.53.07-.78,0-.8-.24-1.45-.73-1.94-.49-.48-1.32-.73-2.49-.75-1.02-.02-1.86.19-2.53.61-.65.45-1.06,1.25-1.23,2.39h-1.52c.15-1.56.72-2.69,1.7-3.39.97-.66,2.17-.99,3.6-.99,1.33,0,2.44.3,3.32.89.87.63,1.32,1.71,1.34,3.23v7.23c-.03.58.08.94.32,1.1.22.17.64.14,1.25-.08v1.2c-.1.03-.26.08-.47.12-.23.08-.47.12-.7.12s-.45-.03-.66-.07c-.47-.1-.79-.34-.94-.71-.15-.37-.23-.79-.24-1.24-1.29,1.44-2.9,2.17-4.8,2.19-1.16,0-2.15-.33-2.97-.98-.87-.62-1.31-1.56-1.32-2.84,0-2.24,1.5-3.58,4.49-4l2.07-.28Zm2.52.77c-.63.24-1.27.41-1.92.51-.65.12-1.3.19-1.94.23-2.39.14-3.6,1.09-3.63,2.83.02.79.31,1.37.88,1.77.55.41,1.19.61,1.92.61,1.24,0,2.33-.32,3.26-.95.93-.61,1.41-1.58,1.45-2.92v-2.08Z"/><path class="cls-2" d="m200.16,123.36v-18.45h1.47v18.45h-1.47Z"/><path class="cls-8" d="m18.61,155.46l-7.78,18.29h-6.39l11.21-24.79"/><path class="cls-9" d="m14.91,172.44l7.78-18.29h6.39l-11.21,24.79"/><polygon class="cls-3" points="17.86 178.94 7.07 154.15 .32 154.15 11.59 178.94 17.86 178.94"/><polygon class="cls-6" points="15.65 148.96 26.44 173.75 33.2 173.75 21.92 148.96 15.65 148.96"/><path class="cls-2" d="m85.29,159.31l5.04,14.08h-4.15l-2.95-9.3-2.98,9.3h-3.92l5.06-14.08h3.89Z"/><path class="cls-2" d="m37.54,173.39v-19.23h3.66v6.98c1.05-1.47,2.44-2.2,4.18-2.2.92,0,1.73.18,2.45.53.72.35,1.32.85,1.82,1.5.5.65.87,1.42,1.13,2.3.26.89.39,1.86.39,2.93,0,1.18-.15,2.24-.46,3.18-.31.93-.73,1.73-1.26,2.38s-1.18,1.14-1.93,1.49c-.75.34-1.57.51-2.45.51-1.76,0-3.06-.7-3.92-2.09l-.03,1.72h-3.58Zm6.67-2.66c.93,0,1.7-.4,2.29-1.19.59-.79.89-1.82.89-3.08,0-2.9-1.07-4.35-3.21-4.35s-3.12,1.53-3.12,4.58c0,1.2.3,2.17.9,2.92.6.74,1.35,1.12,2.25,1.12Z"/><path class="cls-2" d="m52.53,173.39v-19.23h3.66v6.98c1.05-1.47,2.44-2.2,4.18-2.2.92,0,1.73.18,2.45.53.72.35,1.32.85,1.82,1.5.5.65.87,1.42,1.13,2.3.26.89.39,1.86.39,2.93,0,1.18-.15,2.24-.46,3.18-.31.93-.73,1.73-1.26,2.38s-1.18,1.14-1.93,1.49c-.75.34-1.57.51-2.45.51-1.76,0-3.06-.7-3.92-2.09l-.03,1.72h-3.58Zm6.67-2.66c.93,0,1.7-.4,2.29-1.19.59-.79.89-1.82.89-3.08,0-2.9-1.07-4.35-3.21-4.35s-3.12,1.53-3.12,4.58c0,1.2.3,2.17.9,2.92.6.74,1.35,1.12,2.25,1.12Z"/><path class="cls-2" d="m70.93,173.39l-5.04-14.08h4.15l2.95,9.3,2.98-9.3h3.92l-5.06,14.08h-3.89Z"/><path class="cls-2" d="m89.84,160.95v-1.28h1.91v-2.11c-.06-2.24.85-3.39,2.72-3.44.44,0,.86.03,1.23.1v1.41c-.32-.08-.61-.13-.89-.13-.75.03-1.21.28-1.37.78-.17.51-.24,1.09-.22,1.74v1.64h2.48v1.28h-2.48v12.04h-1.48v-12.04h-1.91Z"/><path class="cls-2" d="m98.79,172.99h-1.48v-13.31h1.48v2.49h.05c.41-1.06.95-1.8,1.62-2.23.66-.41,1.53-.61,2.59-.61v1.66c-1.64,0-2.77.52-3.39,1.57-.6,1.07-.89,2.37-.87,3.91v6.53Z"/><path class="cls-2" d="m110.69,165.23c.3-.04.64-.1,1.02-.16.37-.08.68-.17.95-.28.24-.14.4-.35.48-.62.05-.28.07-.54.07-.78,0-.8-.24-1.45-.73-1.95-.5-.49-1.33-.74-2.5-.75-1.02-.02-1.87.19-2.53.62-.65.45-1.06,1.25-1.23,2.4h-1.52c.15-1.56.72-2.7,1.7-3.4.97-.66,2.17-.99,3.61-.99,1.34,0,2.45.3,3.33.89.87.64,1.32,1.71,1.35,3.24v7.25c-.03.58.08.95.32,1.1.22.17.64.14,1.25-.08v1.21c-.1.03-.26.08-.47.12-.23.08-.47.13-.7.13s-.45-.03-.67-.08c-.48-.1-.79-.34-.94-.71-.15-.37-.23-.79-.24-1.25-1.3,1.45-2.9,2.18-4.82,2.2-1.16,0-2.15-.33-2.98-.98-.87-.62-1.31-1.57-1.33-2.85,0-2.25,1.5-3.59,4.5-4.01l2.07-.28Zm2.52.77c-.63.24-1.28.41-1.93.51-.65.12-1.3.19-1.95.23-2.4.14-3.61,1.09-3.64,2.84.02.79.31,1.38.88,1.77.55.41,1.19.62,1.92.62,1.24,0,2.33-.32,3.27-.95.93-.61,1.42-1.59,1.45-2.93v-2.09Z"/><path class="cls-2" d="m119.51,172.99h-1.48v-13.31h1.48v1.85c.58-.68,1.21-1.22,1.87-1.61.65-.39,1.41-.59,2.29-.59,1.65-.04,2.96.59,3.94,1.9.31.46.5.94.56,1.44.05.51.07,1.05.07,1.62v8.71h-1.48v-8.68c.03-2.4-1.08-3.6-3.33-3.6-.93.02-1.7.28-2.3.78-.59.5-1.02,1.1-1.29,1.82-.24.8-.35,1.64-.33,2.52v7.16Z"/><path class="cls-2" d="m140.42,163.87c-.55-2.08-1.83-3.13-3.83-3.17-1.52.03-2.61.62-3.29,1.77-.71,1.14-1.06,2.44-1.05,3.9,0,1.44.34,2.72,1.02,3.83.68,1.15,1.79,1.74,3.32,1.77,2.25-.03,3.57-1.23,3.95-3.58h1.59c-.24,1.5-.82,2.69-1.74,3.57-.91.91-2.18,1.37-3.8,1.39-2.02-.03-3.52-.71-4.48-2.03-.96-1.3-1.45-2.96-1.45-4.96s.51-3.57,1.54-4.94c1-1.36,2.46-2.06,4.38-2.1,3.03-.02,4.81,1.49,5.34,4.55h-1.52Z"/><path class="cls-2" d="m145.46,166.69c0,1.48.36,2.71,1.09,3.71.73,1.03,1.81,1.56,3.25,1.57,2.05-.02,3.35-1.04,3.91-3.07h1.67c-.35,1.29-.95,2.34-1.81,3.16-.88.84-2.13,1.27-3.75,1.29-2.04-.03-3.54-.71-4.51-2.03-.96-1.29-1.44-2.93-1.42-4.93,0-2.01.53-3.68,1.59-5.02,1.03-1.33,2.47-2.01,4.34-2.05,3.66.03,5.55,2.49,5.66,7.37h-10.01Zm8.43-1.28c0-1.36-.34-2.47-1.02-3.34-.7-.9-1.72-1.35-3.06-1.37-1.32.02-2.33.48-3.05,1.39-.71.9-1.15,2.01-1.3,3.31h8.43Zm-5.43-7.17l2.76-3.56h1.9l-3.39,3.56h-1.27Z"/><path class="cls-2" d="m158.68,168.83c.4,2.15,1.69,3.2,3.87,3.15,1.1-.02,1.9-.27,2.41-.77.52-.47.78-1.04.78-1.71,0-.48-.11-.87-.33-1.18-.24-.31-.55-.55-.95-.72-.16-.1-.36-.19-.6-.26-.24-.08-.47-.15-.72-.2-.5-.1-1.02-.2-1.54-.3-.25-.09-.5-.17-.73-.24-.24-.05-.49-.12-.74-.2-.5-.16-.95-.36-1.35-.62-.4-.28-.71-.63-.95-1.06-.24-.44-.37-.97-.37-1.6,0-1.14.41-2.06,1.21-2.75.78-.69,1.88-1.04,3.3-1.06,2.88-.06,4.54,1.34,4.98,4.19h-1.52c-.13-1.03-.5-1.76-1.12-2.19-.63-.41-1.42-.62-2.37-.62-1.92.05-2.89.81-2.91,2.28,0,.43.12.79.38,1.08.23.28.54.51.94.7.82.36,1.76.65,2.82.87.53.13,1.04.27,1.54.44.5.18.93.41,1.31.69.4.28.71.64.95,1.08.22.44.33.97.33,1.62-.02,1.27-.51,2.23-1.47,2.89-.98.67-2.24,1-3.78,1-1.53-.02-2.71-.46-3.53-1.34-.83-.84-1.29-1.9-1.37-3.18h1.5Z"/><path class="cls-4" d="m18.35,205.11l-7.78,18.29h-6.39l11.21-24.79"/><path class="cls-10" d="m14.65,222.09l7.78-18.29h6.39l-11.21,24.79"/><polygon class="cls-3" points="17.61 228.58 6.81 203.8 .06 203.8 11.33 228.58 17.61 228.58"/><polygon class="cls-6" points="15.39 198.61 26.19 223.4 32.94 223.4 21.67 198.61 15.39 198.61"/><path class="cls-2" d="m85.03,208.96l5.04,14.08h-4.15l-2.95-9.3-2.98,9.3h-3.92l5.06-14.08h3.89Z"/><path class="cls-2" d="m37.28,223.04v-19.23h3.66v6.98c1.05-1.47,2.44-2.2,4.18-2.2.92,0,1.73.18,2.45.53.72.35,1.32.85,1.82,1.5.5.65.87,1.42,1.13,2.3.26.89.39,1.86.39,2.93,0,1.18-.15,2.24-.46,3.18-.31.93-.73,1.73-1.26,2.38s-1.18,1.14-1.93,1.49c-.75.34-1.57.51-2.45.51-1.76,0-3.06-.7-3.92-2.09l-.03,1.72h-3.58Zm6.67-2.66c.93,0,1.7-.4,2.29-1.19.59-.79.89-1.82.89-3.08,0-2.9-1.07-4.35-3.21-4.35s-3.12,1.53-3.12,4.58c0,1.2.3,2.17.9,2.92.6.74,1.35,1.12,2.25,1.12Z"/><path class="cls-2" d="m52.27,223.04v-19.23h3.66v6.98c1.05-1.47,2.44-2.2,4.18-2.2.92,0,1.73.18,2.45.53.72.35,1.32.85,1.82,1.5.5.65.87,1.42,1.13,2.3.26.89.39,1.86.39,2.93,0,1.18-.15,2.24-.46,3.18-.31.93-.73,1.73-1.26,2.38s-1.18,1.14-1.93,1.49c-.75.34-1.57.51-2.45.51-1.76,0-3.06-.7-3.92-2.09l-.03,1.72h-3.58Zm6.67-2.66c.93,0,1.7-.4,2.29-1.19.59-.79.89-1.82.89-3.08,0-2.9-1.07-4.35-3.21-4.35s-3.12,1.53-3.12,4.58c0,1.2.3,2.17.9,2.92.6.74,1.35,1.12,2.25,1.12Z"/><path class="cls-2" d="m70.67,223.04l-5.04-14.08h4.15l2.95,9.3,2.98-9.3h3.92l-5.06,14.08h-3.89Z"/><path class="cls-2" d="m92.81,227.88h-1.47v-18.51h1.48v2.33h.05c.48-.89,1.13-1.56,1.96-2.02.82-.44,1.66-.66,2.5-.66,2.07.02,3.57.68,4.5,1.99.88,1.3,1.32,2.96,1.32,4.98,0,1.89-.46,3.52-1.39,4.87-.95,1.4-2.39,2.12-4.34,2.15-.91,0-1.79-.22-2.62-.67-.82-.41-1.48-1.01-1.97-1.81v7.35Zm0-11.81c0,1.52.39,2.82,1.17,3.9.76,1.09,1.82,1.65,3.18,1.67,1.54-.02,2.69-.61,3.44-1.79.73-1.11,1.05-2.52.96-4.24-.03-1.68-.45-2.97-1.24-3.87-.81-.89-1.86-1.34-3.16-1.34-1.41.02-2.48.55-3.21,1.62-.76,1.06-1.14,2.41-1.14,4.06Z"/><path class="cls-2" d="m107.34,222.65h-1.47v-13.28h1.47v2.48h.05c.41-1.06.95-1.8,1.61-2.22.66-.41,1.52-.61,2.58-.61v1.65c-1.64,0-2.76.52-3.38,1.57-.6,1.06-.89,2.36-.87,3.9v6.51Z"/><path class="cls-2" d="m117.94,223.02c-1.69-.02-3.08-.62-4.19-1.8-1.15-1.16-1.74-2.89-1.76-5.19,0-2,.5-3.66,1.49-4.98.99-1.31,2.48-1.98,4.46-2.01,2,.03,3.5.71,4.5,2.01.98,1.32,1.47,2.98,1.47,4.98-.02,2.14-.55,3.82-1.61,5.04-1.06,1.28-2.51,1.93-4.35,1.95Zm4.39-6.99c.02-1.61-.32-2.95-1-4.01-.68-1.06-1.81-1.6-3.39-1.62-1.55.03-2.67.61-3.35,1.72-.68,1.11-1.02,2.41-1.02,3.91,0,1.67.38,3.01,1.14,4.02.73,1.04,1.81,1.57,3.23,1.59,1.56-.02,2.69-.6,3.39-1.74.67-1.11,1-2.4,1-3.87Z"/><path class="cls-2" d="m124.7,209.38h1.61l4.17,11.38,4.17-11.38h1.61l-4.99,13.28h-1.66l-4.91-13.28Z"/><path class="cls-2" d="m138,206.49v-2.28h1.63v2.28h-1.63Zm.08,16.17v-13.28h1.47v13.28h-1.47Z"/><path class="cls-2" d="m144,222.65h-1.47v-13.28h1.47v1.84c.58-.68,1.21-1.22,1.87-1.61.65-.39,1.41-.58,2.28-.58,1.64-.04,2.95.59,3.93,1.89.31.46.5.94.56,1.44.05.51.07,1.05.07,1.61v8.68h-1.47v-8.66c.03-2.39-1.08-3.59-3.33-3.59-.93.02-1.7.28-2.29.78-.59.49-1.02,1.1-1.29,1.82-.24.8-.34,1.64-.33,2.51v7.14Z"/><path class="cls-2" d="m164.85,213.56c-.55-2.07-1.82-3.12-3.82-3.16-1.51.03-2.61.62-3.29,1.77-.71,1.14-1.06,2.43-1.04,3.88,0,1.44.34,2.71,1.02,3.82.68,1.14,1.78,1.73,3.31,1.77,2.25-.03,3.56-1.22,3.94-3.57h1.59c-.24,1.49-.82,2.68-1.73,3.56-.91.91-2.18,1.37-3.79,1.39-2.02-.03-3.51-.71-4.47-2.03-.96-1.3-1.44-2.95-1.44-4.94s.51-3.56,1.54-4.93c.99-1.36,2.45-2.06,4.37-2.09,3.02-.02,4.8,1.49,5.33,4.53h-1.52Z"/><path class="cls-2" d="m169.13,206.49v-2.28h1.63v2.28h-1.63Zm.08,16.17v-13.28h1.47v13.28h-1.47Z"/><path class="cls-2" d="m179.56,214.92c.3-.04.64-.1,1.02-.16.36-.08.68-.17.95-.28.24-.14.4-.35.47-.61.05-.28.07-.53.07-.78,0-.8-.24-1.45-.73-1.94-.49-.48-1.32-.73-2.49-.75-1.02-.02-1.86.19-2.52.61-.65.45-1.06,1.25-1.23,2.39h-1.52c.15-1.56.72-2.69,1.7-3.39.97-.66,2.17-.99,3.6-.99,1.33,0,2.44.3,3.32.89.87.63,1.32,1.71,1.34,3.23v7.23c-.02.58.08.94.32,1.1.22.17.63.14,1.25-.07v1.2c-.1.03-.26.08-.47.12-.23.08-.47.12-.7.12s-.45-.03-.66-.07c-.47-.1-.79-.34-.94-.71-.14-.37-.22-.79-.24-1.24-1.29,1.44-2.89,2.17-4.8,2.19-1.16,0-2.15-.33-2.97-.98-.87-.62-1.31-1.56-1.32-2.84,0-2.24,1.5-3.58,4.49-4l2.07-.28Zm2.52.77c-.63.24-1.27.41-1.92.51-.65.12-1.3.19-1.94.23-2.39.14-3.6,1.09-3.63,2.83.02.79.31,1.37.88,1.77.55.41,1.19.61,1.92.61,1.24,0,2.33-.32,3.26-.95.93-.61,1.41-1.58,1.45-2.92v-2.08Z"/><path class="cls-2" d="m187.1,222.65v-18.45h1.47v18.45h-1.47Z"/><path class="cls-5" d="m18.29,6.5l-7.78,18.29h-6.39L15.33,0"/><path class="cls-1" d="m14.59,23.47l7.78-18.29h6.39l-11.21,24.79"/><polygon class="cls-3" points="17.54 29.97 6.75 5.19 0 5.19 11.27 29.97 17.54 29.97"/><polygon class="cls-6" points="15.33 0 26.13 24.79 32.88 24.79 21.6 0 15.33 0"/><path class="cls-2" d="m84.97,10.35l5.04,14.08h-4.15l-2.95-9.3-2.98,9.3h-3.92l5.06-14.08h3.89Z"/><path class="cls-2" d="m37.22,24.43V5.2h3.66v6.98c1.05-1.47,2.44-2.2,4.18-2.2.92,0,1.73.18,2.45.53.72.35,1.32.85,1.82,1.5.5.65.87,1.42,1.13,2.3.26.89.39,1.86.39,2.93,0,1.18-.15,2.24-.46,3.18-.31.93-.73,1.73-1.26,2.38s-1.18,1.14-1.93,1.49c-.75.34-1.57.51-2.45.51-1.76,0-3.06-.7-3.92-2.09l-.03,1.72h-3.58Zm6.67-2.66c.93,0,1.7-.4,2.29-1.19.59-.79.89-1.82.89-3.08,0-2.9-1.07-4.35-3.21-4.35s-3.12,1.53-3.12,4.58c0,1.2.3,2.17.9,2.92.6.74,1.35,1.12,2.25,1.12Z"/><path class="cls-2" d="m52.21,24.43V5.2h3.66v6.98c1.05-1.47,2.44-2.2,4.18-2.2.92,0,1.73.18,2.45.53.72.35,1.32.85,1.82,1.5.5.65.87,1.42,1.13,2.3.26.89.39,1.86.39,2.93,0,1.18-.15,2.24-.46,3.18-.31.93-.73,1.73-1.26,2.38s-1.18,1.14-1.93,1.49c-.75.34-1.57.51-2.45.51-1.76,0-3.06-.7-3.92-2.09l-.03,1.72h-3.58Zm6.67-2.66c.93,0,1.7-.4,2.29-1.19.59-.79.89-1.82.89-3.08,0-2.9-1.07-4.35-3.21-4.35s-3.12,1.53-3.12,4.58c0,1.2.3,2.17.9,2.92.6.74,1.35,1.12,2.25,1.12Z"/><path class="cls-2" d="m70.61,24.43l-5.04-14.08h4.15l2.95,9.3,2.98-9.3h3.92l-5.06,14.08h-3.89Z"/><path class="cls-2" d="m92.85,24.08h-1.48V5.56h1.48v7.32c.5-.82,1.16-1.45,1.98-1.87.83-.41,1.71-.62,2.63-.62,1.95.03,3.41.73,4.35,2.1.93,1.36,1.4,3.01,1.4,4.95s-.44,3.66-1.33,4.96c-.93,1.32-2.44,2-4.51,2.04-.84-.02-1.68-.26-2.51-.73-.83-.44-1.49-1.1-1.97-1.96h-.05v2.32Zm0-6.7c0,1.63.38,2.97,1.15,4.04.73,1.08,1.8,1.63,3.22,1.65,1.3,0,2.36-.46,3.17-1.38.8-.88,1.21-2.16,1.24-3.85.09-1.71-.23-3.14-.96-4.3-.76-1.15-1.91-1.73-3.45-1.75-1.37.03-2.43.58-3.2,1.65-.78,1.06-1.17,2.38-1.17,3.95Z"/><path class="cls-2" d="m111.81,16.31c.3-.04.64-.1,1.02-.16.37-.08.68-.18.95-.28.24-.14.4-.35.48-.62.05-.28.07-.54.07-.78,0-.8-.24-1.45-.73-1.95-.5-.49-1.33-.74-2.5-.75-1.02-.02-1.87.19-2.53.62-.65.45-1.06,1.25-1.23,2.4h-1.52c.15-1.57.72-2.7,1.7-3.4.97-.66,2.18-.99,3.61-.99,1.34,0,2.45.3,3.33.89.88.64,1.33,1.72,1.35,3.24v7.26c-.03.58.08.95.32,1.11.22.17.64.14,1.25-.08v1.21c-.11.03-.26.08-.47.12-.23.08-.47.13-.7.13s-.45-.03-.67-.08c-.48-.1-.79-.34-.94-.71-.15-.37-.23-.79-.24-1.25-1.3,1.45-2.91,2.18-4.82,2.2-1.16,0-2.15-.33-2.98-.98-.87-.62-1.31-1.57-1.33-2.85,0-2.25,1.5-3.59,4.51-4.02l2.07-.28Zm2.53.77c-.63.24-1.28.42-1.93.52-.65.12-1.3.19-1.95.23-2.4.14-3.62,1.09-3.65,2.84.02.79.31,1.38.88,1.77.55.41,1.2.62,1.93.62,1.25,0,2.33-.32,3.27-.96.94-.61,1.42-1.59,1.45-2.93v-2.09Z"/><path class="cls-2" d="m120.64,24.08h-1.48v-13.33h1.48v1.85c.58-.68,1.21-1.22,1.88-1.61.65-.39,1.41-.59,2.29-.59,1.65-.04,2.96.59,3.94,1.9.31.46.5.94.57,1.44.05.51.07,1.05.07,1.62v8.72h-1.48v-8.69c.03-2.4-1.08-3.61-3.34-3.61-.93.02-1.7.28-2.3.78-.59.49-1.02,1.1-1.29,1.82-.24.8-.35,1.65-.33,2.52v7.17Z"/><path class="cls-2" d="m141.57,14.95c-.55-2.08-1.83-3.14-3.83-3.17-1.52.03-2.62.62-3.3,1.77-.71,1.14-1.06,2.44-1.05,3.9,0,1.44.34,2.72,1.02,3.84.68,1.15,1.79,1.74,3.32,1.77,2.26-.03,3.57-1.23,3.96-3.58h1.59c-.24,1.5-.82,2.69-1.74,3.57-.92.91-2.18,1.38-3.8,1.39-2.03-.03-3.52-.71-4.49-2.04-.96-1.31-1.45-2.96-1.45-4.96s.51-3.58,1.54-4.95c1-1.37,2.46-2.06,4.39-2.1,3.03-.02,4.81,1.49,5.35,4.55h-1.52Z"/><path class="cls-2" d="m150.84,24.44c-1.7-.02-3.1-.62-4.21-1.81-1.16-1.16-1.75-2.9-1.76-5.21,0-2.01.5-3.68,1.5-5,1-1.31,2.49-1.99,4.48-2.02,2.01.03,3.51.71,4.51,2.02.98,1.32,1.47,2.99,1.47,5-.02,2.14-.56,3.83-1.62,5.06-1.06,1.29-2.52,1.94-4.37,1.96Zm4.4-7.02c.02-1.62-.32-2.96-1-4.03-.68-1.07-1.82-1.61-3.4-1.62-1.56.03-2.68.61-3.37,1.72-.68,1.12-1.03,2.42-1.03,3.92,0,1.68.38,3.02,1.15,4.04.73,1.05,1.81,1.58,3.25,1.6,1.57-.02,2.7-.6,3.4-1.75.67-1.12,1-2.41,1-3.89Z"/><path class="cls-2" d="m160.03,24.08h-1.48v-13.33h1.49v2h.05c.91-1.55,2.29-2.33,4.12-2.35,1.21.02,2.11.26,2.68.74.56.48.97,1.08,1.23,1.82.95-1.71,2.4-2.56,4.35-2.56.93,0,1.67.14,2.21.43.55.29.96.69,1.23,1.19.28.49.47,1.05.58,1.67.08.64.13,1.3.13,1.97v8.42h-1.48v-9.21c0-.96-.2-1.72-.6-2.26-.41-.55-1.17-.83-2.28-.83-1.2,0-2.22.51-3.04,1.52-.33.46-.55,1.03-.67,1.7-.14.67-.22,1.31-.22,1.91v7.17h-1.48v-9.21c0-.96-.2-1.72-.6-2.26-.41-.55-1.17-.83-2.28-.83-1.19,0-2.2.51-3.03,1.52-.33.46-.56,1.03-.68,1.7-.14.67-.2,1.31-.2,1.91v7.17Z"/><path class="cls-2" d="m180.31,17.77c0,1.48.37,2.72,1.1,3.72.73,1.03,1.82,1.56,3.25,1.57,2.05-.02,3.36-1.04,3.91-3.07h1.67c-.35,1.29-.95,2.34-1.81,3.16-.88.84-2.14,1.28-3.76,1.29-2.04-.03-3.55-.71-4.51-2.04-.97-1.29-1.44-2.94-1.42-4.94,0-2.01.53-3.69,1.59-5.03,1.03-1.33,2.48-2.01,4.34-2.05,3.67.03,5.55,2.49,5.67,7.37h-10.02Zm8.44-1.28c0-1.36-.34-2.47-1.02-3.34-.7-.9-1.72-1.35-3.06-1.37-1.32.02-2.33.48-3.05,1.4-.72.9-1.15,2.01-1.31,3.32h8.44Z"/><path class="cls-2" d="m194.24,24.08h-1.48v-13.33h1.48v2.49h.05c.41-1.06.95-1.8,1.62-2.23.67-.41,1.53-.61,2.59-.61v1.66c-1.64,0-2.77.52-3.39,1.57-.6,1.07-.89,2.37-.88,3.92v6.53Z"/></g></svg>