<?xml version="1.0" encoding="UTF-8"?><svg id="Capa_2" xmlns="http://www.w3.org/2000/svg" viewBox="0 0 178.07 105.75"><defs><style>.cls-1{fill:#fff;}.cls-2{fill:#1d1d1b;}</style></defs><g id="Capa_1-2"><polygon class="cls-1" points="169.25 41.99 165.29 38.03 166.77 36.55 169.25 39.02 174.94 33.33 176.43 34.81 169.25 41.99"/><polygon class="cls-1" points="135.93 36.61 131.19 36.61 131.19 31.87 129.09 31.87 129.09 36.61 124.34 36.61 124.34 38.71 129.09 38.71 129.09 43.45 131.19 43.45 131.19 38.71 135.93 38.71 135.93 36.61"/><polygon class="cls-1" points="94.37 34.31 92.88 32.82 89.53 36.17 86.17 32.82 84.69 34.31 88.04 37.66 84.69 41.01 86.17 42.5 89.53 39.15 92.88 42.5 94.37 41.01 91.01 37.66 94.37 34.31"/><path class="cls-1" d="m52.57,39.36c-.75,0-1.42.28-1.94.74l-2.89-2.04c.01-.11.03-.22.03-.34,0-.21-.02-.41-.06-.6l2.7-2.1c.54.57,1.31.94,2.16.94,1.64,0,2.98-1.33,2.98-2.98s-1.33-2.98-2.98-2.98-2.98,1.33-2.98,2.98c0,0,0,0,0,.01l-3.02,2.35c-.5-.37-1.11-.6-1.78-.6-1.64,0-2.98,1.33-2.98,2.98s1.33,2.98,2.98,2.98c.76,0,1.44-.29,1.96-.76l2.87,2.02c-.02.12-.04.25-.04.37,0,1.64,1.33,2.98,2.98,2.98s2.98-1.33,2.98-2.98-1.33-2.98-2.98-2.98Z"/><path class="cls-1" d="m14.24,37.41v-2.3c0-2.39-1.95-4.34-4.34-4.34s-4.34,1.95-4.34,4.34v2.3h-1.67v7.15h11.73v-7.15h-1.38Zm-6.58-2.3c0-1.23,1-2.24,2.24-2.24s2.24,1,2.24,2.24v2.3h-4.48v-2.3Z"/><rect class="cls-1" x=".31" y="10.52" width="18.17" height="5.86"/><polygon class="cls-1" points="17.76 9.24 1.74 9.24 4.46 4.37 14.9 4.37 17.76 9.24"/><polygon class="cls-1" points="56.39 18.45 43.98 18.45 43.98 1.86 51.23 1.86 51.23 6.78 56.39 6.9 56.39 18.45"/><polygon class="cls-1" points="52.33 1.99 52.33 5.55 56.27 5.55 52.33 1.99"/><polygon class="cls-1" points="98.07 16.53 81.11 16.53 81.11 3.94 88.14 3.94 89.99 6.2 98.07 6.19 98.07 16.53"/><polygon class="cls-1" points="40.89 56.87 41.03 64.23 54.4 65.45 40.96 67.02 41.03 73.82 58.7 65.66 40.89 56.87"/><path class="cls-2" d="m126.98,89.43l-1.39.1c-1.95.12-3.49,1.64-3.49,3.5s1.54,3.38,3.49,3.5h1.76s6.85.01,6.85.01v-7.03l-7.22-.08Z"/><path class="cls-1" d="m135.25,97.59h-9.72c-2.51-.17-4.48-2.17-4.48-4.57s1.97-4.4,4.48-4.55l1.42-.1,8.3.1v9.12Zm-9.62-2.11h1.73s5.8.01,5.8.01v-4.94l-6.14-.07-1.35.09c-1.41.09-2.51,1.16-2.51,2.46s1.09,2.36,2.48,2.45Z"/><circle class="cls-1" cx="134.75" cy="93.03" r="4.48"/><path class="cls-2" d="m86.83,89.38h-1.52c-1.95.13-3.49,1.69-3.49,3.61s1.54,3.47,3.49,3.6h1.67s6.95.01,6.95.01v-7.21h-7.09Z"/><path class="cls-1" d="m94.97,97.64h-9.73c-2.51-.17-4.48-2.21-4.48-4.66s1.97-4.49,4.48-4.64h.06s1.53-.01,1.53-.01h8.14v9.31Zm-9.62-2.11h1.63s5.89.01,5.89.01v-5.11h-7.52c-1.39.11-2.48,1.22-2.48,2.56s1.09,2.44,2.48,2.54Z"/><circle class="cls-2" cx="94.65" cy="93" r="3.62"/><path class="cls-1" d="m94.65,97.67c-2.58,0-4.67-2.09-4.67-4.67s2.09-4.67,4.67-4.67,4.67,2.09,4.67,4.67-2.09,4.67-4.67,4.67Zm0-7.24c-1.42,0-2.57,1.15-2.57,2.57s1.15,2.57,2.57,2.57,2.57-1.15,2.57-2.57-1.15-2.57-2.57-2.57Z"/><rect class="cls-1" x="91.65" y="62.83" width="1.87" height="10.3" transform="translate(-15.9 105.75) rotate(-55.48)"/><circle class="cls-2" cx="85.98" cy="63.49" r="3.55"/><path class="cls-1" d="m85.98,67.97c-2.47,0-4.48-2.01-4.48-4.48s2.01-4.48,4.48-4.48,4.48,2.01,4.48,4.48-2.01,4.48-4.48,4.48Zm0-7.09c-1.44,0-2.61,1.17-2.61,2.61s1.17,2.61,2.61,2.61,2.61-1.17,2.61-2.61-1.17-2.61-2.61-2.61Z"/><rect class="cls-1" x="123.27" y="59.42" width="13.74" height="2.1"/><rect class="cls-1" x="123.27" y="64.29" width="13.74" height="2.1"/><rect class="cls-1" x="123.27" y="69.16" width="13.74" height="2.1"/><path class="cls-1" d="m2.96,90.14c0-.08,0-.16,0-.24,0-2.29,1.86-4.15,4.15-4.15,1.6,0,2.98.9,3.68,2.23.38-.16.8-.26,1.25-.26,1.45,0,2.66.97,3.04,2.3.2-.03.41-.05.62-.05,2.29,0,4.15,1.86,4.15,4.15,0,2.29-1.86,4.15-4.15,4.15H4.15c-2.29,0-4.15-1.86-4.15-4.15,0-1.88,1.25-3.47,2.96-3.98Z"/><polygon class="cls-2" points="9.58 91.58 6.84 94.96 12.31 94.96 9.58 91.58"/><rect class="cls-2" x="8.69" y="94.47" width="1.67" height="4.58"/><polygon class="cls-1" points="175.08 65.34 170.12 61.46 170.12 64.08 164.1 64.08 164.1 66.45 170.12 66.45 170.12 69.22 175.08 65.34"/><polygon class="cls-1" points="174.55 91.92 168.52 91.92 168.52 89.14 163.56 93.03 168.52 96.91 168.52 94.29 174.55 94.29 174.55 91.92"/><path class="cls-1" d="m55.95,90.47c-.21,0-.41.02-.62.05-.38-1.33-1.59-2.3-3.04-2.3-.44,0-.86.09-1.25.26-.69-1.32-2.08-2.23-3.68-2.23-2.29,0-4.15,1.86-4.15,4.15,0,.08,0,.16,0,.24-1.71.51-2.96,2.1-2.96,3.98,0,2.29,1.86,4.15,4.15,4.15h4.52v3.6h-1.89l2.64,3.38,2.64-3.38h-1.78v-3.6h5.4c2.29,0,4.15-1.86,4.15-4.15s-1.86-4.15-4.15-4.15Z"/><polygon class="cls-1" points="133.71 6.18 133.71 3.38 135.59 3.38 132.95 0 130.31 3.38 132.1 3.38 132.1 6.1 129.4 6.1 127.02 3.94 121.66 3.94 121.66 16.53 138.62 16.53 138.62 6.22 133.71 6.18"/><polygon class="cls-1" points="178.07 16.53 161.11 16.53 161.11 3.94 168.13 3.94 169.99 6.2 178.07 6.06 178.07 16.53"/><polygon class="cls-2" points="165.68 11.48 169.05 14.12 169.05 8.85 165.68 11.48"/><rect class="cls-2" x="170.05" y="9.25" width="1.61" height="4.58" transform="translate(159.32 182.39) rotate(-90)"/><circle class="cls-1" cx="9.92" cy="60.17" r="1.58"/><circle class="cls-1" cx="5.48" cy="61.87" r="1.58"/><circle class="cls-1" cx="3.71" cy="66.11" r="1.58"/><circle class="cls-1" cx="5.48" cy="70.36" r="1.58"/><circle class="cls-1" cx="9.66" cy="72.19" r="1.58"/><circle class="cls-1" cx="13.97" cy="70.42" r="1.58"/><circle class="cls-1" cx="15.8" cy="66.11" r="1.58"/></g></svg>