<?xml version="1.0" encoding="UTF-8"?><svg id="Capa_2" xmlns="http://www.w3.org/2000/svg" xmlns:xlink="http://www.w3.org/1999/xlink" viewBox="0 0 235.14 134.21"><defs><style>.cls-1{fill:#fff;}.cls-2{fill:#ffcb03;}.cls-3{fill:url(#Degradado_sin_nombre_9-2);}.cls-4{fill:url(#Degradado_sin_nombre_87-2);}.cls-5{fill:url(#Degradado_sin_nombre_9);}.cls-6{fill:url(#Degradado_sin_nombre_87);}.cls-7{fill:#0092d3;}</style><linearGradient id="Degradado_sin_nombre_9" x1="-206.65" y1="917.98" x2="-194.32" y2="890.91" gradientTransform="translate(274.56 -872.76)" gradientUnits="userSpaceOnUse"><stop offset="0" stop-color="#c8a209"/><stop offset=".04" stop-color="#d5ab07"/><stop offset=".11" stop-color="#ecbd04"/><stop offset=".16" stop-color="#f5c404"/><stop offset="1" stop-color="#ffcb03"/></linearGradient><linearGradient id="Degradado_sin_nombre_87" x1="-195.8" y1="921.69" x2="-183.47" y2="894.61" gradientTransform="translate(274.56 -872.76)" gradientUnits="userSpaceOnUse"><stop offset="0" stop-color="#00709e"/><stop offset=".01" stop-color="#0073a3"/><stop offset=".07" stop-color="#007eb5"/><stop offset=".12" stop-color="#0084bf"/><stop offset=".19" stop-color="#0087c3"/><stop offset="1" stop-color="#0092d3"/></linearGradient><linearGradient id="Degradado_sin_nombre_9-2" x1="-206.65" y1="985.09" x2="-194.31" y2="958.01" xlink:href="#Degradado_sin_nombre_9"/><linearGradient id="Degradado_sin_nombre_87-2" x1="-195.8" y1="988.79" x2="-183.46" y2="961.72" xlink:href="#Degradado_sin_nombre_87"/></defs><g id="Capa_1-2"><rect x="84.02" y="-84.02" width="67.1" height="235.14" transform="translate(84.02 151.12) rotate(-90)"/><rect class="cls-1" x="84.02" y="-16.91" width="67.1" height="235.14" transform="translate(16.91 218.23) rotate(-90)"/><path class="cls-5" d="m81.93,22.23l-10.38,24.4h-8.53s14.96-33.07,14.96-33.07"/><path class="cls-6" d="m76.99,44.88l10.38-24.4h8.53s-14.96,33.07-14.96,33.07"/><polygon class="cls-7" points="80.93 53.55 66.53 20.48 57.53 20.48 72.57 53.55 80.93 53.55"/><polygon class="cls-2" points="77.99 13.56 92.39 46.63 101.39 46.63 86.35 13.56 77.99 13.56"/><path class="cls-1" d="m170.9,27.37l6.72,18.78h-5.54s-3.93-12.41-3.93-12.41l-3.97,12.41h-5.23s6.76-18.78,6.76-18.78h5.19Z"/><path class="cls-1" d="m107.19,46.15v-25.66s4.89,0,4.89,0v9.32c1.4-1.96,3.26-2.94,5.57-2.94,1.22,0,2.31.24,3.26.71.96.47,1.76,1.14,2.42,2.01.66.86,1.17,1.89,1.51,3.07s.51,2.49.51,3.91c0,1.58-.2,2.99-.61,4.24-.41,1.25-.97,2.3-1.68,3.17-.71.86-1.57,1.53-2.58,1.98s-2.09.69-3.27.69c-2.34,0-4.08-.93-5.23-2.79l-.04,2.29h-4.77Zm8.9-3.55c1.25,0,2.26-.53,3.05-1.58.79-1.06,1.18-2.42,1.18-4.11,0-3.87-1.43-5.8-4.28-5.8s-4.16,2.04-4.16,6.11c0,1.6.4,2.9,1.2,3.89.8.99,1.8,1.49,3,1.49Z"/><path class="cls-1" d="m127.19,46.15v-25.66s4.89,0,4.89,0v9.32c1.4-1.96,3.26-2.94,5.57-2.94,1.22,0,2.31.24,3.26.71.96.47,1.76,1.14,2.42,2.01.66.86,1.17,1.89,1.51,3.07s.51,2.49.51,3.91c0,1.58-.2,2.99-.61,4.24-.41,1.25-.97,2.3-1.68,3.17-.71.86-1.57,1.53-2.58,1.98s-2.09.69-3.27.69c-2.34,0-4.08-.93-5.23-2.79l-.04,2.29h-4.77Zm8.9-3.55c1.25,0,2.26-.53,3.05-1.58.79-1.06,1.18-2.42,1.18-4.11,0-3.87-1.43-5.8-4.28-5.8s-4.16,2.04-4.16,6.11c0,1.6.4,2.9,1.2,3.89.8.99,1.8,1.49,3,1.49Z"/><path class="cls-1" d="m151.74,46.15l-6.72-18.78h5.54s3.93,12.41,3.93,12.41l3.97-12.41h5.23s-6.76,18.78-6.76,18.78h-5.19Z"/><path class="cls-3" d="m81.93,89.33l-10.38,24.4h-8.53s14.96-33.07,14.96-33.07"/><path class="cls-4" d="m76.99,111.98l10.38-24.4h8.53s-14.96,33.07-14.96,33.07"/><polygon class="cls-7" points="80.93 120.65 66.53 87.58 57.53 87.58 72.57 120.65 80.93 120.65"/><polygon class="cls-2" points="77.99 80.66 92.39 113.73 101.39 113.73 86.35 80.66 77.99 80.66"/><path d="m170.9,94.47l6.72,18.78h-5.54s-3.93-12.41-3.93-12.41l-3.97,12.41h-5.23s6.76-18.78,6.76-18.78h5.19Z"/><path d="m107.19,113.26v-25.66s4.89,0,4.89,0v9.32c1.4-1.96,3.26-2.94,5.57-2.94,1.22,0,2.31.24,3.26.71.96.47,1.76,1.14,2.42,2.01.66.86,1.17,1.89,1.51,3.07.34,1.18.51,2.49.51,3.91,0,1.58-.2,2.99-.61,4.24-.41,1.25-.97,2.3-1.68,3.17-.71.86-1.57,1.53-2.58,1.98s-2.09.69-3.27.69c-2.34,0-4.08-.93-5.23-2.79l-.04,2.29h-4.77Zm8.9-3.55c1.25,0,2.26-.53,3.05-1.58.79-1.06,1.18-2.42,1.18-4.11,0-3.87-1.43-5.8-4.28-5.8s-4.16,2.04-4.16,6.11c0,1.6.4,2.9,1.2,3.89.8.99,1.8,1.49,3,1.49Z"/><path d="m127.19,113.26v-25.66s4.89,0,4.89,0v9.32c1.4-1.96,3.26-2.94,5.57-2.94,1.22,0,2.31.24,3.26.71.96.47,1.76,1.14,2.42,2.01.66.86,1.17,1.89,1.51,3.07s.51,2.49.51,3.91c0,1.58-.2,2.99-.61,4.24-.41,1.25-.97,2.3-1.68,3.17-.71.86-1.57,1.53-2.58,1.98-1.01.46-2.09.69-3.27.69-2.34,0-4.08-.93-5.23-2.79l-.04,2.29h-4.77Zm8.9-3.55c1.25,0,2.26-.53,3.05-1.58.79-1.06,1.18-2.42,1.18-4.11,0-3.87-1.43-5.8-4.28-5.8s-4.16,2.04-4.16,6.11c0,1.6.4,2.9,1.2,3.89.8.99,1.8,1.49,3,1.49Z"/><path d="m151.74,113.26l-6.72-18.78h5.54s3.93,12.41,3.93,12.41l3.97-12.41h5.23s-6.76,18.78-6.76,18.78h-5.19Z"/></g></svg>