<?xml version="1.0" encoding="UTF-8"?><svg id="Capa_2" xmlns="http://www.w3.org/2000/svg" viewBox="0 0 173.72 103.03"><defs><style>.cls-1{fill:#fff;}.cls-2{fill:#1d1d1b;}</style></defs><g id="Capa_2-2"><polygon class="cls-1" points="163.1 35.48 167.06 31.52 168.54 33.01 166.07 35.48 171.76 41.18 170.28 42.66 163.1 35.48"/><polygon class="cls-1" points="132.82 39.71 129.46 36.36 132.82 33.01 131.33 31.52 127.98 34.88 124.62 31.52 123.14 33.01 126.49 36.36 123.14 39.71 124.62 41.2 127.98 37.85 131.33 41.2 132.82 39.71"/><polygon class="cls-1" points="93.16 37.41 93.16 35.31 88.42 35.31 88.42 30.57 86.32 30.57 86.32 35.31 81.57 35.31 81.57 37.41 86.32 37.41 86.32 42.15 88.42 42.15 88.42 37.41 93.16 37.41"/><path class="cls-1" d="m44.83,40.25c0-.75-.28-1.42-.74-1.94l2.04-2.89c.11,0,.22.03.34.03.21,0,.41-.02.6-.06l2.1,2.7c-.57.54-.94,1.31-.94,2.16,0,1.64,1.33,2.98,2.98,2.98s2.98-1.33,2.98-2.98-1.33-2.98-2.98-2.98h0l-2.35-3.02c.37-.5.6-1.11.6-1.78,0-1.64-1.33-2.98-2.98-2.98s-2.98,1.33-2.98,2.98c0,.76.29,1.44.76,1.96l-2.02,2.87c-.12-.02-.25-.04-.37-.04-1.64,0-2.98,1.33-2.98,2.98s1.33,2.98,2.98,2.98,2.98-1.33,2.98-2.98h0Z"/><path class="cls-1" d="m7.85,40.84h2.3c2.39,0,4.34-1.95,4.34-4.34s-1.95-4.34-4.34-4.34h-2.3v-1.67H.69v11.73h7.15v-1.38h0Zm2.3-6.58c1.23,0,2.24,1,2.24,2.24s-1,2.24-2.24,2.24h-2.3v-4.48s2.3,0,2.3,0Z"/><rect class="cls-1" x="1.23" width="5.86" height="18.17"/><polygon class="cls-1" points="8.38 17.45 8.38 1.43 13.24 4.15 13.24 14.59 8.38 17.45"/><polygon class="cls-1" points="39.73 15.07 39.73 2.65 56.32 2.65 56.32 9.9 51.4 9.9 51.28 15.07 39.73 15.07"/><polygon class="cls-1" points="56.19 11.01 52.63 11.01 52.63 14.94 56.19 11.01"/><polygon class="cls-1" points="81.14 17.42 81.14 .46 93.73 .46 93.73 7.48 91.47 9.34 91.61 17.42 81.14 17.42"/><polygon class="cls-1" points="56.11 56.14 48.74 56.28 47.52 69.65 45.95 56.21 39.16 56.28 47.31 73.95 56.11 56.14"/><path class="cls-2" d="m131.53,89.98l-.1-1.39c-.12-1.95-1.64-3.49-3.5-3.49s-3.38,1.54-3.5,3.49v8.61s7.02,0,7.02,0l.08-7.22Z"/><path class="cls-1" d="m123.37,98.25v-9.72c.17-2.51,2.17-4.48,4.57-4.48s4.4,1.97,4.55,4.48l.1,1.42-.1,8.3h-9.12Zm2.11-9.62v7.53s4.93,0,4.93,0l.07-6.14-.09-1.35c-.09-1.41-1.16-2.51-2.46-2.51s-2.36,1.09-2.45,2.48h0Z"/><circle class="cls-1" cx="127.93" cy="97.74" r="4.48"/><path class="cls-2" d="m91.5,89.92v-1.52c-.13-1.95-1.69-3.49-3.61-3.49s-3.47,1.54-3.6,3.49v8.62s7.2,0,7.2,0v-7.09h.01Z"/><path class="cls-1" d="m83.24,98.06v-9.73c.17-2.51,2.21-4.48,4.66-4.48s4.49,1.97,4.64,4.48v1.59s.01,8.14.01,8.14h-9.31Zm2.11-9.62v7.52s5.1,0,5.1,0v-7.52c-.11-1.39-1.22-2.48-2.56-2.48s-2.44,1.09-2.54,2.48Z"/><circle class="cls-2" cx="87.88" cy="97.74" r="3.62"/><path class="cls-1" d="m83.21,97.74c0-2.58,2.09-4.67,4.67-4.67s4.67,2.09,4.67,4.67-2.09,4.67-4.67,4.67-4.67-2.09-4.67-4.67Zm7.24,0c0-1.42-1.15-2.57-2.57-2.57s-2.57,1.15-2.57,2.57,1.15,2.57,2.57,2.57,2.57-1.15,2.57-2.57Z"/><rect class="cls-1" x="79.48" y="66.26" width="10.3" height="1.87" transform="translate(-18.7 98.84) rotate(-55.48)"/><circle class="cls-2" cx="89.12" cy="60.6" r="3.55"/><path class="cls-1" d="m84.64,60.6c0-2.47,2.01-4.48,4.48-4.48s4.48,2.01,4.48,4.48-2.01,4.48-4.48,4.48-4.48-2.01-4.48-4.48Zm7.09,0c0-1.44-1.17-2.61-2.61-2.61s-2.61,1.17-2.61,2.61,1.17,2.61,2.61,2.61,2.61-1.17,2.61-2.61Z"/><rect class="cls-1" x="131.79" y="57.93" width="2.1" height="13.74"/><rect class="cls-1" x="126.93" y="57.93" width="2.1" height="13.74"/><rect class="cls-1" x="122.06" y="57.93" width="2.1" height="13.74"/><path class="cls-1" d="m9.92,85.96h.24c2.29,0,4.15,1.86,4.15,4.15,0,1.6-.9,2.98-2.23,3.68.16.38.26.8.26,1.25,0,1.45-.97,2.66-2.3,3.04.03.2.05.41.05.62,0,2.29-1.86,4.15-4.15,4.15s-4.15-1.86-4.15-4.15v-11.53c0-2.29,1.86-4.15,4.15-4.15,1.88,0,3.47,1.25,3.98,2.96v-.02Z"/><polygon class="cls-2" points="8.47 92.58 5.1 89.84 5.1 95.31 8.47 92.58"/><rect class="cls-2" x="1.01" y="91.69" width="4.58" height="1.67"/><polygon class="cls-1" points="167.43 70.53 171.31 65.57 168.69 65.57 168.69 59.55 166.32 59.55 166.32 65.57 163.55 65.57 167.43 70.53"/><polygon class="cls-1" points="168.53 97.75 168.53 91.73 171.31 91.73 167.42 86.77 163.54 91.73 166.16 91.73 166.16 97.75 168.53 97.75"/><path class="cls-1" d="m52.05,98.9c0-.21-.02-.41-.05-.62,1.33-.38,2.3-1.59,2.3-3.04,0-.44-.09-.86-.26-1.25,1.32-.69,2.23-2.08,2.23-3.68,0-2.29-1.86-4.15-4.15-4.15h-.24c-.51-1.71-2.1-2.96-3.98-2.96-2.29,0-4.15,1.86-4.15,4.15v4.52h-3.6v-1.89l-3.38,2.64,3.38,2.64v-1.78h3.6v5.4c0,2.29,1.86,4.15,4.15,4.15s4.15-1.86,4.15-4.15v.02Z"/><polygon class="cls-1" points="161.14 17.42 161.14 .46 173.72 .46 173.72 7.48 171.47 9.34 171.6 17.42 161.14 17.42"/><polygon class="cls-2" points="166.18 5.03 163.54 8.4 168.82 8.4 166.18 5.03"/><rect class="cls-2" x="165.33" y="7.92" width="1.61" height="4.58"/><circle class="cls-1" cx="13.6" cy="65.04" r="1.58"/><circle class="cls-1" cx="11.9" cy="60.6" r="1.58"/><circle class="cls-1" cx="7.66" cy="58.84" r="1.58"/><circle class="cls-1" cx="3.41" cy="60.6" r="1.58"/><circle class="cls-1" cx="1.58" cy="64.78" r="1.58"/><circle class="cls-1" cx="3.35" cy="69.09" r="1.58"/><circle class="cls-1" cx="7.66" cy="70.92" r="1.58"/><polygon class="cls-1" points="130.06 12.65 132.87 12.65 132.87 14.54 136.25 11.9 132.87 9.25 132.87 11.04 130.15 11.04 130.15 8.34 132.3 5.96 132.3 .6 119.71 .6 119.71 17.56 130.02 17.56 130.06 12.65"/></g></svg>