<?xml version="1.0" encoding="UTF-8"?><svg id="Capa_2" xmlns="http://www.w3.org/2000/svg" xmlns:xlink="http://www.w3.org/1999/xlink" viewBox="0 0 283.8 141.9"><defs><style>.cls-1{fill:#fff;}.cls-2{fill:#0093d4;}.cls-3{fill:#ffcc03;}.cls-4{fill:url(#Degradado_sin_nombre_9-2);}.cls-5{fill:url(#Degradado_sin_nombre_87-2);}.cls-6{fill:url(#Degradado_sin_nombre_9);}.cls-7{fill:url(#Degradado_sin_nombre_87);}.cls-8{fill:#1d1d1b;}</style><linearGradient id="Degradado_sin_nombre_9" x1="1113.95" y1="1195.17" x2="1126.28" y2="1168.09" gradientTransform="translate(-966.95 1147.55) rotate(-90)" gradientUnits="userSpaceOnUse"><stop offset="0" stop-color="#c9a309"/><stop offset=".03" stop-color="#d5ac07"/><stop offset=".11" stop-color="#ecbe05"/><stop offset=".16" stop-color="#f5c505"/><stop offset="1" stop-color="#ffcc03"/></linearGradient><linearGradient id="Degradado_sin_nombre_87" x1="47.06" y1="48.32" x2="59.39" y2="21.25" gradientTransform="translate(245.8 -14.92) rotate(90)" gradientUnits="userSpaceOnUse"><stop offset="0" stop-color="#00709f"/><stop offset=".01" stop-color="#0073a3"/><stop offset=".06" stop-color="#007eb5"/><stop offset=".12" stop-color="#0085bf"/><stop offset=".19" stop-color="#0088c3"/><stop offset="1" stop-color="#0093d4"/></linearGradient><linearGradient id="Degradado_sin_nombre_9-2" x1="1113.95" y1="1053.27" x2="1126.28" y2="1026.19" xlink:href="#Degradado_sin_nombre_9"/><linearGradient id="Degradado_sin_nombre_87-2" x1="47.06" y1="190.22" x2="59.39" y2="163.14" xlink:href="#Degradado_sin_nombre_87"/></defs><g id="Capa_1-2"><rect x="141.9" y="0" width="141.9" height="141.9"/><path class="cls-6" d="m224.17,35.34l-24.4-10.38v-8.53l33.07,14.96"/><path class="cls-7" d="m201.52,30.4l24.4,10.38v8.53l-33.07-14.96"/><polygon class="cls-2" points="192.85 34.34 225.92 19.94 225.92 10.93 192.85 25.98 192.85 34.34"/><polygon class="cls-3" points="232.84 31.39 199.77 45.79 199.77 54.8 232.84 39.76 232.84 31.39"/><rect class="cls-1" x="0" y="0" width="141.9" height="141.9"/><path class="cls-4" d="m82.28,35.34l-24.4-10.38v-8.53l33.07,14.96"/><path class="cls-5" d="m59.62,30.4l24.4,10.38v8.53l-33.07-14.96"/><polygon class="cls-2" points="50.95 34.34 84.03 19.94 84.03 10.93 50.95 25.98 50.95 34.34"/><polygon class="cls-3" points="90.95 31.39 57.87 45.79 57.87 54.8 90.95 39.76 90.95 31.39"/><path class="cls-8" d="m77.14,124.31l-18.78,6.72v-5.54l12.41-3.93-12.41-3.97v-5.23l18.78,6.76v5.19Z"/><path class="cls-8" d="m58.35,60.6h25.66v4.89h-9.32c1.96,1.4,2.94,3.26,2.94,5.58,0,1.22-.24,2.31-.71,3.26-.47.96-1.14,1.76-2.01,2.42-.86.66-1.89,1.17-3.07,1.51-1.18.34-2.49.51-3.91.51-1.58,0-2.99-.2-4.24-.61-1.25-.41-2.3-.97-3.17-1.68-.86-.71-1.53-1.57-1.98-2.58-.46-1.01-.69-2.09-.69-3.27,0-2.34.93-4.08,2.79-5.23l-2.29-.04v-4.77Zm3.55,8.9c0,1.25.53,2.26,1.58,3.05,1.06.79,2.42,1.18,4.11,1.18,3.87,0,5.8-1.43,5.8-4.28s-2.04-4.16-6.11-4.16c-1.6,0-2.9.4-3.89,1.2-.99.8-1.49,1.8-1.49,3Z"/><path class="cls-8" d="m58.35,80.6h25.66v4.89h-9.32c1.96,1.4,2.94,3.26,2.94,5.58,0,1.22-.24,2.31-.71,3.26-.47.96-1.14,1.76-2.01,2.42-.86.66-1.89,1.17-3.07,1.51s-2.49.51-3.91.51c-1.58,0-2.99-.2-4.24-.61-1.25-.41-2.3-.97-3.17-1.68-.86-.71-1.53-1.57-1.98-2.58-.46-1.01-.69-2.09-.69-3.27,0-2.34.93-4.08,2.79-5.23l-2.29-.04v-4.77Zm3.55,8.9c0,1.25.53,2.26,1.58,3.05,1.06.79,2.42,1.18,4.11,1.18,3.87,0,5.8-1.43,5.8-4.28s-2.04-4.16-6.11-4.16c-1.6,0-2.9.4-3.89,1.2-.99.8-1.49,1.8-1.49,3Z"/><path class="cls-8" d="m58.35,105.15l18.78-6.72v5.54l-12.41,3.93,12.41,3.97v5.23l-18.78-6.76v-5.19Z"/><path class="cls-1" d="m219.03,124.31l-18.78,6.72v-5.54s12.41-3.93,12.41-3.93l-12.41-3.97v-5.23s18.78,6.76,18.78,6.76v5.19Z"/><path class="cls-1" d="m200.25,60.6h25.66s0,4.89,0,4.89h-9.32c1.96,1.4,2.94,3.26,2.94,5.57,0,1.22-.24,2.31-.71,3.26-.47.96-1.14,1.76-2.01,2.42-.86.66-1.89,1.17-3.07,1.51-1.18.34-2.49.51-3.91.51-1.58,0-2.99-.2-4.24-.61-1.25-.41-2.3-.97-3.17-1.68-.86-.71-1.53-1.57-1.98-2.58s-.69-2.09-.69-3.27c0-2.34.93-4.08,2.79-5.23l-2.29-.04v-4.77Zm3.55,8.9c0,1.25.53,2.26,1.58,3.05,1.06.79,2.42,1.18,4.11,1.18,3.87,0,5.8-1.43,5.8-4.28s-2.04-4.16-6.11-4.16c-1.6,0-2.9.4-3.89,1.2-.99.8-1.49,1.8-1.49,3Z"/><path class="cls-1" d="m200.24,80.6h25.66s0,4.89,0,4.89h-9.32c1.96,1.4,2.94,3.26,2.94,5.57,0,1.22-.24,2.31-.71,3.26-.47.96-1.14,1.76-2.01,2.42-.86.66-1.89,1.17-3.07,1.51s-2.49.51-3.91.51c-1.58,0-2.99-.2-4.24-.61-1.25-.41-2.3-.97-3.17-1.68-.86-.71-1.53-1.57-1.98-2.58s-.69-2.09-.69-3.27c0-2.34.93-4.08,2.79-5.23l-2.29-.04v-4.77Zm3.55,8.9c0,1.25.53,2.26,1.58,3.05,1.06.79,2.42,1.18,4.11,1.18,3.87,0,5.8-1.43,5.8-4.28s-2.04-4.16-6.11-4.16c-1.6,0-2.9.4-3.89,1.2-.99.8-1.49,1.8-1.49,3Z"/><path class="cls-1" d="m200.24,105.15l18.78-6.72v5.54s-12.41,3.93-12.41,3.93l12.41,3.97v5.23s-18.78-6.76-18.78-6.76v-5.19Z"/></g></svg>