<?xml version="1.0" encoding="UTF-8"?><svg id="Capa_2" xmlns="http://www.w3.org/2000/svg" xmlns:xlink="http://www.w3.org/1999/xlink" viewBox="0 0 228.58 201.63"><defs><style>.cls-1{fill:url(#Degradado_sin_nombre_87-5);}.cls-2{fill:#fff;}.cls-3{fill:#0093d4;}.cls-4{fill:url(#Degradado_sin_nombre_9-4);}.cls-5{fill:url(#Degradado_sin_nombre_9-5);}.cls-6{fill:#ffcc03;}.cls-7{fill:url(#Degradado_sin_nombre_9-2);}.cls-8{fill:url(#Degradado_sin_nombre_9-3);}.cls-9{fill:url(#Degradado_sin_nombre_87-3);}.cls-10{fill:url(#Degradado_sin_nombre_87-4);}.cls-11{fill:url(#Degradado_sin_nombre_87-2);}.cls-12{fill:url(#Degradado_sin_nombre_9);}.cls-13{fill:url(#Degradado_sin_nombre_87);}</style><linearGradient id="Degradado_sin_nombre_9" x1="-178.55" y1="1038.02" x2="-169.31" y2="1017.73" gradientTransform="translate(-862.47 -161.43) rotate(-90)" gradientUnits="userSpaceOnUse"><stop offset="0" stop-color="#c9a309"/><stop offset=".03" stop-color="#d5ac07"/><stop offset=".11" stop-color="#ecbe05"/><stop offset=".16" stop-color="#f5c505"/><stop offset="1" stop-color="#ffcc03"/></linearGradient><linearGradient id="Degradado_sin_nombre_87" x1="29.5" y1="62.59" x2="38.74" y2="42.3" gradientTransform="translate(215.11 -13.47) rotate(90)" gradientUnits="userSpaceOnUse"><stop offset="0" stop-color="#00709f"/><stop offset=".01" stop-color="#0073a3"/><stop offset=".06" stop-color="#007eb5"/><stop offset=".12" stop-color="#0085bf"/><stop offset=".19" stop-color="#0088c3"/><stop offset="1" stop-color="#0093d4"/></linearGradient><linearGradient id="Degradado_sin_nombre_9-2" x1="-178.55" y1="988.27" x2="-169.31" y2="967.98" xlink:href="#Degradado_sin_nombre_9"/><linearGradient id="Degradado_sin_nombre_87-2" x1="29.5" y1="112.34" x2="38.74" y2="92.05" xlink:href="#Degradado_sin_nombre_87"/><linearGradient id="Degradado_sin_nombre_9-3" x1="-178.74" y1="938.62" x2="-169.49" y2="918.33" xlink:href="#Degradado_sin_nombre_9"/><linearGradient id="Degradado_sin_nombre_87-3" x1="29.68" y1="161.99" x2="38.93" y2="141.7" xlink:href="#Degradado_sin_nombre_87"/><linearGradient id="Degradado_sin_nombre_9-4" x1="-178.48" y1="888.98" x2="-169.24" y2="868.68" xlink:href="#Degradado_sin_nombre_9"/><linearGradient id="Degradado_sin_nombre_87-4" x1="29.43" y1="211.64" x2="38.67" y2="191.35" xlink:href="#Degradado_sin_nombre_87"/><linearGradient id="Degradado_sin_nombre_9-5" x1="-178.42" y1="1087.59" x2="-169.17" y2="1067.3" xlink:href="#Degradado_sin_nombre_9"/><linearGradient id="Degradado_sin_nombre_87-5" x1="29.37" y1="13.03" x2="38.61" y2="-7.26" xlink:href="#Degradado_sin_nombre_87"/></defs><g id="Capa_1-2"><path class="cls-12" d="m172.52,18.42l-18.29-7.78v-6.39l24.79,11.21"/><path class="cls-13" d="m155.55,14.72l18.29,7.78v6.39l-24.79-11.21"/><polygon class="cls-3" points="149.05 17.68 173.83 6.88 173.83 .13 149.05 11.41 149.05 17.68"/><polygon class="cls-6" points="179.02 15.47 154.23 26.26 154.23 33.01 179.02 21.74 179.02 15.47"/><path class="cls-2" d="m168.67,85.1l-14.08,5.04v-4.15l9.3-2.95-9.3-2.98v-3.92l14.08,5.06v3.89Z"/><path class="cls-2" d="m154.59,37.35h19.23v3.66h-6.98c1.47,1.05,2.2,2.44,2.2,4.18,0,.92-.18,1.73-.53,2.45-.35.72-.85,1.32-1.5,1.82-.65.5-1.42.87-2.3,1.13-.89.26-1.86.39-2.93.39-1.18,0-2.24-.15-3.18-.46-.93-.31-1.73-.73-2.38-1.26s-1.14-1.18-1.49-1.93c-.34-.75-.51-1.57-.51-2.45,0-1.76.7-3.06,2.09-3.92l-1.72-.03v-3.58Zm2.66,6.67c0,.93.4,1.7,1.19,2.29.79.59,1.82.89,3.08.89,2.9,0,4.35-1.07,4.35-3.21s-1.53-3.12-4.58-3.12c-1.2,0-2.17.3-2.92.9-.74.6-1.12,1.35-1.12,2.25Z"/><path class="cls-2" d="m154.59,52.35h19.23v3.66h-6.98c1.47,1.05,2.2,2.44,2.2,4.18,0,.92-.18,1.73-.53,2.45-.35.72-.85,1.32-1.5,1.82-.65.5-1.42.87-2.3,1.13-.89.26-1.86.39-2.93.39-1.18,0-2.24-.15-3.18-.46-.93-.31-1.73-.73-2.38-1.26s-1.14-1.18-1.49-1.93c-.34-.75-.51-1.57-.51-2.45,0-1.76.7-3.06,2.09-3.92l-1.72-.03v-3.58Zm2.66,6.67c0,.93.4,1.7,1.19,2.29.79.59,1.82.89,3.08.89,2.9,0,4.35-1.07,4.35-3.21s-1.53-3.12-4.58-3.12c-1.2,0-2.17.3-2.92.9-.74.6-1.12,1.35-1.12,2.25Z"/><path class="cls-2" d="m154.59,70.74l14.08-5.04v4.15l-9.3,2.95,9.3,2.98v3.92l-14.08-5.06v-3.89Z"/><path class="cls-2" d="m164.07,99.18c2.07-.55,3.12-1.82,3.16-3.82-.03-1.51-.62-2.61-1.77-3.29-1.14-.71-2.43-1.06-3.88-1.04-1.44,0-2.71.34-3.82,1.02-1.14.68-1.73,1.78-1.77,3.31.03,2.25,1.22,3.56,3.57,3.94v1.59c-1.49-.24-2.68-.82-3.56-1.73-.91-.91-1.37-2.18-1.39-3.79.03-2.02.71-3.51,2.03-4.47,1.3-.96,2.95-1.44,4.94-1.44s3.56.51,4.93,1.54c1.36.99,2.06,2.45,2.09,4.37.02,3.02-1.49,4.8-4.53,5.33v-1.52Z"/><path class="cls-2" d="m154.61,108.41c.02-1.69.62-3.08,1.8-4.19,1.16-1.15,2.89-1.74,5.19-1.76,2,0,3.66.5,4.98,1.49,1.31.99,1.98,2.48,2.01,4.46-.03,2-.71,3.5-2.01,4.5-1.32.98-2.98,1.47-4.98,1.47-2.14-.02-3.82-.55-5.04-1.61-1.28-1.06-1.93-2.51-1.95-4.35Zm6.99,4.39c1.61.02,2.95-.32,4.01-1,1.06-.68,1.6-1.81,1.62-3.39-.03-1.55-.61-2.67-1.72-3.35-1.11-.68-2.41-1.02-3.91-1.02-1.67,0-3.01.38-4.02,1.14-1.04.73-1.57,1.81-1.59,3.23.02,1.56.6,2.69,1.74,3.39,1.11.67,2.4,1,3.87,1Z"/><path class="cls-2" d="m154.98,117.56v-1.48h13.28v1.48h-1.99v.05c1.54.91,2.33,2.28,2.34,4.1-.02,1.21-.26,2.1-.74,2.67-.48.56-1.08.97-1.82,1.23,1.7.94,2.55,2.39,2.55,4.33,0,.93-.14,1.66-.43,2.2-.29.55-.69.96-1.19,1.23-.49.28-1.05.47-1.67.58-.64.08-1.3.13-1.96.13h-8.38v-1.48h9.17c.96,0,1.71-.2,2.25-.59.55-.41.83-1.17.83-2.27,0-1.2-.5-2.21-1.51-3.03-.46-.33-1.02-.55-1.69-.67-.67-.14-1.3-.21-1.9-.21h-7.15v-1.47h9.17c.96,0,1.71-.2,2.25-.59.55-.41.83-1.17.83-2.27,0-1.19-.5-2.19-1.52-3.02-.46-.33-1.02-.56-1.69-.68-.67-.13-1.3-.2-1.9-.2h-7.14Z"/><path class="cls-2" d="m149.75,138.51v-1.47h18.51v1.48h-2.33v.05c.89.48,1.56,1.13,2.02,1.96.44.82.66,1.66.66,2.5-.02,2.07-.68,3.57-1.99,4.5-1.3.88-2.96,1.32-4.98,1.32-1.89,0-3.52-.46-4.87-1.39-1.4-.95-2.12-2.39-2.15-4.34,0-.91.22-1.79.67-2.62.41-.82,1.01-1.48,1.81-1.97h-7.35Zm11.81,0c-1.52,0-2.82.39-3.9,1.17-1.09.76-1.65,1.82-1.67,3.18.02,1.54.61,2.69,1.79,3.44,1.11.73,2.52,1.05,4.24.96,1.68-.03,2.97-.45,3.87-1.24.89-.81,1.34-1.86,1.34-3.16-.02-1.41-.55-2.48-1.62-3.21-1.06-.76-2.41-1.14-4.06-1.14Z"/><path class="cls-2" d="m162.71,157.4c.04.3.1.64.16,1.02.08.36.17.68.28.95.14.24.35.4.61.47.28.05.53.07.78.07.8,0,1.45-.24,1.94-.73.48-.49.73-1.32.75-2.49.02-1.02-.19-1.86-.61-2.52-.45-.65-1.25-1.06-2.39-1.23v-1.52c1.56.15,2.69.72,3.39,1.7.66.97.99,2.17.99,3.6,0,1.33-.3,2.44-.89,3.32-.63.87-1.71,1.32-3.23,1.34h-7.23c-.58-.02-.94.08-1.1.32-.17.22-.14.63.07,1.25h-1.2c-.03-.1-.08-.26-.12-.47-.08-.23-.12-.47-.12-.7s.03-.45.07-.66c.1-.47.34-.79.71-.94.37-.14.79-.22,1.24-.24-1.44-1.29-2.17-2.89-2.19-4.8,0-1.16.33-2.15.98-2.97.62-.87,1.56-1.31,2.84-1.32,2.24,0,3.58,1.5,4,4.49l.28,2.07Zm-.77,2.52c-.24-.63-.41-1.27-.51-1.92-.12-.65-.19-1.3-.23-1.94-.14-2.39-1.09-3.6-2.83-3.63-.79.02-1.37.31-1.77.88-.41.55-.61,1.19-.61,1.92,0,1.24.32,2.33.95,3.26.61.93,1.58,1.41,2.92,1.45h2.08Z"/><path class="cls-2" d="m159.13,165.57c-2.14.4-3.19,1.68-3.14,3.86.02,1.09.27,1.89.76,2.4.47.52,1.04.78,1.7.78.48,0,.87-.11,1.18-.33.31-.23.55-.55.71-.95.1-.16.19-.36.26-.59.08-.23.15-.47.2-.72.1-.5.2-1.01.3-1.54.09-.25.17-.49.24-.73.05-.24.12-.49.2-.74.16-.5.36-.95.61-1.35.28-.4.63-.71,1.05-.95.43-.24.96-.36,1.59-.36,1.14,0,2.05.4,2.74,1.21.68.78,1.04,1.87,1.05,3.29.06,2.87-1.33,4.52-4.17,4.97v-1.52c1.03-.13,1.76-.5,2.18-1.12.41-.63.61-1.42.61-2.37-.05-1.92-.81-2.88-2.28-2.9-.43,0-.79.12-1.08.38-.28.23-.51.54-.7.93-.36.82-.65,1.75-.86,2.81-.12.53-.27,1.04-.44,1.54-.17.49-.4.93-.69,1.31-.28.4-.63.71-1.08.95-.43.22-.97.33-1.61.33-1.27-.02-2.23-.5-2.88-1.46-.67-.98-1-2.23-1-3.77.02-1.52.46-2.7,1.34-3.52.83-.83,1.89-1.29,3.18-1.37v1.5Z"/><path class="cls-2" d="m159.13,177.36c-2.14.4-3.19,1.68-3.14,3.86.02,1.09.27,1.89.76,2.4.47.52,1.04.78,1.7.78.48,0,.87-.11,1.18-.33.31-.23.55-.55.71-.95.1-.16.19-.36.26-.59.08-.23.15-.47.2-.72.1-.5.2-1.01.3-1.54.09-.25.17-.49.24-.73.05-.24.12-.49.2-.74.16-.5.36-.95.61-1.35.28-.4.63-.71,1.05-.95.43-.24.96-.36,1.59-.36,1.14,0,2.05.4,2.74,1.21.68.78,1.04,1.87,1.05,3.29.06,2.87-1.33,4.52-4.17,4.97v-1.52c1.03-.13,1.76-.5,2.18-1.12.41-.63.61-1.42.61-2.37-.05-1.92-.81-2.88-2.28-2.9-.43,0-.79.12-1.08.38-.28.23-.51.54-.7.93-.36.82-.65,1.75-.86,2.81-.12.53-.27,1.04-.44,1.54-.17.49-.4.93-.69,1.31-.28.4-.63.71-1.08.95-.43.22-.97.33-1.61.33-1.27-.02-2.23-.5-2.88-1.46-.67-.98-1-2.23-1-3.77.02-1.52.46-2.7,1.34-3.52.83-.83,1.89-1.29,3.18-1.37v1.5Z"/><path class="cls-7" d="m122.77,18.42l-18.29-7.78v-6.39l24.79,11.21"/><path class="cls-11" d="m105.79,14.72l18.29,7.78v6.39l-24.79-11.21"/><polygon class="cls-3" points="99.3 17.68 124.08 6.88 124.08 .13 99.3 11.41 99.3 17.68"/><polygon class="cls-6" points="129.27 15.47 104.48 26.26 104.48 33.01 129.27 21.74 129.27 15.47"/><path class="cls-2" d="m118.92,85.1l-14.08,5.04v-4.15l9.3-2.95-9.3-2.98v-3.92l14.08,5.06v3.89Z"/><path class="cls-2" d="m104.84,37.35h19.23v3.66h-6.98c1.47,1.05,2.2,2.44,2.2,4.18,0,.92-.18,1.73-.53,2.45-.35.72-.85,1.32-1.5,1.82-.65.5-1.42.87-2.3,1.13-.89.26-1.86.39-2.93.39-1.18,0-2.24-.15-3.18-.46-.93-.31-1.73-.73-2.38-1.26s-1.14-1.18-1.49-1.93c-.34-.75-.51-1.57-.51-2.45,0-1.76.7-3.06,2.09-3.92l-1.72-.03v-3.58Zm2.66,6.67c0,.93.4,1.7,1.19,2.29.79.59,1.82.89,3.08.89,2.9,0,4.35-1.07,4.35-3.21s-1.53-3.12-4.58-3.12c-1.2,0-2.17.3-2.92.9-.74.6-1.12,1.35-1.12,2.25Z"/><path class="cls-2" d="m104.84,52.35h19.23v3.66h-6.98c1.47,1.05,2.2,2.44,2.2,4.18,0,.92-.18,1.73-.53,2.45-.35.72-.85,1.32-1.5,1.82-.65.5-1.42.87-2.3,1.13-.89.26-1.86.39-2.93.39-1.18,0-2.24-.15-3.18-.46-.93-.31-1.73-.73-2.38-1.26s-1.14-1.18-1.49-1.93c-.34-.75-.51-1.57-.51-2.45,0-1.76.7-3.06,2.09-3.92l-1.72-.03v-3.58Zm2.66,6.67c0,.93.4,1.7,1.19,2.29.79.59,1.82.89,3.08.89,2.9,0,4.35-1.07,4.35-3.21s-1.53-3.12-4.58-3.12c-1.2,0-2.17.3-2.92.9-.74.6-1.12,1.35-1.12,2.25Z"/><path class="cls-2" d="m104.84,70.74l14.08-5.04v4.15l-9.3,2.95,9.3,2.98v3.92l-14.08-5.06v-3.89Z"/><path class="cls-2" d="m114.32,99.55c2.07-.55,3.12-1.82,3.16-3.82-.03-1.51-.62-2.61-1.77-3.29-1.14-.71-2.43-1.06-3.89-1.04-1.44,0-2.71.34-3.82,1.02-1.15.68-1.73,1.78-1.77,3.31.03,2.25,1.22,3.56,3.57,3.94v1.59c-1.49-.24-2.68-.82-3.56-1.73-.91-.91-1.37-2.18-1.39-3.79.03-2.02.71-3.51,2.03-4.47,1.3-.96,2.95-1.44,4.94-1.44s3.56.51,4.93,1.54c1.36.99,2.06,2.45,2.09,4.37.03,3.02-1.49,4.8-4.53,5.33v-1.52Z"/><path class="cls-2" d="m104.86,108.78c.02-1.69.62-3.09,1.8-4.19,1.16-1.16,2.89-1.74,5.19-1.76,2,0,3.66.5,4.98,1.49,1.31.99,1.98,2.48,2.02,4.46-.03,2-.71,3.5-2.02,4.5-1.32.98-2.98,1.47-4.98,1.47-2.14-.02-3.82-.55-5.04-1.61-1.29-1.06-1.94-2.51-1.95-4.35Zm6.99,4.39c1.61.02,2.95-.32,4.01-1,1.06-.68,1.6-1.81,1.62-3.39-.03-1.56-.61-2.67-1.72-3.35s-2.42-1.02-3.91-1.02c-1.67,0-3.01.38-4.02,1.14-1.04.73-1.58,1.81-1.59,3.23.02,1.56.6,2.69,1.74,3.39,1.11.66,2.4,1,3.87,1Z"/><path class="cls-2" d="m105.23,118.39v-1.47h13.28v1.47h-1.84c.68.58,1.22,1.21,1.61,1.87.39.65.58,1.41.58,2.28.04,1.64-.59,2.95-1.89,3.93-.46.31-.94.5-1.44.56-.51.05-1.05.07-1.62.07h-8.69v-1.47h8.66c2.4.03,3.59-1.08,3.59-3.33-.02-.93-.28-1.7-.78-2.29-.49-.59-1.1-1.02-1.82-1.29-.8-.24-1.64-.34-2.52-.33h-7.15Z"/><path class="cls-2" d="m105.18,134.65c-.03-.18-.08-.41-.15-.69-.09-.3-.14-.64-.16-1.02,0-.72.2-1.27.59-1.64.42-.42,1.1-.62,2.06-.62h9.72v-1.82h1.28v1.82h3.69v1.47h-3.69v2.41h-1.28v-2.41h-9.12c-.63-.02-1.1.05-1.41.21-.31.13-.46.49-.46,1.09,0,.41.06.81.18,1.21h-1.24Z"/><path class="cls-2" d="m121.4,136.39h2.28v1.63h-2.28v-1.63Zm-16.17.08h13.28v1.47h-13.28v-1.47Z"/><path class="cls-2" d="m105.23,142.39v-1.47h13.28v1.47h-1.84c.68.58,1.22,1.21,1.61,1.87.39.65.58,1.41.58,2.28.04,1.64-.59,2.95-1.89,3.93-.46.31-.94.5-1.44.56-.51.05-1.05.07-1.62.07h-8.69v-1.47h8.66c2.4.03,3.59-1.08,3.59-3.33-.02-.93-.28-1.7-.78-2.29-.49-.59-1.1-1.02-1.82-1.29-.8-.24-1.64-.34-2.52-.33h-7.15Z"/><path class="cls-2" d="m111.51,155.04c-1.47,0-2.71.36-3.7,1.09-1.03.73-1.55,1.81-1.57,3.24.02,2.05,1.04,3.35,3.06,3.9v1.66c-1.28-.35-2.33-.95-3.15-1.81-.84-.88-1.27-2.13-1.29-3.75.03-2.04.71-3.54,2.03-4.5,1.28-.96,2.92-1.43,4.92-1.42,2,0,3.67.53,5.01,1.59,1.33,1.03,2.01,2.47,2.04,4.33-.03,3.65-2.48,5.54-7.35,5.65v-9.99Zm1.27,8.41c1.35,0,2.46-.34,3.33-1.02.89-.7,1.35-1.71,1.36-3.05-.02-1.31-.48-2.33-1.39-3.04-.9-.71-2-1.15-3.31-1.3v8.41Z"/><path class="cls-2" d="m105.23,168.85v-1.47h13.28v1.47h-1.84c.68.58,1.22,1.21,1.61,1.87.39.65.58,1.41.58,2.28.04,1.64-.59,2.95-1.89,3.93-.46.31-.94.5-1.44.56-.51.05-1.05.07-1.62.07h-8.69v-1.47h8.66c2.4.03,3.59-1.08,3.59-3.33-.02-.93-.28-1.7-.78-2.29-.49-.59-1.1-1.02-1.82-1.29-.8-.24-1.64-.34-2.52-.33h-7.15Z"/><path class="cls-2" d="m105.18,185.11c-.03-.18-.08-.41-.15-.69-.09-.3-.14-.64-.16-1.02,0-.72.2-1.27.59-1.64.42-.42,1.1-.62,2.06-.62h9.72v-1.82h1.28v1.82h3.69v1.47h-3.69v2.41h-1.28v-2.41h-9.12c-.63-.02-1.1.05-1.41.21-.31.13-.46.49-.46,1.09,0,.41.06.81.18,1.21h-1.24Z"/><path class="cls-2" d="m112.96,192.61c.04.3.1.64.16,1.02.08.36.17.68.28.95.14.24.35.4.61.47.28.05.53.07.78.07.8,0,1.45-.24,1.94-.73.48-.49.73-1.32.75-2.49.02-1.02-.19-1.86-.61-2.53-.45-.65-1.25-1.06-2.39-1.23v-1.52c1.56.15,2.69.72,3.39,1.7.66.97.99,2.17.99,3.6,0,1.33-.3,2.44-.89,3.32-.63.87-1.71,1.32-3.23,1.34h-7.23c-.58-.03-.94.08-1.1.32-.17.22-.14.64.08,1.25h-1.2c-.03-.1-.08-.26-.12-.47-.08-.23-.12-.47-.12-.7s.03-.45.07-.66c.1-.47.34-.79.71-.94.37-.15.79-.23,1.24-.24-1.44-1.29-2.17-2.9-2.19-4.8,0-1.16.33-2.15.98-2.97.62-.87,1.56-1.31,2.84-1.32,2.24,0,3.58,1.5,4,4.49l.28,2.07Zm-.77,2.52c-.24-.63-.41-1.27-.51-1.92-.12-.65-.19-1.3-.23-1.94-.14-2.39-1.09-3.6-2.83-3.63-.79.02-1.37.31-1.77.88-.41.55-.61,1.19-.61,1.92,0,1.24.32,2.33.95,3.26.61.93,1.58,1.41,2.92,1.45h2.08Z"/><path class="cls-2" d="m105.23,200.16h18.45v1.47h-18.45v-1.47Z"/><path class="cls-8" d="m73.12,18.61l-18.29-7.78v-6.39l24.79,11.21"/><path class="cls-9" d="m56.15,14.91l18.29,7.78v6.39l-24.79-11.21"/><polygon class="cls-3" points="49.65 17.86 74.43 7.07 74.43 .32 49.65 11.59 49.65 17.86"/><polygon class="cls-6" points="79.62 15.65 54.83 26.44 54.83 33.2 79.62 21.92 79.62 15.65"/><path class="cls-2" d="m69.27,85.29l-14.08,5.04v-4.15l9.3-2.95-9.3-2.98v-3.92l14.08,5.06v3.89Z"/><path class="cls-2" d="m55.19,37.54h19.23v3.66h-6.98c1.47,1.05,2.2,2.44,2.2,4.18,0,.92-.18,1.73-.53,2.45-.35.72-.85,1.32-1.5,1.82-.65.5-1.42.87-2.3,1.13-.89.26-1.86.39-2.93.39-1.18,0-2.24-.15-3.18-.46-.93-.31-1.73-.73-2.38-1.26s-1.14-1.18-1.49-1.93c-.34-.75-.51-1.57-.51-2.45,0-1.76.7-3.06,2.09-3.92l-1.72-.03v-3.58Zm2.66,6.67c0,.93.4,1.7,1.19,2.29.79.59,1.82.89,3.08.89,2.9,0,4.35-1.07,4.35-3.21s-1.53-3.12-4.58-3.12c-1.2,0-2.17.3-2.92.9-.74.6-1.12,1.35-1.12,2.25Z"/><path class="cls-2" d="m55.19,52.53h19.23v3.66h-6.98c1.47,1.05,2.2,2.44,2.2,4.18,0,.92-.18,1.73-.53,2.45-.35.72-.85,1.32-1.5,1.82-.65.5-1.42.87-2.3,1.13-.89.26-1.86.39-2.93.39-1.18,0-2.24-.15-3.18-.46-.93-.31-1.73-.73-2.38-1.26s-1.14-1.18-1.49-1.93c-.34-.75-.51-1.57-.51-2.45,0-1.76.7-3.06,2.09-3.92l-1.72-.03v-3.58Zm2.66,6.67c0,.93.4,1.7,1.19,2.29.79.59,1.82.89,3.08.89,2.9,0,4.35-1.07,4.35-3.21s-1.53-3.12-4.58-3.12c-1.2,0-2.17.3-2.92.9-.74.6-1.12,1.35-1.12,2.25Z"/><path class="cls-2" d="m55.19,70.93l14.08-5.04v4.15l-9.3,2.95,9.3,2.98v3.92l-14.08-5.06v-3.89Z"/><path class="cls-2" d="m67.63,89.84h1.28v1.91h2.11c2.24-.06,3.39.85,3.44,2.72,0,.44-.03.86-.1,1.23h-1.41c.08-.32.13-.61.13-.89-.03-.75-.28-1.21-.78-1.37-.51-.17-1.09-.24-1.74-.22h-1.64v2.48h-1.28v-2.48h-12.04v-1.48h12.04v-1.91Z"/><path class="cls-2" d="m55.6,98.79v-1.48h13.31v1.48h-2.49v.05c1.06.41,1.8.95,2.23,1.62.41.66.61,1.53.61,2.59h-1.66c0-1.64-.52-2.77-1.57-3.39-1.07-.6-2.37-.89-3.91-.87h-6.53Z"/><path class="cls-2" d="m63.35,110.69c.04.3.1.64.16,1.02.08.37.17.68.28.95.14.24.35.4.62.48.28.05.54.07.78.07.8,0,1.45-.24,1.95-.73.49-.5.74-1.33.75-2.5.02-1.02-.19-1.87-.62-2.53-.45-.65-1.25-1.06-2.4-1.23v-1.52c1.56.15,2.7.72,3.4,1.7.66.97.99,2.17.99,3.61,0,1.34-.3,2.45-.89,3.33-.64.87-1.71,1.32-3.24,1.35h-7.25c-.58-.03-.95.08-1.1.32-.17.22-.14.64.08,1.25h-1.21c-.03-.1-.08-.26-.12-.47-.08-.23-.13-.47-.13-.7s.03-.45.08-.67c.1-.48.34-.79.71-.94.37-.15.79-.23,1.25-.24-1.45-1.3-2.18-2.9-2.2-4.82,0-1.16.33-2.15.98-2.98.62-.87,1.57-1.31,2.85-1.33,2.25,0,3.59,1.5,4.01,4.5l.28,2.07Zm-.77,2.52c-.24-.63-.41-1.28-.51-1.93-.12-.65-.19-1.3-.23-1.95-.14-2.4-1.09-3.61-2.84-3.64-.79.02-1.38.31-1.77.88-.41.55-.62,1.19-.62,1.92,0,1.24.32,2.33.95,3.27.61.93,1.59,1.42,2.93,1.45h2.09Z"/><path class="cls-2" d="m55.6,119.51v-1.48h13.31v1.48h-1.85c.68.58,1.22,1.21,1.61,1.87.39.65.59,1.41.59,2.29.04,1.65-.59,2.96-1.9,3.94-.46.31-.94.5-1.44.56-.51.05-1.05.07-1.62.07h-8.71v-1.48h8.68c2.4.03,3.6-1.08,3.6-3.33-.02-.93-.28-1.7-.78-2.3-.5-.59-1.1-1.02-1.82-1.29-.8-.24-1.64-.35-2.52-.33h-7.16Z"/><path class="cls-2" d="m64.72,140.42c2.08-.55,3.13-1.83,3.17-3.83-.03-1.52-.62-2.61-1.77-3.29-1.14-.71-2.44-1.06-3.9-1.05-1.44,0-2.72.34-3.83,1.02-1.15.68-1.74,1.79-1.77,3.32.03,2.25,1.23,3.57,3.58,3.95v1.59c-1.5-.24-2.69-.82-3.57-1.74-.91-.91-1.37-2.18-1.39-3.8.03-2.02.71-3.52,2.03-4.48,1.3-.96,2.96-1.45,4.96-1.45s3.57.51,4.94,1.54c1.36,1,2.06,2.46,2.1,4.38.02,3.03-1.49,4.81-4.55,5.34v-1.52Z"/><path class="cls-2" d="m61.9,145.46c-1.48,0-2.71.36-3.71,1.09-1.03.73-1.56,1.81-1.57,3.25.02,2.05,1.04,3.35,3.07,3.91v1.67c-1.29-.35-2.34-.95-3.16-1.81-.84-.88-1.27-2.13-1.29-3.75.03-2.04.71-3.54,2.03-4.51,1.29-.96,2.93-1.44,4.93-1.42,2.01,0,3.68.53,5.02,1.59,1.33,1.03,2.01,2.47,2.05,4.34-.03,3.66-2.49,5.55-7.37,5.66v-10.01Zm1.28,8.43c1.36,0,2.47-.34,3.34-1.02.9-.7,1.35-1.72,1.37-3.06-.02-1.32-.48-2.33-1.39-3.05-.9-.71-2.01-1.15-3.31-1.3v8.43Zm7.17-5.43l3.56,2.76v1.9l-3.56-3.39v-1.27Z"/><path class="cls-2" d="m59.76,158.68c-2.15.4-3.2,1.69-3.15,3.87.02,1.1.27,1.9.77,2.41.47.52,1.04.78,1.71.78.48,0,.87-.11,1.18-.33.31-.24.55-.55.72-.95.1-.16.19-.36.26-.6.08-.24.15-.47.2-.72.1-.5.2-1.02.3-1.54.09-.25.17-.5.24-.73.05-.24.12-.49.2-.74.16-.5.36-.95.62-1.35.28-.4.63-.71,1.06-.95.44-.24.97-.37,1.6-.37,1.14,0,2.06.41,2.75,1.21.69.78,1.04,1.88,1.06,3.3.06,2.88-1.34,4.54-4.19,4.98v-1.52c1.03-.13,1.76-.5,2.19-1.12.41-.63.62-1.42.62-2.37-.05-1.92-.81-2.89-2.28-2.91-.43,0-.79.12-1.08.38-.28.23-.51.54-.7.94-.36.82-.65,1.76-.87,2.82-.13.53-.27,1.04-.44,1.54-.18.5-.41.93-.69,1.31-.28.4-.64.71-1.08.95-.44.22-.97.33-1.62.33-1.27-.02-2.23-.51-2.89-1.47-.67-.98-1-2.24-1-3.78.02-1.53.46-2.71,1.34-3.53.84-.83,1.9-1.29,3.18-1.37v1.5Z"/><path class="cls-4" d="m23.47,18.35L5.19,10.57v-6.39l24.79,11.21"/><path class="cls-10" d="m6.5,14.65l18.29,7.78v6.39L0,17.61"/><polygon class="cls-3" points="0 17.61 24.79 6.81 24.79 .06 0 11.33 0 17.61"/><polygon class="cls-6" points="29.97 15.39 5.19 26.19 5.19 32.94 29.97 21.67 29.97 15.39"/><path class="cls-2" d="m19.63,85.03l-14.08,5.04v-4.15l9.3-2.95-9.3-2.98v-3.92l14.08,5.06v3.89Z"/><path class="cls-2" d="m5.55,37.28h19.23v3.66h-6.98c1.47,1.05,2.2,2.44,2.2,4.18,0,.92-.18,1.73-.53,2.45-.35.72-.85,1.32-1.5,1.82-.65.5-1.42.87-2.3,1.13-.89.26-1.86.39-2.93.39-1.18,0-2.24-.15-3.18-.46-.93-.31-1.73-.73-2.38-1.26s-1.14-1.18-1.49-1.93c-.34-.75-.51-1.57-.51-2.45,0-1.76.7-3.06,2.09-3.92l-1.72-.03v-3.58Zm2.66,6.67c0,.93.4,1.7,1.19,2.29.79.59,1.82.89,3.08.89,2.9,0,4.35-1.07,4.35-3.21s-1.53-3.12-4.58-3.12c-1.2,0-2.17.3-2.92.9-.74.6-1.12,1.35-1.12,2.25Z"/><path class="cls-2" d="m5.55,52.27h19.23v3.66h-6.98c1.47,1.05,2.2,2.44,2.2,4.18,0,.92-.18,1.73-.53,2.45-.35.72-.85,1.32-1.5,1.82-.65.5-1.42.87-2.3,1.13-.89.26-1.86.39-2.93.39-1.18,0-2.24-.15-3.18-.46-.93-.31-1.73-.73-2.38-1.26s-1.14-1.18-1.49-1.93c-.34-.75-.51-1.57-.51-2.45,0-1.76.7-3.06,2.09-3.92l-1.72-.03v-3.58Zm2.66,6.67c0,.93.4,1.7,1.19,2.29.79.59,1.82.89,3.08.89,2.9,0,4.35-1.07,4.35-3.21s-1.53-3.12-4.58-3.12c-1.2,0-2.17.3-2.92.9-.74.6-1.12,1.35-1.12,2.25Z"/><path class="cls-2" d="m5.55,70.67l14.08-5.04v4.15l-9.3,2.95,9.3,2.98v3.92l-14.08-5.06v-3.89Z"/><path class="cls-2" d="m.7,92.81v-1.47h18.51v1.48h-2.33v.05c.89.48,1.56,1.13,2.02,1.96.44.82.66,1.66.66,2.5-.02,2.07-.68,3.57-1.99,4.5-1.3.88-2.96,1.32-4.98,1.32-1.89,0-3.52-.46-4.87-1.39-1.4-.95-2.12-2.39-2.15-4.34,0-.91.22-1.79.67-2.62.41-.82,1.01-1.48,1.81-1.97H.7Zm11.81,0c-1.52,0-2.82.39-3.9,1.17-1.09.76-1.65,1.82-1.67,3.18.02,1.54.61,2.69,1.79,3.44,1.11.73,2.52,1.05,4.24.96,1.68-.03,2.97-.45,3.87-1.24.89-.81,1.34-1.86,1.34-3.16-.02-1.41-.55-2.48-1.62-3.21-1.06-.76-2.41-1.14-4.06-1.14Z"/><path class="cls-2" d="m5.93,107.34v-1.47h13.28v1.47h-2.48v.05c1.06.41,1.8.95,2.22,1.61.41.66.61,1.52.61,2.58h-1.65c0-1.64-.52-2.76-1.57-3.38-1.06-.6-2.36-.89-3.9-.87h-6.51Z"/><path class="cls-2" d="m5.57,117.94c.02-1.69.62-3.08,1.8-4.19,1.16-1.15,2.89-1.74,5.19-1.76,2,0,3.66.5,4.98,1.49,1.31.99,1.98,2.48,2.01,4.46-.03,2-.71,3.5-2.01,4.5-1.32.98-2.98,1.47-4.98,1.47-2.14-.02-3.82-.55-5.04-1.61-1.28-1.06-1.93-2.51-1.95-4.35Zm6.99,4.39c1.61.02,2.95-.32,4.01-1,1.06-.68,1.6-1.81,1.62-3.39-.03-1.55-.61-2.67-1.72-3.35-1.11-.68-2.41-1.02-3.91-1.02-1.67,0-3.01.38-4.02,1.14-1.04.73-1.57,1.81-1.59,3.23.02,1.56.6,2.69,1.74,3.39,1.11.67,2.4,1,3.87,1Z"/><path class="cls-2" d="m19.21,124.7v1.61l-11.38,4.17,11.38,4.17v1.61l-13.28-4.99v-1.66l13.28-4.91Z"/><path class="cls-2" d="m22.1,138h2.28v1.63h-2.28v-1.63Zm-16.17.08h13.28v1.47H5.93v-1.47Z"/><path class="cls-2" d="m5.93,144v-1.47h13.28v1.47h-1.84c.68.58,1.22,1.21,1.61,1.87.39.65.58,1.41.58,2.28.04,1.64-.59,2.95-1.89,3.93-.46.31-.94.5-1.44.56-.51.05-1.05.07-1.61.07H5.93v-1.47h8.66c2.39.03,3.59-1.08,3.59-3.33-.02-.93-.28-1.7-.78-2.29-.49-.59-1.1-1.02-1.82-1.29-.8-.24-1.64-.34-2.51-.33h-7.14Z"/><path class="cls-2" d="m15.02,164.85c2.07-.55,3.12-1.82,3.16-3.82-.03-1.51-.62-2.61-1.77-3.29-1.14-.71-2.43-1.06-3.88-1.04-1.44,0-2.71.34-3.82,1.02-1.14.68-1.73,1.78-1.77,3.31.03,2.25,1.22,3.56,3.57,3.94v1.59c-1.49-.24-2.68-.82-3.56-1.73-.91-.91-1.37-2.18-1.39-3.79.03-2.02.71-3.51,2.03-4.47,1.3-.96,2.95-1.44,4.94-1.44s3.56.51,4.93,1.54c1.36.99,2.06,2.45,2.09,4.37.02,3.02-1.49,4.8-4.53,5.33v-1.52Z"/><path class="cls-2" d="m22.1,169.13h2.28v1.63h-2.28v-1.63Zm-16.17.08h13.28v1.47H5.93v-1.47Z"/><path class="cls-2" d="m13.66,179.56c.04.3.1.64.16,1.02.08.36.17.68.28.95.14.24.35.4.61.47.28.05.53.07.78.07.8,0,1.45-.24,1.94-.73.48-.49.73-1.32.75-2.49.02-1.02-.19-1.86-.61-2.52-.45-.65-1.25-1.06-2.39-1.23v-1.52c1.56.15,2.69.72,3.39,1.7.66.97.99,2.17.99,3.6,0,1.33-.3,2.44-.89,3.32-.63.87-1.71,1.32-3.23,1.34h-7.23c-.58-.02-.94.08-1.1.32-.17.22-.14.63.07,1.25h-1.2c-.03-.1-.08-.26-.12-.47-.08-.23-.12-.47-.12-.7s.03-.45.07-.66c.1-.47.34-.79.71-.94.37-.14.79-.22,1.24-.24-1.44-1.29-2.17-2.89-2.19-4.8,0-1.16.33-2.15.98-2.97.62-.87,1.56-1.31,2.84-1.32,2.24,0,3.58,1.5,4,4.49l.28,2.07Zm-.77,2.52c-.24-.63-.41-1.27-.51-1.92-.12-.65-.19-1.3-.23-1.94-.14-2.39-1.09-3.6-2.83-3.63-.79.02-1.37.31-1.77.88-.41.55-.61,1.19-.61,1.92,0,1.24.32,2.33.95,3.26.61.93,1.58,1.41,2.92,1.45h2.08Z"/><path class="cls-2" d="m5.93,187.1h18.45v1.47H5.93v-1.47Z"/><path class="cls-5" d="m222.09,18.29l-18.29-7.78v-6.39l24.79,11.21"/><path class="cls-1" d="m205.11,14.59l18.29,7.78v6.39l-24.79-11.21"/><polygon class="cls-3" points="198.61 17.54 223.4 6.75 223.4 0 198.61 11.27 198.61 17.54"/><polygon class="cls-6" points="228.58 15.33 203.8 26.13 203.8 32.88 228.58 21.6 228.58 15.33"/><path class="cls-2" d="m218.24,84.97l-14.08,5.04v-4.15l9.3-2.95-9.3-2.98v-3.92l14.08,5.06v3.89Z"/><path class="cls-2" d="m204.16,37.22h19.23v3.66h-6.98c1.47,1.05,2.2,2.44,2.2,4.18,0,.92-.18,1.73-.53,2.45-.35.72-.85,1.32-1.5,1.82-.65.5-1.42.87-2.3,1.13-.89.26-1.86.39-2.93.39-1.18,0-2.24-.15-3.18-.46-.93-.31-1.73-.73-2.38-1.26s-1.14-1.18-1.49-1.93c-.34-.75-.51-1.57-.51-2.45,0-1.76.7-3.06,2.09-3.92l-1.72-.03v-3.58Zm2.66,6.67c0,.93.4,1.7,1.19,2.29.79.59,1.82.89,3.08.89,2.9,0,4.35-1.07,4.35-3.21s-1.53-3.12-4.58-3.12c-1.2,0-2.17.3-2.92.9-.74.6-1.12,1.35-1.12,2.25Z"/><path class="cls-2" d="m204.16,52.21h19.23v3.66h-6.98c1.47,1.05,2.2,2.44,2.2,4.18,0,.92-.18,1.73-.53,2.45-.35.72-.85,1.32-1.5,1.82-.65.5-1.42.87-2.3,1.13-.89.26-1.86.39-2.93.39-1.18,0-2.24-.15-3.18-.46-.93-.31-1.73-.73-2.38-1.26s-1.14-1.18-1.49-1.93c-.34-.75-.51-1.57-.51-2.45,0-1.76.7-3.06,2.09-3.92l-1.72-.03v-3.58Zm2.66,6.67c0,.93.4,1.7,1.19,2.29.79.59,1.82.89,3.08.89,2.9,0,4.35-1.07,4.35-3.21s-1.53-3.12-4.58-3.12c-1.2,0-2.17.3-2.92.9-.74.6-1.12,1.35-1.12,2.25Z"/><path class="cls-2" d="m204.16,70.61l14.08-5.04v4.15l-9.3,2.95,9.3,2.98v3.92l-14.08-5.06v-3.89Z"/><path class="cls-2" d="m204.51,92.85v-1.48h18.52v1.48h-7.32c.82.5,1.45,1.16,1.87,1.98.41.83.62,1.71.62,2.63-.03,1.95-.73,3.41-2.1,4.35-1.36.93-3.01,1.4-4.95,1.4s-3.66-.44-4.96-1.33c-1.32-.93-2-2.44-2.04-4.51.02-.84.26-1.68.73-2.51.44-.83,1.1-1.49,1.96-1.97v-.05h-2.32Zm6.7,0c-1.63,0-2.97.38-4.04,1.15-1.08.73-1.63,1.8-1.65,3.22,0,1.3.46,2.36,1.38,3.17.88.8,2.16,1.21,3.85,1.24,1.71.09,3.14-.23,4.3-.96,1.15-.76,1.73-1.91,1.75-3.45-.03-1.37-.58-2.43-1.65-3.2-1.06-.78-2.38-1.17-3.95-1.17Z"/><path class="cls-2" d="m212.27,111.81c.04.3.1.64.16,1.02.08.37.18.68.28.95.14.24.35.4.62.48.28.05.54.07.78.07.8,0,1.45-.24,1.95-.73.49-.5.74-1.33.75-2.5.02-1.02-.19-1.87-.62-2.53-.45-.65-1.25-1.06-2.4-1.23v-1.52c1.57.15,2.7.72,3.4,1.7.66.97.99,2.18.99,3.61,0,1.34-.3,2.45-.89,3.33-.64.88-1.72,1.33-3.24,1.35h-7.26c-.58-.03-.95.08-1.11.32-.17.22-.14.64.08,1.25h-1.21c-.03-.11-.08-.26-.12-.47-.08-.23-.13-.47-.13-.7s.03-.45.08-.67c.1-.48.34-.79.71-.94.37-.15.79-.23,1.25-.24-1.45-1.3-2.18-2.91-2.2-4.82,0-1.16.33-2.15.98-2.98.62-.87,1.57-1.31,2.85-1.33,2.25,0,3.59,1.5,4.02,4.51l.28,2.07Zm-.77,2.53c-.24-.63-.42-1.28-.52-1.93-.12-.65-.19-1.3-.23-1.95-.14-2.4-1.09-3.62-2.84-3.65-.79.02-1.38.31-1.77.88-.41.55-.62,1.2-.62,1.93,0,1.25.32,2.33.96,3.27.61.94,1.59,1.42,2.93,1.45h2.09Z"/><path class="cls-2" d="m204.51,120.64v-1.48h13.33v1.48h-1.85c.68.58,1.22,1.21,1.61,1.88.39.65.59,1.41.59,2.29.04,1.65-.59,2.96-1.9,3.94-.46.31-.94.5-1.44.57-.51.05-1.05.07-1.62.07h-8.72v-1.48h8.69c2.4.03,3.61-1.08,3.61-3.34-.02-.93-.28-1.7-.78-2.3-.49-.59-1.1-1.02-1.82-1.29-.8-.24-1.65-.35-2.52-.33h-7.17Z"/><path class="cls-2" d="m213.64,141.57c2.08-.55,3.14-1.83,3.17-3.83-.03-1.52-.62-2.62-1.77-3.3-1.14-.71-2.44-1.06-3.9-1.05-1.44,0-2.72.34-3.84,1.02-1.15.68-1.74,1.79-1.77,3.32.03,2.26,1.23,3.57,3.58,3.96v1.59c-1.5-.24-2.69-.82-3.57-1.74-.91-.92-1.38-2.18-1.39-3.8.03-2.03.71-3.52,2.04-4.49,1.31-.96,2.96-1.45,4.96-1.45s3.58.51,4.95,1.54c1.37,1,2.06,2.46,2.1,4.39.02,3.03-1.49,4.81-4.55,5.35v-1.52Z"/><path class="cls-2" d="m204.14,150.84c.02-1.7.62-3.1,1.81-4.21,1.16-1.16,2.9-1.75,5.21-1.76,2.01,0,3.68.5,5,1.5,1.31,1,1.99,2.49,2.02,4.48-.03,2.01-.71,3.51-2.02,4.51-1.32.98-2.99,1.47-5,1.47-2.14-.02-3.83-.56-5.06-1.62-1.29-1.06-1.94-2.52-1.96-4.37Zm7.02,4.4c1.62.02,2.96-.32,4.03-1,1.07-.68,1.61-1.82,1.62-3.4-.03-1.56-.61-2.68-1.72-3.37-1.12-.68-2.42-1.03-3.92-1.03-1.68,0-3.02.38-4.04,1.15-1.05.73-1.58,1.81-1.6,3.25.02,1.57.6,2.7,1.75,3.4,1.12.67,2.41,1,3.89,1Z"/><path class="cls-2" d="m204.51,160.03v-1.48h13.33v1.49h-2v.05c1.55.91,2.33,2.29,2.35,4.12-.02,1.21-.26,2.11-.74,2.68-.48.56-1.08.97-1.82,1.23,1.71.95,2.56,2.4,2.56,4.35,0,.93-.14,1.67-.43,2.21-.29.55-.69.96-1.19,1.23-.49.28-1.05.47-1.67.58-.64.08-1.3.13-1.97.13h-8.42v-1.48h9.21c.96,0,1.72-.2,2.26-.6.55-.41.83-1.17.83-2.28,0-1.2-.51-2.22-1.52-3.04-.46-.33-1.03-.55-1.7-.67-.67-.14-1.31-.22-1.91-.22h-7.17v-1.48h9.21c.96,0,1.72-.2,2.26-.6.55-.41.83-1.17.83-2.28,0-1.19-.51-2.2-1.52-3.03-.46-.33-1.03-.56-1.7-.68-.67-.14-1.31-.2-1.91-.2h-7.17Z"/><path class="cls-2" d="m210.82,180.31c-1.48,0-2.72.37-3.72,1.1-1.03.73-1.56,1.82-1.57,3.25.02,2.05,1.04,3.36,3.07,3.91v1.67c-1.29-.35-2.34-.95-3.16-1.81-.84-.88-1.28-2.14-1.29-3.76.03-2.04.71-3.55,2.04-4.51,1.29-.97,2.94-1.44,4.94-1.42,2.01,0,3.69.53,5.03,1.59,1.33,1.03,2.01,2.48,2.05,4.34-.03,3.67-2.49,5.55-7.37,5.67v-10.02Zm1.28,8.44c1.36,0,2.47-.34,3.34-1.02.9-.7,1.35-1.72,1.37-3.06-.02-1.32-.48-2.33-1.4-3.05-.9-.72-2.01-1.15-3.32-1.31v8.44Z"/><path class="cls-2" d="m204.51,194.24v-1.48h13.33v1.48h-2.49v.05c1.06.41,1.8.95,2.23,1.62.41.67.61,1.53.61,2.59h-1.66c0-1.64-.52-2.77-1.57-3.39-1.07-.6-2.37-.89-3.92-.88h-6.53Z"/></g></svg>