<?xml version="1.0" encoding="UTF-8"?><svg id="Capa_2" xmlns="http://www.w3.org/2000/svg" xmlns:xlink="http://www.w3.org/1999/xlink" viewBox="0 0 202.15 202.15"><defs><style>.cls-1{fill:#fff;}.cls-2{fill:#0093d4;}.cls-3{fill:#ffcc03;}.cls-4{fill:url(#Degradado_sin_nombre_9);}.cls-5{fill:none;stroke:#fff;stroke-miterlimit:10;stroke-width:.25px;}.cls-6{fill:url(#Degradado_sin_nombre_87);}</style><linearGradient id="Degradado_sin_nombre_9" x1="1055.97" y1="350.78" x2="1073.52" y2="312.25" gradientTransform="translate(1103.9 430) rotate(-180)" gradientUnits="userSpaceOnUse"><stop offset="0" stop-color="#c9a309"/><stop offset=".03" stop-color="#d5ac07"/><stop offset=".11" stop-color="#ecbe05"/><stop offset=".16" stop-color="#f5c505"/><stop offset="1" stop-color="#ffcc03"/></linearGradient><linearGradient id="Degradado_sin_nombre_87" x1="45.85" y1="122.95" x2="63.4" y2="84.43" gradientUnits="userSpaceOnUse"><stop offset="0" stop-color="#00709f"/><stop offset=".01" stop-color="#0073a3"/><stop offset=".06" stop-color="#007eb5"/><stop offset=".12" stop-color="#0085bf"/><stop offset=".19" stop-color="#0088c3"/><stop offset="1" stop-color="#0093d4"/></linearGradient></defs><g id="Capa_1-2"><path class="cls-4" d="m50.4,84.97l-14.77,34.72h-12.13l21.29-47.06"/><path class="cls-6" d="m43.38,117.2l14.77-34.72h12.13l-21.29,47.06"/><polygon class="cls-2" points="48.99 129.54 28.5 82.48 15.68 82.48 37.08 129.54 48.99 129.54"/><polygon class="cls-3" points="44.79 72.63 65.28 119.69 78.1 119.69 56.7 72.63 44.79 72.63"/><path class="cls-1" d="m177,92.28l9.56,26.73h-7.88l-5.59-17.65-5.65,17.65h-7.44l9.61-26.73h7.39Z"/><path class="cls-1" d="m86.35,119.01v-36.51h6.95v13.25c1.99-2.79,4.64-4.18,7.93-4.18,1.74,0,3.29.34,4.64,1,1.36.67,2.51,1.62,3.45,2.85.94,1.23,1.66,2.69,2.15,4.37.49,1.68.73,3.54.73,5.57,0,2.25-.29,4.26-.87,6.03-.58,1.78-1.38,3.28-2.39,4.51-1.01,1.23-2.24,2.17-3.67,2.82-1.43.65-2.98.98-4.65.98-3.33,0-5.81-1.32-7.44-3.97l-.05,3.26h-6.79Zm12.66-5.05c1.77,0,3.22-.75,4.35-2.25,1.12-1.5,1.68-3.45,1.68-5.84,0-5.5-2.03-8.26-6.09-8.26s-5.92,2.9-5.92,8.69c0,2.28.57,4.13,1.71,5.54,1.14,1.41,2.56,2.12,4.27,2.12Z"/><path class="cls-1" d="m114.81,119.01v-36.51h6.95v13.25c1.99-2.79,4.64-4.18,7.93-4.18,1.74,0,3.29.34,4.64,1,1.36.67,2.51,1.62,3.45,2.85.94,1.23,1.66,2.69,2.15,4.37.49,1.68.73,3.54.73,5.57,0,2.25-.29,4.26-.87,6.03-.58,1.78-1.38,3.28-2.39,4.51-1.01,1.23-2.24,2.17-3.67,2.82-1.43.65-2.98.98-4.65.98-3.33,0-5.81-1.32-7.44-3.97l-.05,3.26h-6.79Zm12.66-5.05c1.77,0,3.22-.75,4.35-2.25,1.12-1.5,1.68-3.45,1.68-5.84,0-5.5-2.03-8.26-6.09-8.26s-5.92,2.9-5.92,8.69c0,2.28.57,4.13,1.71,5.54,1.14,1.41,2.56,2.12,4.27,2.12Z"/><path class="cls-1" d="m149.74,119.01l-9.56-26.73h7.88l5.59,17.65,5.65-17.65h7.44l-9.61,26.73h-7.39Z"/><line class="cls-5" x1="19.93" y1="15.53" x2="94.43" y2="186.63"/><line class="cls-5" x1="30.83" y1="15.76" x2="108.51" y2="186.54"/><line class="cls-5" x1="15.61" y1="52.88" x2="73.83" y2="186.6"/><line class="cls-5" x1="15.68" y1="82.48" x2="63.03" y2="186.58"/><rect class="cls-5" x="15.62" y="72.63" width="170.89" height="56.92"/><rect class="cls-5" x="15.62" y="15.63" width="170.9" height="170.9"/><line class="cls-5" x1="15.62" y1="101.08" x2="186.53" y2="101.08"/><line class="cls-5" x1="101.08" y1="15.63" x2="101.08" y2="186.53"/><rect class="cls-5" x=".12" y=".13" width="201.9" height="201.9"/><line class="cls-5" x1=".12" y1="101.08" x2="202.03" y2="101.08"/><line class="cls-5" x1="101.08" y1=".12" x2="101.08" y2="202.03"/><line class="cls-5" x1="23.17" y1="186.61" x2="100.51" y2="15.63"/><line class="cls-5" x1="70.58" y1="15.63" x2="15.65" y2="137.05"/><line class="cls-5" x1="80" y1="15.62" x2="15.48" y2="166.96"/><line class="cls-5" x1="86.63" y1="15.6" x2="15.48" y2="182.5"/><rect class="cls-5" x="15.62" y="72.64" width="62.51" height="56.91"/><line class="cls-5" x1="86.35" y1="186.54" x2="86.35" y2="15.62"/><line class="cls-5" x1="114.83" y1="186.54" x2="114.83" y2="15.55"/><line class="cls-5" x1="135.72" y1="186.48" x2="186.46" y2="45.42"/><line class="cls-5" x1="177.91" y1="186.48" x2="123.74" y2="15.55"/><line class="cls-5" x1="112.73" y1="15.55" x2="173.86" y2="186.44"/><line class="cls-5" x1="129.16" y1="186.48" x2="183.86" y2="15.55"/><line class="cls-5" x1="132.86" y1="186.48" x2="186.4" y2="37.64"/><line class="cls-5" x1="145.8" y1="186.59" x2="186.45" y2="59.6"/><line class="cls-5" x1="149.61" y1="15.72" x2="186.56" y2="119"/><line class="cls-5" x1="145.93" y1="15.67" x2="186.51" y2="143.72"/><rect class="cls-5" x="86.35" y="82.5" width="100.21" height="36.5"/><line class="cls-5" x1="121.31" y1="186.48" x2="122.06" y2="15.61"/><line class="cls-5" x1="93.59" y1="15.61" x2="92.84" y2="186.54"/></g></svg>