<?xml version="1.0" encoding="UTF-8"?><svg id="Capa_2" xmlns="http://www.w3.org/2000/svg" viewBox="0 0 20.5 276.27"><defs><style>.cls-1{fill:#fff;}</style></defs><g id="Capa_2-2"><rect width="20.5" height="276.27"/><path class="cls-1" d="m10.98,0c4.36,0,7.53,2.66,7.53,7.17,0,3.74-2.18,6.29-5.88,6.92v-1.83c2.69-.55,4.26-2.43,4.26-5.1,0-3.29-2.29-5.33-5.92-5.33s-6,2.04-6,5.33c0,2.75,1.49,4.53,4.26,5.1v1.83c-3.82-.65-5.88-3.08-5.88-6.92C3.36,2.66,6.53,0,10.98,0Z"/><path class="cls-1" d="m10.98,16.33c4.36,0,7.53,2.66,7.53,7.07s-2.98,7.11-7.53,7.11-7.62-2.66-7.62-7.11c0-4.2,2.98-7.07,7.62-7.07Zm0,12.38c3.63,0,5.92-2.06,5.92-5.31s-2.29-5.27-5.92-5.27-6,2.04-6,5.27,2.33,5.31,6,5.31Z"/><path class="cls-1" d="m3.59,33.41h14.69v2.01l-12.17,8.31h12.17v1.76H3.59v-2.01l12.17-8.31H3.59v-1.76Z"/><path class="cls-1" d="m3.59,53.09h13.07v-5.08h1.62v11.92h-1.62v-5.08H3.59v-1.76Z"/><path class="cls-1" d="m3.59,62.45h14.69v10.03h-1.62v-8.29h-4.64v7.45h-1.57v-7.45h-5.25v8.48h-1.62v-10.22Z"/><path class="cls-1" d="m3.59,75.48h14.69v2.01l-12.17,8.31h12.17v1.76H3.59v-2.01l12.17-8.31H3.59v-1.76Z"/><path class="cls-1" d="m3.59,95.16h13.07v-5.08h1.62v11.92h-1.62v-5.08H3.59v-1.76Z"/><path class="cls-1" d="m1.18,109.35h18.15v1.76H1.18v-1.76Z"/><path class="cls-1" d="m3.59,119.5h14.69v2.2l-12.59,5.18,12.59,5.16v2.22H3.59v-1.76h11.62l-11.62-4.78v-1.7l11.58-4.76H3.59v-1.76Z"/><path class="cls-1" d="m3.59,137.84h14.69v10.03h-1.62v-8.29h-4.64v7.45h-1.57v-7.45h-5.25v8.48h-1.62v-10.22Z"/><path class="cls-1" d="m3.59,150.87h14.69v2.01l-12.17,8.31h12.17v1.76H3.59v-2.01l12.17-8.31H3.59v-1.76Z"/><path class="cls-1" d="m8.52,166.4h9.76v1.76h-9.71c-2.33,0-3.57,1.85-3.57,4.09s1.24,4.09,3.57,4.09h9.71v1.76h-9.76c-2.79,0-5.18-2.08-5.16-5.85,0-3.8,2.37-5.85,5.16-5.85Z"/><path class="cls-1" d="m1.18,186.38h18.15v1.76H1.18v-1.76Z"/><path class="cls-1" d="m3.59,196.53h14.69v10.01h-1.62v-8.25h-4.76v7.62h-1.62v-7.62H3.59v-1.76Z"/><path class="cls-1" d="m3.59,209.21h14.69v1.76H3.59v-1.76Z"/><path class="cls-1" d="m3.59,214.54h14.69v1.76H5.21v7.87h-1.62v-9.63Z"/><path class="cls-1" d="m3.59,228.45h13.07v-5.08h1.62v11.92h-1.62v-5.08H3.59v-1.76Z"/><path class="cls-1" d="m3.59,237.81h14.69v10.03h-1.62v-8.29h-4.64v7.45h-1.57v-7.45h-5.25v8.48h-1.62v-10.22Z"/><path class="cls-1" d="m3.59,250.84h14.69v6.69c0,2.77-1.66,4.68-4.05,4.68-1.74,0-3.21-1.17-3.78-2.96-.21.78-.71,1.32-1.45,1.59l-5.41,2.04v-1.89l5.1-1.89c.63-.23.97-.73.97-1.43v-5.08H3.59v-1.76Zm7.64,1.76v5.01c0,1.83,1.26,2.81,2.83,2.81,1.72,0,2.6-1.22,2.6-2.81v-5.01h-5.43Z"/><path class="cls-1" d="m8.04,264.62v1.85c-1.89.21-3.08,1.99-3.08,4.57,0,2.25.92,3.42,2.46,3.42s2.06-1.3,2.5-2.71l.8-2.54c.38-1.17,1.01-4.13,3.88-4.13,2.37,0,3.92,1.95,3.92,4.99,0,3.36-1.7,5.43-4.83,5.67v-1.83c2.08-.15,3.23-1.59,3.23-3.92,0-1.85-.84-3.15-2.24-3.15-1.62,0-1.95,1.68-2.35,2.94l-.73,2.37c-.59,1.87-1.32,4.11-4.09,4.11-2.58,0-4.13-1.97-4.13-5.22,0-3.69,1.91-6.23,4.68-6.42Z"/></g></svg>