<?xml version="1.0" encoding="UTF-8"?><svg id="Capa_2" xmlns="http://www.w3.org/2000/svg" viewBox="0 0 20.5 276.27"><defs><style>.cls-1{fill:#fff;}</style></defs><g id="Capa_2-2"><rect width="20.5" height="276.27"/><path class="cls-1" d="m10.29,41.4c4.36,0,7.53,2.66,7.53,7.17,0,3.74-2.18,6.29-5.88,6.92v-1.83c2.69-.55,4.26-2.43,4.26-5.1,0-3.29-2.29-5.33-5.92-5.33s-6,2.04-6,5.33c0,2.75,1.49,4.53,4.26,5.1v1.83c-3.82-.65-5.88-3.08-5.88-6.92,0-4.51,3.17-7.17,7.62-7.17Z"/><path class="cls-1" d="m10.29,57.73c4.36,0,7.53,2.66,7.53,7.07s-2.98,7.11-7.53,7.11-7.62-2.66-7.62-7.11c0-4.2,2.98-7.07,7.62-7.07Zm0,12.38c3.63,0,5.92-2.06,5.92-5.31s-2.29-5.27-5.92-5.27-6,2.04-6,5.27,2.33,5.31,6,5.31Z"/><path class="cls-1" d="m2.91,74.81h14.69v2.01l-12.17,8.31h12.17v1.76H2.91v-2.01l12.17-8.31H2.91v-1.76Z"/><path class="cls-1" d="m2.91,94.49h13.07v-5.08h1.62v11.92h-1.62v-5.08H2.91v-1.76Z"/><path class="cls-1" d="m2.91,100.55l14.69,6.04v1.78l-14.69,6.06v-1.83l4.2-1.72v-6.8l-4.2-1.72v-1.83Zm5.79,4.22v5.46l6.65-2.73-6.65-2.73Z"/><path class="cls-1" d="m10.29,115.37c4.36,0,7.53,2.66,7.53,7.17,0,3.74-2.18,6.29-5.88,6.92v-1.83c2.69-.55,4.26-2.43,4.26-5.1,0-3.29-2.29-5.33-5.92-5.33s-6,2.04-6,5.33c0,2.75,1.49,4.53,4.26,5.1v1.83c-3.82-.65-5.88-3.08-5.88-6.92,0-4.51,3.17-7.17,7.62-7.17Z"/><path class="cls-1" d="m2.91,135.53h13.07v-5.08h1.62v11.92h-1.62v-5.08H2.91v-1.76Z"/><path class="cls-1" d="m2.91,148.42l14.69,6.04v1.78l-14.69,6.06v-1.83l4.2-1.72v-6.8l-4.2-1.72v-1.83Zm5.79,4.22v5.46l6.65-2.73-6.65-2.73Z"/><path class="cls-1" d="m2.91,164.68h14.69v6.69c0,2.77-1.66,4.68-4.05,4.68-1.74,0-3.21-1.17-3.78-2.96-.21.78-.71,1.32-1.45,1.59l-5.41,2.04v-1.89l5.1-1.89c.63-.23.97-.73.97-1.43v-5.08H2.91v-1.76Zm7.64,1.76v5.01c0,1.83,1.26,2.81,2.83,2.81,1.72,0,2.6-1.22,2.6-2.81v-5.01h-5.43Z"/><path class="cls-1" d="m2.91,183.23h13.07v-5.08h1.62v11.92h-1.62v-5.08H2.91v-1.76Z"/><path class="cls-1" d="m2.91,192.59h14.69v1.76H2.91v-1.76Z"/><path class="cls-1" d="m7.36,197.18v1.85c-1.89.21-3.08,1.99-3.08,4.57,0,2.25.92,3.42,2.46,3.42s2.06-1.3,2.5-2.71l.8-2.54c.38-1.17,1.01-4.13,3.88-4.13,2.37,0,3.92,1.95,3.92,4.99,0,3.36-1.7,5.43-4.83,5.67v-1.83c2.08-.15,3.23-1.59,3.23-3.92,0-1.85-.84-3.15-2.24-3.15-1.62,0-1.95,1.68-2.35,2.94l-.73,2.37c-.59,1.87-1.32,4.11-4.09,4.11-2.58,0-4.13-1.97-4.13-5.22,0-3.69,1.91-6.23,4.68-6.42Z"/><path class="cls-1" d="m2.91,214.96h13.07v-5.08h1.62v11.92h-1.62v-5.08H2.91v-1.76Z"/><path class="cls-1" d="m7.36,223.22v1.85c-1.89.21-3.08,1.99-3.08,4.57,0,2.25.92,3.42,2.46,3.42s2.06-1.3,2.5-2.71l.8-2.54c.38-1.17,1.01-4.13,3.88-4.13,2.37,0,3.92,1.95,3.92,4.99,0,3.36-1.7,5.43-4.83,5.67v-1.83c2.08-.15,3.23-1.59,3.23-3.92,0-1.85-.84-3.15-2.24-3.15-1.62,0-1.95,1.68-2.35,2.94l-.73,2.37c-.59,1.87-1.32,4.11-4.09,4.11-2.58,0-4.13-1.97-4.13-5.22,0-3.69,1.91-6.23,4.68-6.42Z"/></g></svg>