<?xml version="1.0" encoding="UTF-8"?><svg id="Capa_2" xmlns="http://www.w3.org/2000/svg" viewBox="0 0 20.5 276.27"><defs><style>.cls-1{fill:#fff;}</style></defs><g id="Capa_2-2"><rect width="20.5" height="276.27"/><path class="cls-1" d="m2.91,95.4h14.69v6.94c0,3.06-1.95,4.7-4.3,4.7-2.98,0-4.57-2.1-4.57-4.7v-5.18H2.91v-1.76Zm7.43,1.76v5.27c0,1.83,1.32,2.81,2.96,2.81,1.74,0,2.69-1.26,2.69-2.81v-5.27h-5.64Z"/><path class="cls-1" d="m2.91,109.67h14.69v6.69c0,2.77-1.66,4.68-4.05,4.68-1.74,0-3.21-1.17-3.78-2.96-.21.78-.71,1.32-1.45,1.59l-5.41,2.04v-1.89l5.1-1.89c.63-.23.97-.73.97-1.43v-5.08H2.91v-1.76Zm7.64,1.76v5.01c0,1.83,1.26,2.81,2.83,2.81,1.72,0,2.6-1.22,2.6-2.81v-5.01h-5.43Z"/><path class="cls-1" d="m10.29,123.31c4.36,0,7.53,2.66,7.53,7.07s-2.98,7.11-7.53,7.11-7.62-2.66-7.62-7.11c0-4.2,2.98-7.07,7.62-7.07Zm0,12.38c3.63,0,5.92-2.06,5.92-5.31s-2.29-5.27-5.92-5.27-6,2.04-6,5.27,2.33,5.31,6,5.31Z"/><path class="cls-1" d="m2.91,140.39h14.69v10.01h-1.62v-8.25h-4.76v7.62h-1.62v-7.62H2.91v-1.76Z"/><path class="cls-1" d="m2.91,153.06h14.69v1.76H2.91v-1.76Z"/><path class="cls-1" d="m2.91,158.39h14.69v1.76H4.52v7.87h-1.62v-9.63Z"/><path class="cls-1" d="m2.91,170.65h14.69v10.03h-1.62v-8.29h-4.64v7.45h-1.57v-7.45h-5.25v8.48h-1.62v-10.22Z"/></g></svg>