<?xml version="1.0" encoding="UTF-8"?><svg id="Capa_2" xmlns="http://www.w3.org/2000/svg" viewBox="0 0 20.5 276.27"><defs><style>.cls-1{fill:#fff;}</style></defs><g id="Capa_2-2"><rect width="20.5" height="276.27"/><path class="cls-1" d="m7.84,53.01h9.76v1.76H7.88c-2.33,0-3.57,1.85-3.57,4.09s1.24,4.09,3.57,4.09h9.71v1.76H7.84c-2.79,0-5.18-2.08-5.16-5.85,0-3.8,2.37-5.85,5.16-5.85Z"/><path class="cls-1" d="m2.91,68.16h14.69v6.95c0,3.06-1.95,4.7-4.3,4.7-2.98,0-4.57-2.1-4.57-4.7v-5.18H2.91v-1.76Zm7.43,1.76v5.27c0,1.83,1.32,2.81,2.96,2.81,1.74,0,2.69-1.26,2.69-2.81v-5.27h-5.64Z"/><path class="cls-1" d="m2.91,82.43h14.69v1.76H4.52v7.87h-1.62v-9.63Z"/><path class="cls-1" d="m10.29,92.97c4.36,0,7.53,2.66,7.53,7.07s-2.98,7.11-7.53,7.11-7.62-2.66-7.62-7.11c0-4.2,2.98-7.07,7.62-7.07Zm0,12.38c3.63,0,5.92-2.06,5.92-5.31s-2.29-5.27-5.92-5.27-6,2.04-6,5.27,2.33,5.31,6,5.31Z"/><path class="cls-1" d="m2.91,108.08l14.69,6.04v1.78l-14.69,6.06v-1.83l4.2-1.72v-6.8l-4.2-1.72v-1.83Zm5.79,4.22v5.46l6.65-2.73-6.65-2.73Z"/><path class="cls-1" d="m2.91,124.34h14.69v5.18c0,4.22-2.98,7.15-7.26,7.15s-7.43-2.94-7.43-7.15v-5.18Zm1.62,1.76v3.52c0,3.04,2.39,5.18,5.81,5.18,3.17,0,5.64-2.14,5.64-5.18v-3.52H4.52Z"/><path class="cls-1" d="m2.91,143.1l14.69,6.04v1.78l-14.69,6.06v-1.83l4.2-1.72v-6.8l-4.2-1.72v-1.83Zm5.79,4.22v5.46l6.65-2.73-6.65-2.73Z"/><path class="cls-1" d="m2.91,164.08h14.69v6.94c0,3.06-1.95,4.7-4.3,4.7-2.98,0-4.57-2.1-4.57-4.7v-5.18H2.91v-1.76Zm7.43,1.76v5.27c0,1.83,1.32,2.81,2.96,2.81,1.74,0,2.69-1.26,2.69-2.81v-5.27h-5.64Z"/><path class="cls-1" d="m2.91,178.35h14.69v1.76H2.91v-1.76Z"/><path class="cls-1" d="m2.91,183.68h14.69v10.03h-1.62v-8.29h-4.64v7.45h-1.57v-7.45h-5.25v8.48h-1.62v-10.22Z"/><path class="cls-1" d="m10.29,196.04c4.36,0,7.53,2.66,7.53,7.17,0,3.74-2.18,6.29-5.88,6.92v-1.83c2.69-.55,4.26-2.43,4.26-5.1,0-3.29-2.29-5.33-5.92-5.33s-6,2.04-6,5.33c0,2.75,1.49,4.53,4.26,5.1v1.83c-3.82-.65-5.88-3.08-5.88-6.92,0-4.51,3.17-7.17,7.62-7.17Z"/><path class="cls-1" d="m2.91,213.04h14.69v10.03h-1.62v-8.29h-4.64v7.45h-1.57v-7.45h-5.25v8.48h-1.62v-10.22Z"/></g></svg>