<?xml version="1.0" encoding="UTF-8"?><svg id="Capa_2" xmlns="http://www.w3.org/2000/svg" viewBox="0 0 20.5 276.27"><defs><style>.cls-1{fill:#fff;}</style></defs><g id="Capa_2-2"><rect width="20.5" height="276.27"/><path class="cls-1" d="m8.04,52.63v1.85c-1.89.21-3.08,1.99-3.08,4.57,0,2.24.92,3.42,2.45,3.42s2.06-1.3,2.5-2.7l.8-2.54c.38-1.17,1.01-4.13,3.88-4.13,2.37,0,3.92,1.95,3.92,4.99,0,3.36-1.7,5.43-4.82,5.66v-1.82c2.08-.15,3.23-1.59,3.23-3.92,0-1.84-.84-3.15-2.24-3.15-1.61,0-1.95,1.68-2.35,2.94l-.73,2.37c-.59,1.87-1.32,4.11-4.09,4.11-2.58,0-4.13-1.97-4.13-5.22,0-3.69,1.91-6.23,4.68-6.42Z"/><path class="cls-1" d="m3.59,66.94h14.68v1.76H3.59v-1.76Z"/><path class="cls-1" d="m3.59,72.27h14.68v2.01l-12.16,8.3h12.16v1.76H3.59v-2.01l12.16-8.31H3.59v-1.76Z"/><path class="cls-1" d="m10.98,87.25c4.36,0,7.53,2.66,7.53,7.13,0,3.73-2.27,6.31-5.87,6.92v-1.83c2.68-.54,4.26-2.41,4.26-5.1,0-3.25-2.24-5.29-5.91-5.29s-6,2.08-6,5.1c0,2.75,1.87,4.49,4.53,4.49v-4.95h1.51v5.16c0,1.53-.78,2.35-2.2,2.35H3.59v-1.57h5.01v-.04c-3.23-.27-5.24-2.18-5.24-5.43,0-4.05,2.98-6.94,7.61-6.94Z"/><path class="cls-1" d="m9.38,103.58h1.47v8.98h-1.47v-8.98Z"/><path class="cls-1" d="m3.59,115.29h14.68v1.76H3.59v-1.76Z"/><path class="cls-1" d="m3.59,120.62h14.68v2.01l-12.16,8.3h12.16v1.76H3.59v-2.01l12.16-8.31H3.59v-1.76Z"/><path class="cls-1" d="m1.18,141.1h18.14v1.76H1.18v-1.76Z"/><path class="cls-1" d="m3.59,151.25h14.68v1.76H5.21v7.87h-1.61v-9.63Z"/><path class="cls-1" d="m10.98,161.79c4.36,0,7.53,2.66,7.53,7.07s-2.98,7.11-7.53,7.11-7.61-2.66-7.61-7.11c0-4.19,2.98-7.07,7.61-7.07Zm0,12.37c3.63,0,5.91-2.06,5.91-5.31s-2.29-5.26-5.91-5.26-6,2.03-6,5.26,2.33,5.31,6,5.31Z"/><path class="cls-1" d="m10.98,178.2c4.36,0,7.53,2.66,7.53,7.13,0,3.73-2.27,6.31-5.87,6.92v-1.82c2.68-.55,4.26-2.41,4.26-5.1,0-3.25-2.24-5.29-5.91-5.29s-6,2.08-6,5.1c0,2.75,1.87,4.49,4.53,4.49v-4.95h1.51v5.16c0,1.53-.78,2.35-2.2,2.35H3.59v-1.57h5.01v-.04c-3.23-.27-5.24-2.18-5.24-5.43,0-4.05,2.98-6.94,7.61-6.94Z"/><path class="cls-1" d="m9.38,194.52h1.47v8.98h-1.47v-8.98Z"/><path class="cls-1" d="m3.59,206.23h14.68v1.76H3.59v-1.76Z"/><path class="cls-1" d="m3.59,211.56h14.68v2.01l-12.16,8.3h12.16v1.76H3.59v-2.01l12.16-8.3H3.59v-1.76Z"/></g></svg>