<?xml version="1.0" encoding="UTF-8"?><svg id="Capa_2" xmlns="http://www.w3.org/2000/svg" viewBox="0 0 24 24"><defs><style>.cls-1{fill:#fff;fill-rule:evenodd;}</style></defs><g id="Capa_1-2"><path class="cls-1" d="m15.85,16.56c-1.68,1.52-3.91,2.44-6.35,2.44C4.26,19,0,14.74,0,9.5S4.26,0,9.5,0s9.5,4.26,9.5,9.5c0,2.44-.92,4.67-2.44,6.35l7.44,7.44-.71.71s-7.44-7.44-7.44-7.44ZM9.5,1c4.69,0,8.5,3.81,8.5,8.5s-3.81,8.5-8.5,8.5S1,14.19,1,9.5,4.81,1,9.5,1Zm-4.5,8h4v-4h1v4h4v1h-4v4h-1v-4h-4v-1Z"/></g></svg>