<?xml version="1.0" encoding="UTF-8"?><svg id="Capa_2" xmlns="http://www.w3.org/2000/svg" viewBox="0 0 235.15 267.16"><defs><style>.cls-1{fill:#942c00;}.cls-2{fill:#fff;}.cls-3{fill:#c3d8c3;}</style></defs><g id="Capa_1-2"><rect x="84.02" y="-84.02" width="67.1" height="235.14" transform="translate(84.02 151.13) rotate(-90)"/><rect class="cls-2" x="84.02" y="-16.85" width="67.1" height="235.14" transform="translate(16.85 218.29) rotate(-90)"/><path class="cls-2" d="m45.11,43.74h2.15s0,.62,0,.62h-5.56s0-.62,0-.62h2.15s-2.67-15.18-2.67-15.18c-.37-2.1-2.26-1.48-2.25.06v15.12s1.54,0,1.54,0v.62s-6.79,0-6.79,0v-.62s1.54,0,1.54,0v-19.75s-1.54,0-1.54,0v-.62s4.63,0,4.63,0c1.7,0,2.84,1.6,3.15,3.27l3.02,17.1,3.02-17.1c.31-1.67,1.45-3.27,3.15-3.27h4.63s0,.62,0,.62h-1.54s0,19.75,0,19.75h1.54s0,.62,0,.62h-6.79s0-.62,0-.62h1.54s0-15.12,0-15.12c0-1.54-1.88-2.16-2.25-.06l-2.68,15.18Z"/><path class="cls-2" d="m61.77,34.17v9.57s3.4,0,3.4,0v.62s-8.64,0-8.64,0v-.62s1.54,0,1.54,0v-17.28c0-1.7,1.39-3.09,3.09-3.09h9.26c1.7,0,3.09,1.39,3.09,3.09v17.28s1.54,0,1.54,0v.62s-8.64,0-8.64,0v-.62s3.39,0,3.39,0v-9.57s-8.02,0-8.02,0Zm8.02-7.72c0-1.36-1.11-2.47-2.47-2.47h-3.09c-1.36,0-2.47,1.1-2.47,2.47v7.1s8.02,0,8.02,0v-7.1Z"/><path class="cls-2" d="m84.92,43.74v.62s-8.64,0-8.64,0v-.62s1.54,0,1.54,0v-19.75s-1.54,0-1.54,0v-.62s5.25,0,5.25,0v1.23s.77-1.23,2.47-1.23h6.17c1.7,0,3.09,1.39,3.09,3.09v7.41c0,1.7-1.39,3.09-3.09,3.09h-2.71s5.8,6.79,5.8,6.79h1.54s0,.62,0,.62h-8.64s0-.62,0-.62h2.22s-6.86-8.02-6.86-8.02v8.02s3.41,0,3.41,0Zm2.16-19.75h-3.12c-1.33,0-2.44,1.11-2.44,2.47v7.41c0,1.36,1.11,2.47,2.47,2.47h3.09c1.54,0,2.47-1.11,2.47-2.47v-7.41c0-1.36-1.11-2.47-2.47-2.47Z"/><path class="cls-2" d="m101.28,34.17v9.57s3.4,0,3.4,0v.62s-8.64,0-8.64,0v-.62s1.54,0,1.54,0v-17.28c0-1.7,1.39-3.09,3.09-3.09h9.26c1.7,0,3.09,1.39,3.09,3.09v17.28s1.54,0,1.54,0v.62s-8.64,0-8.64,0v-.62s3.39,0,3.39,0v-9.57s-8.02,0-8.02,0Zm8.02-7.72c0-1.36-1.11-2.47-2.47-2.47h-3.09c-1.36,0-2.47,1.1-2.47,2.47v7.1s8.02,0,8.02,0v-7.1Z"/><path class="cls-2" d="m117.33,23.99h-1.54s0-.62,0-.62h8.64s0,.62,0,.62h-3.12s5.4,14.26,5.4,14.26l4.47-11.79c.56-1.48-.59-2.47-2.13-2.47h-3.4s0-.62,0-.62h8.64s0,.62,0,.62h-1.54s-7.72,20.37-7.72,20.37l-7.72-20.37Z"/><path class="cls-2" d="m137.08,23.99h-1.54s0-.62,0-.62h6.79s0,.62,0,.62h-1.54s0,19.75,0,19.75h1.54s0,.62,0,.62h-6.79s0-.62,0-.62h1.54s0-19.75,0-19.75Z"/><path class="cls-2" d="m156.71,41.27h-1.54s0-.62,0-.62h6.79s0,.62,0,.62h-1.54c0,1.7-1.39,3.09-3.09,3.09h-13.89s0-.62,0-.62h1.54s0-19.75,0-19.75h-1.54s0-.62,0-.62h6.79s0,.62,0,.62h-1.54s0,17.28,0,17.28c0,1.36,1.11,2.47,2.47,2.47h3.09c1.36,0,2.47-1.11,2.47-2.47Z"/><path class="cls-2" d="m176.46,41.27h-1.54s0-.62,0-.62h6.79s0,.62,0,.62h-1.54c0,1.7-1.39,3.09-3.09,3.09h-13.89s0-.62,0-.62h1.54s0-19.75,0-19.75h-1.54s0-.62,0-.62h6.79s0,.62,0,.62h-1.54s0,17.28,0,17.28c0,1.36,1.11,2.47,2.47,2.47h3.09c1.36,0,2.47-1.11,2.47-2.47Z"/><path class="cls-2" d="m188.19,34.17v9.57s3.39,0,3.39,0v.62s-8.64,0-8.64,0v-.62s1.54,0,1.54,0v-17.28c0-1.7,1.39-3.09,3.09-3.09h9.26c1.7,0,3.09,1.39,3.09,3.09v17.28s1.54,0,1.54,0v.62s-8.64,0-8.64,0v-.62s3.39,0,3.39,0v-9.57s-8.02,0-8.02,0Zm8.02-7.72c0-1.36-1.11-2.47-2.47-2.47h-3.09c-1.36,0-2.47,1.1-2.47,2.47v7.1s8.02,0,8.02,0v-7.1Z"/><path d="m45.11,110.59h2.15s0,.62,0,.62h-5.56s0-.62,0-.62h2.15s-2.67-15.18-2.67-15.18c-.37-2.1-2.26-1.48-2.25.06v15.12s1.54,0,1.54,0v.62s-6.79,0-6.79,0v-.62s1.54,0,1.54,0v-19.75s-1.54,0-1.54,0v-.62s4.63,0,4.63,0c1.7,0,2.84,1.6,3.15,3.27l3.02,17.1,3.02-17.1c.31-1.67,1.45-3.27,3.15-3.27h4.63s0,.62,0,.62h-1.54s0,19.75,0,19.75h1.54s0,.62,0,.62h-6.79s0-.62,0-.62h1.54s0-15.12,0-15.12c0-1.54-1.88-2.16-2.25-.06l-2.68,15.18Z"/><path d="m61.77,101.03v9.57s3.4,0,3.4,0v.62s-8.64,0-8.64,0v-.62s1.54,0,1.54,0v-17.28c0-1.7,1.39-3.09,3.09-3.09h9.26c1.7,0,3.09,1.39,3.09,3.09v17.28s1.54,0,1.54,0v.62s-8.64,0-8.64,0v-.62s3.39,0,3.39,0v-9.57s-8.02,0-8.02,0Zm8.02-7.72c0-1.36-1.11-2.47-2.47-2.47h-3.09c-1.36,0-2.47,1.1-2.47,2.47v7.1s8.02,0,8.02,0v-7.1Z"/><path d="m84.92,110.59v.62s-8.64,0-8.64,0v-.62s1.54,0,1.54,0v-19.75s-1.54,0-1.54,0v-.62s5.25,0,5.25,0v1.23s.77-1.23,2.47-1.23h6.17c1.7,0,3.09,1.39,3.09,3.09v7.41c0,1.7-1.39,3.09-3.09,3.09h-2.71s5.8,6.79,5.8,6.79h1.54s0,.62,0,.62h-8.64s0-.62,0-.62h2.22s-6.86-8.02-6.86-8.02v8.02s3.41,0,3.41,0Zm2.16-19.75h-3.12c-1.33,0-2.44,1.11-2.44,2.47v7.41c0,1.36,1.11,2.47,2.47,2.47h3.09c1.54,0,2.47-1.11,2.47-2.47v-7.41c0-1.36-1.11-2.47-2.47-2.47Z"/><path d="m101.28,101.03v9.57s3.4,0,3.4,0v.62s-8.64,0-8.64,0v-.62s1.54,0,1.54,0v-17.28c0-1.7,1.39-3.09,3.09-3.09h9.26c1.7,0,3.09,1.39,3.09,3.09v17.28s1.54,0,1.54,0v.62s-8.64,0-8.64,0v-.62s3.39,0,3.39,0v-9.57s-8.02,0-8.02,0Zm8.02-7.72c0-1.36-1.11-2.47-2.47-2.47h-3.09c-1.36,0-2.47,1.1-2.47,2.47v7.1s8.02,0,8.02,0v-7.1Z"/><path d="m117.33,90.84h-1.54s0-.62,0-.62h8.64s0,.62,0,.62h-3.12s5.4,14.26,5.4,14.26l4.47-11.79c.56-1.48-.59-2.47-2.13-2.47h-3.4s0-.62,0-.62h8.64s0,.62,0,.62h-1.54s-7.72,20.37-7.72,20.37l-7.72-20.37Z"/><path d="m137.08,90.84h-1.54s0-.62,0-.62h6.79s0,.62,0,.62h-1.54s0,19.75,0,19.75h1.54s0,.62,0,.62h-6.79s0-.62,0-.62h1.54s0-19.75,0-19.75Z"/><path d="m156.71,108.13h-1.54s0-.62,0-.62h6.79s0,.62,0,.62h-1.54c0,1.7-1.39,3.09-3.09,3.09h-13.89s0-.62,0-.62h1.54s0-19.75,0-19.75h-1.54s0-.62,0-.62h6.79s0,.62,0,.62h-1.54s0,17.28,0,17.28c0,1.36,1.11,2.47,2.47,2.47h3.09c1.36,0,2.47-1.11,2.47-2.47Z"/><path d="m176.46,108.13h-1.54s0-.62,0-.62h6.79s0,.62,0,.62h-1.54c0,1.7-1.39,3.09-3.09,3.09h-13.89s0-.62,0-.62h1.54s0-19.75,0-19.75h-1.54s0-.62,0-.62h6.79s0,.62,0,.62h-1.54s0,17.28,0,17.28c0,1.36,1.11,2.47,2.47,2.47h3.09c1.36,0,2.47-1.11,2.47-2.47Z"/><path d="m188.19,101.03v9.57s3.39,0,3.39,0v.62s-8.64,0-8.64,0v-.62s1.54,0,1.54,0v-17.28c0-1.7,1.39-3.09,3.09-3.09h9.26c1.7,0,3.09,1.39,3.09,3.09v17.28s1.54,0,1.54,0v.62s-8.64,0-8.64,0v-.62s3.39,0,3.39,0v-9.57s-8.02,0-8.02,0Zm8.02-7.72c0-1.36-1.11-2.47-2.47-2.47h-3.09c-1.36,0-2.47,1.1-2.47,2.47v7.1s8.02,0,8.02,0v-7.1Z"/><rect class="cls-1" x="84.02" y="49.59" width="67.1" height="235.14" transform="translate(-49.59 284.73) rotate(-90)"/><path class="cls-3" d="m45.11,177.04h2.15s0,.62,0,.62h-5.56s0-.62,0-.62h2.15s-2.67-15.18-2.67-15.18c-.37-2.1-2.26-1.48-2.25.06v15.12s1.54,0,1.54,0v.62s-6.79,0-6.79,0v-.62s1.54,0,1.54,0v-19.75s-1.54,0-1.54,0v-.62s4.63,0,4.63,0c1.7,0,2.84,1.6,3.15,3.27l3.02,17.1,3.02-17.1c.31-1.67,1.45-3.27,3.15-3.27h4.63s0,.62,0,.62h-1.54s0,19.75,0,19.75h1.54s0,.62,0,.62h-6.79s0-.62,0-.62h1.54s0-15.12,0-15.12c0-1.54-1.88-2.16-2.25-.06l-2.68,15.18Z"/><path class="cls-3" d="m61.77,167.47v9.57s3.4,0,3.4,0v.62s-8.64,0-8.64,0v-.62s1.54,0,1.54,0v-17.28c0-1.7,1.39-3.09,3.09-3.09h9.26c1.7,0,3.09,1.39,3.09,3.09v17.28s1.54,0,1.54,0v.62s-8.64,0-8.64,0v-.62s3.39,0,3.39,0v-9.57s-8.02,0-8.02,0Zm8.02-7.72c0-1.36-1.11-2.47-2.47-2.47h-3.09c-1.36,0-2.47,1.1-2.47,2.47v7.1s8.02,0,8.02,0v-7.1Z"/><path class="cls-3" d="m84.92,177.04v.62s-8.64,0-8.64,0v-.62s1.54,0,1.54,0v-19.75s-1.54,0-1.54,0v-.62s5.25,0,5.25,0v1.23s.77-1.23,2.47-1.23h6.17c1.7,0,3.09,1.39,3.09,3.09v7.41c0,1.7-1.39,3.09-3.09,3.09h-2.71s5.8,6.79,5.8,6.79h1.54s0,.62,0,.62h-8.64s0-.62,0-.62h2.22s-6.86-8.02-6.86-8.02v8.02s3.41,0,3.41,0Zm2.16-19.75h-3.12c-1.33,0-2.44,1.11-2.44,2.47v7.41c0,1.36,1.11,2.47,2.47,2.47h3.09c1.54,0,2.47-1.11,2.47-2.47v-7.41c0-1.36-1.11-2.47-2.47-2.47Z"/><path class="cls-3" d="m101.28,167.47v9.57s3.4,0,3.4,0v.62s-8.64,0-8.64,0v-.62s1.54,0,1.54,0v-17.28c0-1.7,1.39-3.09,3.09-3.09h9.26c1.7,0,3.09,1.39,3.09,3.09v17.28s1.54,0,1.54,0v.62s-8.64,0-8.64,0v-.62s3.39,0,3.39,0v-9.57s-8.02,0-8.02,0Zm8.02-7.72c0-1.36-1.11-2.47-2.47-2.47h-3.09c-1.36,0-2.47,1.1-2.47,2.47v7.1s8.02,0,8.02,0v-7.1Z"/><path class="cls-3" d="m117.33,157.29h-1.54s0-.62,0-.62h8.64s0,.62,0,.62h-3.12s5.4,14.26,5.4,14.26l4.47-11.79c.56-1.48-.59-2.47-2.13-2.47h-3.4s0-.62,0-.62h8.64s0,.62,0,.62h-1.54s-7.72,20.37-7.72,20.37l-7.72-20.37Z"/><path class="cls-3" d="m137.08,157.29h-1.54s0-.62,0-.62h6.79s0,.62,0,.62h-1.54s0,19.75,0,19.75h1.54s0,.62,0,.62h-6.79s0-.62,0-.62h1.54s0-19.75,0-19.75Z"/><path class="cls-3" d="m156.71,174.57h-1.54s0-.62,0-.62h6.79s0,.62,0,.62h-1.54c0,1.7-1.39,3.09-3.09,3.09h-13.89s0-.62,0-.62h1.54s0-19.75,0-19.75h-1.54s0-.62,0-.62h6.79s0,.62,0,.62h-1.54s0,17.28,0,17.28c0,1.36,1.11,2.47,2.47,2.47h3.09c1.36,0,2.47-1.11,2.47-2.47Z"/><path class="cls-3" d="m176.46,174.57h-1.54s0-.62,0-.62h6.79s0,.62,0,.62h-1.54c0,1.7-1.39,3.09-3.09,3.09h-13.89s0-.62,0-.62h1.54s0-19.75,0-19.75h-1.54s0-.62,0-.62h6.79s0,.62,0,.62h-1.54s0,17.28,0,17.28c0,1.36,1.11,2.47,2.47,2.47h3.09c1.36,0,2.47-1.11,2.47-2.47Z"/><path class="cls-3" d="m188.19,167.47v9.57s3.39,0,3.39,0v.62s-8.64,0-8.64,0v-.62s1.54,0,1.54,0v-17.28c0-1.7,1.39-3.09,3.09-3.09h9.26c1.7,0,3.09,1.39,3.09,3.09v17.28s1.54,0,1.54,0v.62s-8.64,0-8.64,0v-.62s3.39,0,3.39,0v-9.57s-8.02,0-8.02,0Zm8.02-7.72c0-1.36-1.11-2.47-2.47-2.47h-3.09c-1.36,0-2.47,1.1-2.47,2.47v7.1s8.02,0,8.02,0v-7.1Z"/><rect class="cls-3" x="84.02" y="116.04" width="67.1" height="235.14" transform="translate(-116.04 351.17) rotate(-90)"/><path class="cls-1" d="m45.11,243.48h2.15s0,.62,0,.62h-5.56s0-.62,0-.62h2.15s-2.67-15.18-2.67-15.18c-.37-2.1-2.26-1.48-2.25.06v15.12s1.54,0,1.54,0v.62s-6.79,0-6.79,0v-.62s1.54,0,1.54,0v-19.75s-1.54,0-1.54,0v-.62s4.63,0,4.63,0c1.7,0,2.84,1.6,3.15,3.27l3.02,17.1,3.02-17.1c.31-1.67,1.45-3.27,3.15-3.27h4.63s0,.62,0,.62h-1.54s0,19.75,0,19.75h1.54s0,.62,0,.62h-6.79s0-.62,0-.62h1.54s0-15.12,0-15.12c0-1.54-1.88-2.16-2.25-.06l-2.68,15.18Z"/><path class="cls-1" d="m61.77,233.91v9.57s3.4,0,3.4,0v.62s-8.64,0-8.64,0v-.62s1.54,0,1.54,0v-17.28c0-1.7,1.39-3.09,3.09-3.09h9.26c1.7,0,3.09,1.39,3.09,3.09v17.28s1.54,0,1.54,0v.62s-8.64,0-8.64,0v-.62s3.39,0,3.39,0v-9.57s-8.02,0-8.02,0Zm8.02-7.72c0-1.36-1.11-2.47-2.47-2.47h-3.09c-1.36,0-2.47,1.1-2.47,2.47v7.1s8.02,0,8.02,0v-7.1Z"/><path class="cls-1" d="m84.92,243.48v.62s-8.64,0-8.64,0v-.62s1.54,0,1.54,0v-19.75s-1.54,0-1.54,0v-.62s5.25,0,5.25,0v1.23s.77-1.23,2.47-1.23h6.17c1.7,0,3.09,1.39,3.09,3.09v7.41c0,1.7-1.39,3.09-3.09,3.09h-2.71s5.8,6.79,5.8,6.79h1.54s0,.62,0,.62h-8.64s0-.62,0-.62h2.22s-6.86-8.02-6.86-8.02v8.02s3.41,0,3.41,0Zm2.16-19.75h-3.12c-1.33,0-2.44,1.11-2.44,2.47v7.41c0,1.36,1.11,2.47,2.47,2.47h3.09c1.54,0,2.47-1.11,2.47-2.47v-7.41c0-1.36-1.11-2.47-2.47-2.47Z"/><path class="cls-1" d="m101.27,233.92v9.57s3.4,0,3.4,0v.62s-8.64,0-8.64,0v-.62s1.54,0,1.54,0v-17.28c0-1.7,1.39-3.09,3.09-3.09h9.26c1.7,0,3.09,1.39,3.09,3.09v17.28s1.54,0,1.54,0v.62s-8.64,0-8.64,0v-.62s3.39,0,3.39,0v-9.57s-8.02,0-8.02,0Zm8.02-7.72c0-1.36-1.11-2.47-2.47-2.47h-3.09c-1.36,0-2.47,1.1-2.47,2.47v7.1s8.02,0,8.02,0v-7.1Z"/><path class="cls-1" d="m117.32,223.73h-1.54s0-.62,0-.62h8.64s0,.62,0,.62h-3.12s5.4,14.26,5.4,14.26l4.47-11.79c.56-1.48-.59-2.47-2.13-2.47h-3.4s0-.62,0-.62h8.64s0,.62,0,.62h-1.54s-7.72,20.37-7.72,20.37l-7.72-20.37Z"/><path class="cls-1" d="m137.08,223.73h-1.54s0-.62,0-.62h6.79s0,.62,0,.62h-1.54s0,19.75,0,19.75h1.54s0,.62,0,.62h-6.79s0-.62,0-.62h1.54s0-19.75,0-19.75Z"/><path class="cls-1" d="m156.71,241.01h-1.54s0-.62,0-.62h6.79s0,.62,0,.62h-1.54c0,1.7-1.39,3.09-3.09,3.09h-13.89s0-.62,0-.62h1.54s0-19.75,0-19.75h-1.54s0-.62,0-.62h6.79s0,.62,0,.62h-1.54s0,17.28,0,17.28c0,1.36,1.11,2.47,2.47,2.47h3.09c1.36,0,2.47-1.11,2.47-2.47Z"/><path class="cls-1" d="m176.46,241.01h-1.54s0-.62,0-.62h6.79s0,.62,0,.62h-1.54c0,1.7-1.39,3.09-3.09,3.09h-13.89s0-.62,0-.62h1.54s0-19.75,0-19.75h-1.54s0-.62,0-.62h6.79s0,.62,0,.62h-1.54s0,17.28,0,17.28c0,1.36,1.11,2.47,2.47,2.47h3.09c1.36,0,2.47-1.11,2.47-2.47Z"/><path class="cls-1" d="m188.19,233.92v9.57s3.39,0,3.39,0v.62s-8.64,0-8.64,0v-.62s1.54,0,1.54,0v-17.28c0-1.7,1.39-3.09,3.09-3.09h9.26c1.7,0,3.09,1.39,3.09,3.09v17.28s1.54,0,1.54,0v.62s-8.64,0-8.64,0v-.62s3.39,0,3.39,0v-9.57s-8.02,0-8.02,0Zm8.02-7.72c0-1.36-1.11-2.47-2.47-2.47h-3.09c-1.36,0-2.47,1.1-2.47,2.47v7.1s8.02,0,8.02,0v-7.1Z"/></g></svg>