<?xml version="1.0" encoding="UTF-8"?><svg id="Capa_2" xmlns="http://www.w3.org/2000/svg" viewBox="0 0 267.16 235.14"><defs><style>.cls-1{fill:#942c00;}.cls-2{fill:#fff;}.cls-3{fill:#c3d8c3;}</style></defs><g id="Capa_1-2"><rect x="200.05" y="0" width="67.1" height="235.14"/><rect class="cls-2" x="132.89" y="0" width="67.1" height="235.14"/><path class="cls-2" d="m223.42,45.11v2.15s-.62,0-.62,0v-5.56s.62,0,.62,0v2.15s15.18-2.68,15.18-2.68c2.1-.37,1.48-2.26-.06-2.25h-15.12s0,1.54,0,1.54h-.62s0-6.79,0-6.79h.62s0,1.54,0,1.54h19.75s0-1.54,0-1.54h.62s0,4.63,0,4.63c0,1.7-1.6,2.84-3.27,3.15l-17.1,3.02,17.1,3.02c1.67.31,3.27,1.45,3.27,3.15v4.63s-.62,0-.62,0v-1.54s-19.75,0-19.75,0v1.54s-.62,0-.62,0v-6.79s.62,0,.62,0v1.54s15.12,0,15.12,0c1.54,0,2.16-1.88.06-2.25l-15.18-2.68Z"/><path class="cls-2" d="m232.99,61.77h-9.57s0,3.4,0,3.4h-.62s0-8.64,0-8.64h.62s0,1.54,0,1.54h17.28c1.7,0,3.09,1.39,3.09,3.09v9.26c0,1.7-1.39,3.09-3.09,3.09h-17.28s0,1.54,0,1.54h-.62s0-8.64,0-8.64h.62s0,3.39,0,3.39h9.57s0-8.02,0-8.02Zm7.72,8.02c1.36,0,2.47-1.11,2.47-2.47v-3.09c0-1.36-1.1-2.47-2.47-2.47h-7.1s0,8.02,0,8.02h7.1Z"/><path class="cls-2" d="m223.42,84.92h-.62s0-8.64,0-8.64h.62s0,1.54,0,1.54h19.75s0-1.54,0-1.54h.62s0,5.25,0,5.25h-1.23s1.23.77,1.23,2.47v6.17c0,1.7-1.39,3.09-3.09,3.09h-7.41c-1.7,0-3.09-1.39-3.09-3.09v-2.71s-6.79,5.8-6.79,5.8v1.54s-.62,0-.62,0v-8.64s.62,0,.62,0v2.22s8.02-6.86,8.02-6.86h-8.02s0,3.41,0,3.41Zm19.75,2.16v-3.12c0-1.33-1.11-2.44-2.47-2.44h-7.41c-1.36,0-2.47,1.11-2.47,2.47v3.09c0,1.54,1.11,2.47,2.47,2.47h7.41c1.36,0,2.47-1.11,2.47-2.47Z"/><path class="cls-2" d="m232.99,101.28h-9.57s0,3.4,0,3.4h-.62s0-8.64,0-8.64h.62s0,1.54,0,1.54h17.28c1.7,0,3.09,1.39,3.09,3.09v9.26c0,1.7-1.39,3.09-3.09,3.09h-17.28s0,1.54,0,1.54h-.62s0-8.64,0-8.64h.62s0,3.39,0,3.39h9.57s0-8.02,0-8.02Zm7.72,8.02c1.36,0,2.47-1.11,2.47-2.47v-3.09c0-1.36-1.1-2.47-2.47-2.47h-7.1s0,8.02,0,8.02h7.1Z"/><path class="cls-2" d="m243.17,117.33v-1.54s.62,0,.62,0v8.64s-.62,0-.62,0v-3.12s-14.26,5.4-14.26,5.4l11.79,4.47c1.48.56,2.47-.59,2.47-2.13v-3.4s.62,0,.62,0v8.64s-.62,0-.62,0v-1.54s-20.37-7.72-20.37-7.72l20.37-7.72Z"/><path class="cls-2" d="m243.17,137.08v-1.54s.62,0,.62,0v6.79s-.62,0-.62,0v-1.54s-19.75,0-19.75,0v1.54s-.62,0-.62,0v-6.79s.62,0,.62,0v1.54s19.75,0,19.75,0Z"/><path class="cls-2" d="m225.89,156.71v-1.54s.62,0,.62,0v6.79s-.62,0-.62,0v-1.54c-1.7,0-3.09-1.39-3.09-3.09v-13.89s.62,0,.62,0v1.54s19.75,0,19.75,0v-1.54s.62,0,.62,0v6.79s-.62,0-.62,0v-1.54s-17.28,0-17.28,0c-1.36,0-2.47,1.11-2.47,2.47v3.09c0,1.36,1.11,2.47,2.47,2.47Z"/><path class="cls-2" d="m225.89,176.46v-1.54s.62,0,.62,0v6.79s-.62,0-.62,0v-1.54c-1.7,0-3.09-1.39-3.09-3.09v-13.89s.62,0,.62,0v1.54s19.75,0,19.75,0v-1.54s.62,0,.62,0v6.79s-.62,0-.62,0v-1.54s-17.28,0-17.28,0c-1.36,0-2.47,1.11-2.47,2.47v3.09c0,1.36,1.11,2.47,2.47,2.47Z"/><path class="cls-2" d="m232.99,188.19h-9.57s0,3.39,0,3.39h-.62s0-8.64,0-8.64h.62s0,1.54,0,1.54h17.28c1.7,0,3.09,1.39,3.09,3.09v9.26c0,1.7-1.39,3.09-3.09,3.09h-17.28s0,1.54,0,1.54h-.62s0-8.64,0-8.64h.62s0,3.39,0,3.39h9.57s0-8.02,0-8.02Zm7.72,8.02c1.36,0,2.47-1.11,2.47-2.47v-3.09c0-1.36-1.1-2.47-2.47-2.47h-7.1s0,8.02,0,8.02h7.1Z"/><path d="m156.57,45.11v2.15s-.62,0-.62,0v-5.56s.62,0,.62,0v2.15s15.18-2.68,15.18-2.68c2.1-.37,1.48-2.26-.06-2.25h-15.12s0,1.54,0,1.54h-.62s0-6.79,0-6.79h.62s0,1.54,0,1.54h19.75s0-1.54,0-1.54h.62s0,4.63,0,4.63c0,1.7-1.6,2.84-3.27,3.15l-17.1,3.02,17.1,3.02c1.67.31,3.27,1.45,3.27,3.15v4.63s-.62,0-.62,0v-1.54s-19.75,0-19.75,0v1.54s-.62,0-.62,0v-6.79s.62,0,.62,0v1.54s15.12,0,15.12,0c1.54,0,2.16-1.88.06-2.25l-15.18-2.68Z"/><path d="m166.13,61.77h-9.57s0,3.4,0,3.4h-.62s0-8.64,0-8.64h.62s0,1.54,0,1.54h17.28c1.7,0,3.09,1.39,3.09,3.09v9.26c0,1.7-1.39,3.09-3.09,3.09h-17.28s0,1.54,0,1.54h-.62s0-8.64,0-8.64h.62s0,3.39,0,3.39h9.57s0-8.02,0-8.02Zm7.72,8.02c1.36,0,2.47-1.11,2.47-2.47v-3.09c0-1.36-1.1-2.47-2.47-2.47h-7.1s0,8.02,0,8.02h7.1Z"/><path d="m156.57,84.92h-.62s0-8.64,0-8.64h.62s0,1.54,0,1.54h19.75s0-1.54,0-1.54h.62s0,5.25,0,5.25h-1.23s1.23.77,1.23,2.47v6.17c0,1.7-1.39,3.09-3.09,3.09h-7.41c-1.7,0-3.09-1.39-3.09-3.09v-2.71s-6.79,5.8-6.79,5.8v1.54s-.62,0-.62,0v-8.64s.62,0,.62,0v2.22s8.02-6.86,8.02-6.86h-8.02s0,3.41,0,3.41Zm19.75,2.16v-3.12c0-1.33-1.11-2.44-2.47-2.44h-7.41c-1.36,0-2.47,1.11-2.47,2.47v3.09c0,1.54,1.11,2.47,2.47,2.47h7.41c1.36,0,2.47-1.11,2.47-2.47Z"/><path d="m166.13,101.28h-9.57s0,3.4,0,3.4h-.62s0-8.64,0-8.64h.62s0,1.54,0,1.54h17.28c1.7,0,3.09,1.39,3.09,3.09v9.26c0,1.7-1.39,3.09-3.09,3.09h-17.28s0,1.54,0,1.54h-.62s0-8.64,0-8.64h.62s0,3.39,0,3.39h9.57s0-8.02,0-8.02Zm7.72,8.02c1.36,0,2.47-1.11,2.47-2.47v-3.09c0-1.36-1.1-2.47-2.47-2.47h-7.1s0,8.02,0,8.02h7.1Z"/><path d="m176.32,117.33v-1.54s.62,0,.62,0v8.64s-.62,0-.62,0v-3.12s-14.26,5.4-14.26,5.4l11.79,4.47c1.48.56,2.47-.59,2.47-2.13v-3.4s.62,0,.62,0v8.64s-.62,0-.62,0v-1.54s-20.37-7.72-20.37-7.72l20.37-7.72Z"/><path d="m176.32,137.08v-1.54s.62,0,.62,0v6.79s-.62,0-.62,0v-1.54s-19.75,0-19.75,0v1.54s-.62,0-.62,0v-6.79s.62,0,.62,0v1.54s19.75,0,19.75,0Z"/><path d="m159.03,156.71v-1.54s.62,0,.62,0v6.79s-.62,0-.62,0v-1.54c-1.7,0-3.09-1.39-3.09-3.09v-13.89s.62,0,.62,0v1.54s19.75,0,19.75,0v-1.54s.62,0,.62,0v6.79s-.62,0-.62,0v-1.54s-17.28,0-17.28,0c-1.36,0-2.47,1.11-2.47,2.47v3.09c0,1.36,1.11,2.47,2.47,2.47Z"/><path d="m159.03,176.46v-1.54s.62,0,.62,0v6.79s-.62,0-.62,0v-1.54c-1.7,0-3.09-1.39-3.09-3.09v-13.89s.62,0,.62,0v1.54s19.75,0,19.75,0v-1.54s.62,0,.62,0v6.79s-.62,0-.62,0v-1.54s-17.28,0-17.28,0c-1.36,0-2.47,1.11-2.47,2.47v3.09c0,1.36,1.11,2.47,2.47,2.47Z"/><path d="m166.13,188.19h-9.57s0,3.39,0,3.39h-.62s0-8.64,0-8.64h.62s0,1.54,0,1.54h17.28c1.7,0,3.09,1.39,3.09,3.09v9.26c0,1.7-1.39,3.09-3.09,3.09h-17.28s0,1.54,0,1.54h-.62s0-8.64,0-8.64h.62s0,3.39,0,3.39h9.57s0-8.02,0-8.02Zm7.72,8.02c1.36,0,2.47-1.11,2.47-2.47v-3.09c0-1.36-1.1-2.47-2.47-2.47h-7.1s0,8.02,0,8.02h7.1Z"/><rect class="cls-1" x="66.45" y="0" width="67.1" height="235.14"/><path class="cls-3" d="m90.12,45.11v2.15s-.62,0-.62,0v-5.56s.62,0,.62,0v2.15s15.18-2.68,15.18-2.68c2.1-.37,1.48-2.26-.06-2.25h-15.12s0,1.54,0,1.54h-.62s0-6.79,0-6.79h.62s0,1.54,0,1.54h19.75s0-1.54,0-1.54h.62s0,4.63,0,4.63c0,1.7-1.6,2.84-3.27,3.15l-17.1,3.02,17.1,3.02c1.67.31,3.27,1.45,3.27,3.15v4.63s-.62,0-.62,0v-1.54s-19.75,0-19.75,0v1.54s-.62,0-.62,0v-6.79s.62,0,.62,0v1.54s15.12,0,15.12,0c1.54,0,2.16-1.88.06-2.25l-15.18-2.68Z"/><path class="cls-3" d="m99.69,61.77h-9.57s0,3.4,0,3.4h-.62s0-8.64,0-8.64h.62s0,1.54,0,1.54h17.28c1.7,0,3.09,1.39,3.09,3.09v9.26c0,1.7-1.39,3.09-3.09,3.09h-17.28s0,1.54,0,1.54h-.62s0-8.64,0-8.64h.62s0,3.39,0,3.39h9.57s0-8.02,0-8.02Zm7.72,8.02c1.36,0,2.47-1.11,2.47-2.47v-3.09c0-1.36-1.1-2.47-2.47-2.47h-7.1s0,8.02,0,8.02h7.1Z"/><path class="cls-3" d="m90.12,84.92h-.62s0-8.64,0-8.64h.62s0,1.54,0,1.54h19.75s0-1.54,0-1.54h.62s0,5.25,0,5.25h-1.23s1.23.77,1.23,2.47v6.17c0,1.7-1.39,3.09-3.09,3.09h-7.41c-1.7,0-3.09-1.39-3.09-3.09v-2.71s-6.79,5.8-6.79,5.8v1.54s-.62,0-.62,0v-8.64s.62,0,.62,0v2.22s8.02-6.86,8.02-6.86h-8.02s0,3.41,0,3.41Zm19.75,2.16v-3.12c0-1.33-1.11-2.44-2.47-2.44h-7.41c-1.36,0-2.47,1.11-2.47,2.47v3.09c0,1.54,1.11,2.47,2.47,2.47h7.41c1.36,0,2.47-1.11,2.47-2.47Z"/><path class="cls-3" d="m99.69,101.27h-9.57s0,3.4,0,3.4h-.62s0-8.64,0-8.64h.62s0,1.54,0,1.54h17.28c1.7,0,3.09,1.39,3.09,3.09v9.26c0,1.7-1.39,3.09-3.09,3.09h-17.28s0,1.54,0,1.54h-.62s0-8.64,0-8.64h.62s0,3.39,0,3.39h9.57s0-8.02,0-8.02Zm7.72,8.02c1.36,0,2.47-1.11,2.47-2.47v-3.09c0-1.36-1.1-2.47-2.47-2.47h-7.1s0,8.02,0,8.02h7.1Z"/><path class="cls-3" d="m109.87,117.33v-1.54s.62,0,.62,0v8.64s-.62,0-.62,0v-3.12s-14.26,5.4-14.26,5.4l11.79,4.47c1.48.56,2.47-.59,2.47-2.13v-3.4s.62,0,.62,0v8.64s-.62,0-.62,0v-1.54s-20.37-7.72-20.37-7.72l20.37-7.72Z"/><path class="cls-3" d="m109.87,137.08v-1.54s.62,0,.62,0v6.79s-.62,0-.62,0v-1.54s-19.75,0-19.75,0v1.54s-.62,0-.62,0v-6.79s.62,0,.62,0v1.54s19.75,0,19.75,0Z"/><path class="cls-3" d="m92.59,156.71v-1.54s.62,0,.62,0v6.79s-.62,0-.62,0v-1.54c-1.7,0-3.09-1.39-3.09-3.09v-13.89s.62,0,.62,0v1.54s19.75,0,19.75,0v-1.54s.62,0,.62,0v6.79s-.62,0-.62,0v-1.54s-17.28,0-17.28,0c-1.36,0-2.47,1.11-2.47,2.47v3.09c0,1.36,1.11,2.47,2.47,2.47Z"/><path class="cls-3" d="m92.59,176.46v-1.54s.62,0,.62,0v6.79s-.62,0-.62,0v-1.54c-1.7,0-3.09-1.39-3.09-3.09v-13.89s.62,0,.62,0v1.54s19.75,0,19.75,0v-1.54s.62,0,.62,0v6.79s-.62,0-.62,0v-1.54s-17.28,0-17.28,0c-1.36,0-2.47,1.11-2.47,2.47v3.09c0,1.36,1.11,2.47,2.47,2.47Z"/><path class="cls-3" d="m99.69,188.19h-9.57s0,3.39,0,3.39h-.62s0-8.64,0-8.64h.62s0,1.54,0,1.54h17.28c1.7,0,3.09,1.39,3.09,3.09v9.26c0,1.7-1.39,3.09-3.09,3.09h-17.28s0,1.54,0,1.54h-.62s0-8.64,0-8.64h.62s0,3.39,0,3.39h9.57s0-8.02,0-8.02Zm7.72,8.02c1.36,0,2.47-1.11,2.47-2.47v-3.09c0-1.36-1.1-2.47-2.47-2.47h-7.1s0,8.02,0,8.02h7.1Z"/><rect class="cls-3" x="0" y="0" width="67.1" height="235.14"/><path class="cls-1" d="m23.68,45.11v2.15s-.62,0-.62,0v-5.56s.62,0,.62,0v2.15s15.18-2.68,15.18-2.68c2.1-.37,1.48-2.26-.06-2.25h-15.12s0,1.54,0,1.54h-.62s0-6.79,0-6.79h.62s0,1.54,0,1.54h19.75s0-1.54,0-1.54h.62s0,4.63,0,4.63c0,1.7-1.6,2.84-3.27,3.15l-17.1,3.02,17.1,3.02c1.67.31,3.27,1.45,3.27,3.15v4.63s-.62,0-.62,0v-1.54s-19.75,0-19.75,0v1.54s-.62,0-.62,0v-6.79s.62,0,.62,0v1.54s15.12,0,15.12,0c1.54,0,2.16-1.88.06-2.25l-15.18-2.68Z"/><path class="cls-1" d="m33.24,61.77h-9.57s0,3.4,0,3.4h-.62s0-8.64,0-8.64h.62s0,1.54,0,1.54h17.28c1.7,0,3.09,1.39,3.09,3.09v9.26c0,1.7-1.39,3.09-3.09,3.09h-17.28s0,1.54,0,1.54h-.62s0-8.64,0-8.64h.62s0,3.39,0,3.39h9.57s0-8.02,0-8.02Zm7.72,8.02c1.36,0,2.47-1.11,2.47-2.47v-3.09c0-1.36-1.1-2.47-2.47-2.47h-7.1s0,8.02,0,8.02h7.1Z"/><path class="cls-1" d="m23.68,84.92h-.62s0-8.64,0-8.64h.62s0,1.54,0,1.54h19.75s0-1.54,0-1.54h.62s0,5.25,0,5.25h-1.23s1.23.77,1.23,2.47v6.17c0,1.7-1.39,3.09-3.09,3.09h-7.41c-1.7,0-3.09-1.39-3.09-3.09v-2.71s-6.79,5.8-6.79,5.8v1.54s-.62,0-.62,0v-8.64s.62,0,.62,0v2.22s8.02-6.86,8.02-6.86h-8.02s0,3.41,0,3.41Zm19.75,2.16v-3.12c0-1.33-1.11-2.44-2.47-2.44h-7.41c-1.36,0-2.47,1.11-2.47,2.47v3.09c0,1.54,1.11,2.47,2.47,2.47h7.41c1.36,0,2.47-1.11,2.47-2.47Z"/><path class="cls-1" d="m33.24,101.27h-9.57s0,3.4,0,3.4h-.62s0-8.64,0-8.64h.62s0,1.54,0,1.54h17.28c1.7,0,3.09,1.39,3.09,3.09v9.26c0,1.7-1.39,3.09-3.09,3.09h-17.28s0,1.54,0,1.54h-.62s0-8.64,0-8.64h.62s0,3.39,0,3.39h9.57s0-8.02,0-8.02Zm7.72,8.02c1.36,0,2.47-1.11,2.47-2.47v-3.09c0-1.36-1.1-2.47-2.47-2.47h-7.1s0,8.02,0,8.02h7.1Z"/><path class="cls-1" d="m43.43,117.32v-1.54s.62,0,.62,0v8.64s-.62,0-.62,0v-3.12s-14.26,5.4-14.26,5.4l11.79,4.47c1.48.56,2.47-.59,2.47-2.13v-3.4s.62,0,.62,0v8.64s-.62,0-.62,0v-1.54s-20.37-7.72-20.37-7.72l20.37-7.72Z"/><path class="cls-1" d="m43.43,137.08v-1.54s.62,0,.62,0v6.79s-.62,0-.62,0v-1.54s-19.75,0-19.75,0v1.54s-.62,0-.62,0v-6.79s.62,0,.62,0v1.54s19.75,0,19.75,0Z"/><path class="cls-1" d="m26.14,156.71v-1.54s.62,0,.62,0v6.79s-.62,0-.62,0v-1.54c-1.7,0-3.09-1.39-3.09-3.09v-13.89s.62,0,.62,0v1.54s19.75,0,19.75,0v-1.54s.62,0,.62,0v6.79s-.62,0-.62,0v-1.54s-17.28,0-17.28,0c-1.36,0-2.47,1.11-2.47,2.47v3.09c0,1.36,1.11,2.47,2.47,2.47Z"/><path class="cls-1" d="m26.14,176.46v-1.54s.62,0,.62,0v6.79s-.62,0-.62,0v-1.54c-1.7,0-3.09-1.39-3.09-3.09v-13.89s.62,0,.62,0v1.54s19.75,0,19.75,0v-1.54s.62,0,.62,0v6.79s-.62,0-.62,0v-1.54s-17.28,0-17.28,0c-1.36,0-2.47,1.11-2.47,2.47v3.09c0,1.36,1.11,2.47,2.47,2.47Z"/><path class="cls-1" d="m33.24,188.19h-9.57s0,3.39,0,3.39h-.62s0-8.64,0-8.64h.62s0,1.54,0,1.54h17.28c1.7,0,3.09,1.39,3.09,3.09v9.26c0,1.7-1.39,3.09-3.09,3.09h-17.28s0,1.54,0,1.54h-.62s0-8.64,0-8.64h.62s0,3.39,0,3.39h9.57s0-8.02,0-8.02Zm7.72,8.02c1.36,0,2.47-1.11,2.47-2.47v-3.09c0-1.36-1.1-2.47-2.47-2.47h-7.1s0,8.02,0,8.02h7.1Z"/></g></svg>