<?xml version="1.0" encoding="UTF-8"?><svg id="Capa_2" xmlns="http://www.w3.org/2000/svg" viewBox="0 0 564.58 377.1"><defs><style>.cls-1{fill:#942c00;}.cls-2{fill:#c3d8c3;}</style></defs><g id="Capa_1-2"><rect class="cls-1" x="0" y="0" width="564.58" height="377.09"/><path class="cls-2" d="m485.99,65.02h-12.71s0,4.51,0,4.51h-.82s0-11.48,0-11.48h.82s0,2.05,0,2.05h22.96c2.25,0,4.1,1.85,4.1,4.1v12.3c0,2.25-1.84,4.1-4.1,4.1h-22.96s0,2.05,0,2.05h-.82s0-11.48,0-11.48h.82s0,4.51,0,4.51h12.71s0-10.66,0-10.66Zm10.25,10.66c1.8,0,3.28-1.48,3.28-3.28v-4.1c0-1.8-1.46-3.28-3.28-3.28h-9.43s0,10.66,0,10.66h9.43Z"/><path class="cls-2" d="m474.1,91.27h-1.64s0-6.98,0-6.98h.82s0,2.05,0,2.05h26.24s0-2.05,0-2.05h.82s0,6.97,0,6.97h-1.64s1.64,1.02,1.64,3.28v4.1c0,2.26-1.84,4.1-4.1,4.1h-2.46c-2.25,0-3.28-1.64-3.28-1.64v1.64c0,2.28-1.85,4.1-4.1,4.1h-9.84c-2.26,0-4.1-1.84-4.1-4.1v-8.2c0-2.26,1.64-3.27,1.64-3.27Zm22.14,0h-5.74s0,3.24,0,3.24c0,1.8,1.48,3.32,3.28,3.32h2.46c1.8,0,3.28-1.48,3.28-3.28s-1.48-3.28-3.28-3.28Zm-19.68,0c-1.8,0-3.28,1.48-3.28,3.28v4.1c0,1.8,1.48,3.28,3.28,3.28h9.84c1.8,0,3.28-1.52,3.28-3.32v-7.34s-13.12,0-13.12,0Z"/><path class="cls-2" d="m500.34,108.48v6.97s-1.64,0-1.64,0c0,0,1.64,1.02,1.64,3.27v8.2c0,2.25-1.84,4.1-4.1,4.1h-19.68c-2.26,0-4.1-1.85-4.1-4.1v-8.2c0-2.26,1.64-3.27,1.64-3.27h-1.64s0-6.98,0-6.98h.82s0,2.05,0,2.05h26.24s0-2.05,0-2.05h.82Zm-4.1,17.63c1.8,0,3.28-1.48,3.28-3.28v-4.1c0-1.8-1.48-3.28-3.28-3.28h-19.68c-1.8,0-3.28,1.48-3.28,3.28v4.1c0,1.8,1.48,3.28,3.28,3.28h19.68Z"/><path class="cls-2" d="m485.99,137.59h-9.43c-1.8,0-3.28,1.48-3.28,3.28v4.1c0,1.8,1.48,3.28,3.28,3.28v-2.05s.82,0,.82,0v9.02s-.82,0-.82,0v-2.05c-2.26,0-4.1-1.85-4.1-4.1v-12.3c0-2.26,1.84-4.1,4.1-4.1h19.68c2.25,0,4.1,1.84,4.1,4.1v12.3c0,2.25-1.84,4.1-4.1,4.1v2.05s-.82,0-.82,0v-9.02s.82,0,.82,0v2.05c1.8,0,3.28-1.48,3.28-3.28v-4.1c0-1.8-1.48-3.28-3.28-3.28h-9.43s0,7.38,0,7.38h-.82s0-7.38,0-7.38Z"/><path class="cls-2" d="m500.34,175.31c0,2.25-1.84,4.1-4.1,4.1v2.05s-.82,0-.82,0v-9.02s.82,0,.82,0v2.05c1.8,0,3.28-1.48,3.28-3.28v-4.1c0-1.8-1.48-3.28-3.28-3.28h-9.43s0,7.38,0,7.38h-.82s0-7.38,0-7.38h-12.71s0,2.05,0,2.05h-.82s0-9.02,0-9.02h.82s0,2.05,0,2.05h26.24s0-2.05,0-2.05h.82s0,18.45,0,18.45Z"/><path class="cls-2" d="m482.71,198.68c1.8,0,3.28-1.48,3.28-3.28v-2.05s.82,0,.82,0v12.3s-.82,0-.82,0v-2.05s-9.43,0-9.43,0c-2.26,0-4.1-1.85-4.1-4.1v-12.3c0-2.25,1.84-4.1,4.1-4.1h19.68c2.25,0,4.1,1.85,4.1,4.1v12.3c0,2.25-1.84,4.1-4.1,4.1v2.05s-.82,0-.82,0v-9.02s.82,0,.82,0v2.05c1.8,0,3.28-1.48,3.28-3.28v-4.1c0-1.8-1.48-3.28-3.28-3.28h-19.68c-1.8,0-3.28,1.48-3.28,3.28v4.1c0,1.8,1.48,3.28,3.28,3.28h6.15Z"/><path class="cls-2" d="m486.81,214.26v10.66s12.71,0,12.71,0v-4.51s.82,0,.82,0v11.48s-.82,0-.82,0v-2.05s-26.24,0-26.24,0v2.05s-.82,0-.82,0v-11.48s.82,0,.82,0v4.51s12.71,0,12.71,0v-10.66s-12.71,0-12.71,0v4.51s-.82,0-.82,0v-11.48s.82,0,.82,0v2.05s26.24,0,26.24,0v-2.05s.82,0,.82,0v11.48s-.82,0-.82,0v-4.51s-12.71,0-12.71,0Z"/><path class="cls-2" d="m499.52,235.58v-2.05s.82,0,.82,0v9.02s-.82,0-.82,0v-2.05s-26.24,0-26.24,0v2.05s-.82,0-.82,0v-9.02s.82,0,.82,0v2.05s26.24,0,26.24,0Z"/><path class="cls-2" d="m476.56,251c-1.8,0-3.28,1.48-3.28,3.28s1.48,3.28,3.28,3.28h22.96s0-2.05,0-2.05h.82s0,9.02,0,9.02h-.82s0-2.05,0-2.05h-22.96c-2.26,0-4.1-1.85-4.1-4.1v-8.2c0-2.25,1.84-4.1,4.1-4.1h5.74s0-2.05,0-2.05h.82s0,9.02,0,9.02h-.82s0-2.05,0-2.05h-5.74Z"/><path class="cls-2" d="m486.4,273.14h-13.12s0,4.51,0,4.51h-.82s0-11.48,0-11.48h.82s0,2.05,0,2.05h26.24s0-2.05,0-2.05h.82s0,11.48,0,11.48h-.82s0-4.51,0-4.51h-12.05s9.68,11.48,9.68,11.48c.98,1.19,2.38,1.64,2.38,0v-5.33s.82,0,.82,0v11.48s-.82,0-.82,0v-2.05s-9.96-11.83-9.96-11.83l-16.28,11.83v2.05s-.82,0-.82,0v-11.48s.82,0,.82,0v3.36s13.12-9.51,13.12-9.51Z"/><path class="cls-2" d="m476.56,310.04v-2.05s.82,0,.82,0v9.02s-.82,0-.82,0v-2.05c-2.26,0-4.1-1.85-4.1-4.1v-18.45s.82,0,.82,0v2.05s26.24,0,26.24,0v-2.05s.82,0,.82,0v9.02s-.82,0-.82,0v-2.05s-22.96,0-22.96,0c-1.8,0-3.28,1.48-3.28,3.28v4.1c0,1.8,1.48,3.28,3.28,3.28Z"/><path class="cls-2" d="m428.55,77.46v2.86s-.82,0-.82,0v-7.38s.82,0,.82,0v2.86s20.17-3.55,20.17-3.55c2.79-.49,1.97-3-.08-2.99h-20.09s0,2.05,0,2.05h-.82s0-9.02,0-9.02h.82s0,2.05,0,2.05h26.24s0-2.05,0-2.05h.82s0,6.15,0,6.15c0,2.25-2.13,3.77-4.35,4.18l-22.71,4.02,22.71,4.02c2.21.41,4.35,1.93,4.35,4.18v6.15s-.82,0-.82,0v-2.05s-26.24,0-26.24,0v2.05s-.82,0-.82,0v-9.02s.82,0,.82,0v2.05s20.09,0,20.09,0c2.05,0,2.87-2.5.08-2.99l-20.17-3.55Z"/><path class="cls-2" d="m449.29,101.63c.98-.37,1.39-2.05-.66-2.05h-20.09s0,2.05,0,2.05h-.82s0-9.02,0-9.02h.82s0,2.05,0,2.05h26.24s0-2.05,0-2.05h.82s0,5,0,5c0,2.25-2.21,3.36-4.39,4.18l-17.18,6.4c-.98.37-1.39,2.05.66,2.05h20.09s0-2.05,0-2.05h.82s0,9.02,0,9.02h-.82s0-2.05,0-2.05h-26.24s0,2.05,0,2.05h-.82s0-5,0-5c0-2.25,2.21-3.36,4.39-4.18l17.18-6.4Z"/><path class="cls-2" d="m449.29,127.87c.98-.37,1.39-2.05-.66-2.05h-20.09s0,2.05,0,2.05h-.82s0-9.02,0-9.02h.82s0,2.05,0,2.05h26.24s0-2.05,0-2.05h.82s0,5,0,5c0,2.25-2.21,3.36-4.39,4.18l-17.18,6.4c-.98.37-1.39,2.05.66,2.05h20.09s0-2.05,0-2.05h.82s0,9.02,0,9.02h-.82s0-2.05,0-2.05h-26.24s0,2.05,0,2.05h-.82s0-5,0-5c0-2.25,2.21-3.36,4.39-4.18l17.18-6.4Zm8.77,8.61h-.82s0-10.66,0-10.66h.82s0,10.66,0,10.66Z"/><path class="cls-2" d="m455.61,149.19v12.3c0,2.25-1.84,4.1-4.1,4.1h-19.68c-2.26,0-4.1-1.85-4.1-4.1v-12.3c0-2.25,1.84-4.1,4.1-4.1h19.68c2.25,0,4.1,1.85,4.1,4.1Zm-23.78.82c-1.8,0-3.28,1.48-3.28,3.28v4.1c0,1.8,1.48,3.28,3.28,3.28h19.68c1.8,0,3.28-1.48,3.28-3.28v-4.1c0-1.8-1.48-3.28-3.28-3.28h-19.68Z"/><path class="cls-2" d="m427.73,176.25v-9.02s.82,0,.82,0v2.05s26.24,0,26.24,0v-2.05s.82,0,.82,0v6.97s-1.64,0-1.64,0c0,0,1.64,1.02,1.64,3.27v8.2c0,2.25-1.84,4.1-4.1,4.1h-9.84c-2.25,0-4.1-1.85-4.1-4.1v-8.2c0-2.26,1.64-3.27,1.64-3.27,0,0-10.66,0-10.66,0v2.05s-.82,0-.82,0Zm23.78,8.61c1.8,0,3.28-1.48,3.28-3.28v-4.1c0-1.8-1.48-3.28-3.28-3.28h-9.84c-1.8,0-3.28,1.48-3.28,3.28v4.1c0,1.8,1.48,3.28,3.28,3.28h9.84Z"/><path class="cls-2" d="m455.61,195.52v12.3c0,2.25-1.84,4.1-4.1,4.1h-19.68c-2.26,0-4.1-1.85-4.1-4.1v-12.3c0-2.25,1.84-4.1,4.1-4.1h19.68c2.25,0,4.1,1.85,4.1,4.1Zm-23.78,11.48h19.68c1.8,0,3.28-1.48,3.28-3.28v-4.1c0-1.8-1.48-3.28-3.28-3.28h-19.68c-1.8,0-3.28,1.48-3.28,3.28v3.45s1.02-1.65,3.28-1.65,4.1,1.84,4.1,4.1h-.82c0-1.8-1.48-3.28-3.28-3.28s-3.28,1.48-3.28,3.28c0,1.48,1.48,1.48,3.28,1.48Z"/><path class="cls-2" d="m428.55,225.04h-.82s0-11.48,0-11.48h.82s0,2.05,0,2.05h26.24s0-2.05,0-2.05h.82s0,6.97,0,6.97h-1.64s1.64,1.02,1.64,3.28v8.2c0,2.26-1.84,4.1-4.1,4.1h-9.84c-2.25,0-4.1-1.84-4.1-4.1v-3.6s-9.02,7.7-9.02,7.7v2.05s-.82,0-.82,0v-11.48s.82,0,.82,0v2.95s10.66-9.12,10.66-9.12h-10.66s0,4.52,0,4.52Zm26.24,2.87v-4.14c0-1.76-1.48-3.24-3.28-3.24h-9.84c-1.8,0-3.28,1.48-3.28,3.28v4.1c0,2.05,1.48,3.28,3.28,3.28h9.84c1.8,0,3.28-1.48,3.28-3.28Z"/><path class="cls-2" d="m435.68,262.35h-3.85c-2.3,0-4.1-1.84-4.1-4.1v-12.3c0-2.25,1.84-4.1,4.1-4.1v-2.05s.82,0,.82,0v9.02s-.82,0-.82,0v-2.05c-1.8,0-3.28,1.48-3.28,3.28v4.1c0,1.8,1.48,3.28,3.28,3.28h2.05c1.8,0,3.43-1.08,4.31-3.28.02-.04,3.32-8.2,3.32-8.2.94-2.26,2.79-4.1,6.07-4.1h3.94c2.26,0,4.1,1.84,4.1,4.1v12.3c0,2.25-1.84,4.1-4.1,4.1v2.05s-.82,0-.82,0v-9.02s.82,0,.82,0v2.05c1.8,0,3.28-1.48,3.28-3.28v-4.1c0-1.8-1.48-3.28-3.28-3.28h-2.05c-1.84,0-3.46,1.08-4.35,3.28-.02.04-3.32,8.2-3.32,8.2-.78,2.3-2.83,4.1-6.11,4.1Z"/><path class="cls-2" d="m450.69,286.54v-.81s.82,0,.82,0c1.8,0,3.28-1.48,3.28-3.28v-3.69s-26.24,0-26.24,0v2.05s-.82,0-.82,0v-9.02s.82,0,.82,0v2.05s26.24,0,26.24,0v-3.69c0-1.8-1.48-3.28-3.28-3.28h-.82s0-.82,0-.82h4.92s0,20.5,0,20.5h-4.92Z"/><path class="cls-2" d="m454.79,288.18h.82s0,11.48,0,11.48h-.82s0-4.51,0-4.51h-22.96c-1.8,0-3.28,1.48-3.28,3.28v4.1c0,1.8,1.48,3.28,3.28,3.28h22.96s0-4.51,0-4.51h.82s0,11.48,0,11.48h-.82s0-2.05,0-2.05h-22.96c-2.26,0-4.1-1.85-4.1-4.1v-12.3c0-2.25,1.84-4.1,4.1-4.1h22.96s0-2.05,0-2.05Z"/><path class="cls-2" d="m410.06,122.75v-2.05s.82,0,.82,0v11.48s-.82,0-.82,0v-4.14s-18.94,7.17-18.94,7.17l15.66,5.95c1.97.74,3.28-.78,3.28-2.83v-4.51s.82,0,.82,0v11.48s-.82,0-.82,0v-2.05s-27.06-10.25-27.06-10.25l27.06-10.25Z"/><path class="cls-2" d="m410.06,161.29l-22.71-4.02c-2.21-.41-4.35-1.93-4.35-4.18s1.85-4.1,4.1-4.1h22.96s0-2.05,0-2.05h.82s0,9.02,0,9.02h-.82s0-2.05,0-2.05h-20.09c-2.05,0-2.87,2.5-.08,2.99l20.17,3.55v-2.86s.82,0,.82,0v7.38s-.82,0-.82,0v-2.86s-20.17,3.55-20.17,3.55c-2.79.49-1.97,3,.08,2.99h20.09s0-2.05,0-2.05h.82s0,9.02,0,9.02h-.82s0-2.05,0-2.05h-22.96c-2.25,0-4.1-1.85-4.1-4.1s2.13-3.77,4.35-4.18l22.71-4.02Z"/><path class="cls-2" d="m387.1,183.18c-1.97-1.19-3.28.78-3.28,2.83v2.75s-.82,0-.82,0v-11.48s.82,0,.82,0c0,0,0,2.62,0,2.62l11.07,7.75,15.17-7.89v-2.48s.82,0,.82,0v11.48s-.82,0-.82,0v-3.41s-10.58,5.52-10.58,5.52l7.3,5.11c1.97,1.19,3.28-.78,3.28-2.83v-2.75s.82,0,.82,0v11.48s-.82,0-.82,0v-2.62s-11.4-7.98-11.4-7.98l-14.84,7.73v2.87s-.82,0-.82,0v-11.48s.82,0,.82,0v3.04s10.29-5.36,10.29-5.36l-7.01-4.89Z"/><path class="cls-2" d="m410.06,221.23v-4.59s.82,0,.82,0v11.48s-.82,0-.82,0v-2.34s-16.81-7.5-16.81-7.5h-9.43s0,2.34,0,2.34h-.82s0-9.59,0-9.59h.82s0,2.34,0,2.34h9.43s16.81-7.7,16.81-7.7v-2.15s.82,0,.82,0v11.48s-.82,0-.82,0v-3.93s-15.21,7-15.21,7l11.93,5.33c1.97.74,3.28-.12,3.28-2.17Z"/><path class="cls-2" d="m384.35,238.2s-.53.57-.53,1.8v4.1c0,1.8,1.48,3.28,3.28,3.28v-2.05s.82,0,.82,0v9.02s-.82,0-.82,0v-2.05c-2.25,0-4.1-1.85-4.1-4.1v-12.3c0-2.25,1.85-4.1,4.1-4.1,1.56,0,2.67.98,2.67.98,0,0,6.76,5.71,6.76,5.7v-1.76s.82,0,.82,0v2.46s8.08,6.81,8.08,6.81c1.56,1.31,2.99,1.27,4.1-.08,0,0,.53-.57.53-1.8v-4.1c0-1.8-1.48-3.28-3.28-3.28v2.05s-.82,0-.82,0v-9.02s.82,0,.82,0v2.05c2.25,0,4.1,1.85,4.1,4.1v12.3c0,2.25-1.84,4.1-4.1,4.1-1.56,0-2.67-.98-2.67-.98,0,0-6.77-5.7-6.77-5.7v1.76s-.82,0-.82,0v-2.46s-8.08-6.81-8.08-6.81c-1.56-1.31-2.99-1.27-4.1.08Z"/><path class="cls-2" d="m360,78.98v14.35s-.82,0-.82,0v-2.05s-20.09,0-20.09,0v2.05s-.82,0-.82,0v-6.97s1.64,0,1.64,0c0,0-1.64-1.03-1.64-3.27v-8.2c0-2.26,1.85-4.1,4.1-4.1h9.43c2.25,0,4.1,1.84,4.1,4.1,2.25,0,4.1,1.84,4.1,4.1Zm-4.1,4.1c0,2.25-1.64,3.27-1.64,3.27h1.64c2.26,0,3.28-1.47,3.28-3.27v-4.1c0-1.8-1.48-3.28-3.28-3.28v7.38Zm-16.81,0c0,1.8,1.48,3.28,3.28,3.28h9.43c1.8,0,3.28-1.48,3.28-3.28v-4.1c0-1.8-1.48-3.28-3.28-3.28h-9.43c-1.8,0-3.28,1.48-3.28,3.28v4.1Z"/><path class="cls-2" d="m360,105.22v8.2c0,2.25-1.84,4.1-4.1,4.1h-13.53c-2.25,0-4.1-1.85-4.1-4.1v-8.2c0-2.26,1.64-3.27,1.64-3.27h-1.64s0-6.98,0-6.98h.82s0,2.05,0,2.05h26.24s0-2.05,0-2.05h.82s0,14.35,0,14.35h-.82s0-7.38,0-7.38h-6.97s1.64,1.02,1.64,3.28Zm-.82,4.1v-4.1c0-1.8-1.48-3.28-3.28-3.28h-13.53c-1.8,0-3.28,1.48-3.28,3.28v4.1c0,1.8,1.48,3.28,3.28,3.28h13.53c1.8,0,3.28-1.48,3.28-3.28Z"/><path class="cls-2" d="m359.99,135.56c0,2.25-1.84,4.1-4.1,4.1v2.05s-.82,0-.82,0v-9.02s.82,0,.82,0v2.05c1.8,0,3.28-1.48,3.28-3.28v-4.1c0-1.8-1.48-3.28-3.28-3.28h-13.53c-1.8,0-3.28,1.48-3.28,3.28v4.1c0,1.8,1.48,3.28,3.28,3.28v-2.05s.82,0,.82,0v9.02s-.82,0-.82,0v-2.05c-2.25,0-4.1-1.85-4.1-4.1v-12.3c0-2.26,1.85-4.1,4.1-4.1h13.53c2.25,0,4.1,1.84,4.1,4.1v12.3Z"/><path class="cls-2" d="m358.36,158.93h6.97s0-7.37,0-7.37h.82s0,14.35,0,14.35h-.82s0-2.05,0-2.05h-26.24s0,2.05,0,2.05h-.82s0-6.97,0-6.97h1.64s-1.64-1.03-1.64-3.28v-8.2c0-2.25,1.85-4.1,4.1-4.1h13.53c2.25,0,4.1,1.85,4.1,4.1v8.2c0,2.25-1.64,3.27-1.64,3.27Zm-2.46-10.65h-13.53c-1.8,0-3.28,1.48-3.28,3.28v4.1c0,1.8,1.48,3.28,3.28,3.28h13.53c1.8,0,3.28-1.48,3.28-3.28v-4.1c0-1.8-1.48-3.28-3.28-3.28Z"/><path class="cls-2" d="m339.08,175.73v8.21c0,1.8,1.48,3.28,3.28,3.28v.82c-2.25,0-4.1-1.85-4.1-4.1v-12.3c0-2.3,1.85-4.1,4.1-4.1h13.53c2.25,0,4.1,1.85,4.1,4.1v12.3c0,2.25-1.84,4.1-4.1,4.1h-9.43c-2.05,0-4.1-1.85-4.1-4.1v-8.21c0-2.25,1.72-3.27,1.72-3.27h-1.72c-1.8,0-3.28,1.48-3.28,3.27Zm20.09,0c0-1.8-1.48-3.28-3.28-3.28h-9.43c-1.6,0-3.28,1.48-3.28,3.28v4.1c0,1.8,1.68,3.28,3.28,3.28h9.43c1.8,0,3.28-1.48,3.28-3.27v-4.11Z"/><path class="cls-2" d="m366.14,195.83v2.87s-.82,0-.82,0v-2.05s-12.71,0-12.71,0v2.05s-.82,0-.82,0v-2.05s-12.71,0-12.71,0v2.05s-.82,0-.82,0v-9.02s.82,0,.82,0v2.05s12.71,0,12.71,0v-2.05s.82,0,.82,0v2.05s9.43,0,9.43,0c2.25,0,4.1,1.84,4.1,4.1Z"/><path class="cls-2" d="m334.98,208.54s0,4.1,0,4.1c0,1.8,1.48,3.28,3.28,3.28h3.69s-1.64-1.03-1.64-3.28v-8.2c0-2.25,2.05-4.1,4.1-4.1h11.48c2.25,0,4.1,1.84,4.1,4.1v18.45s-.82,0-.82,0v-2.05s-3.28,0-3.28,0h-17.63c-2.25,0-4.1-1.85-4.1-4.1v-8.2c0-2.26,1.84-4.1,4.1-4.1v.82c-1.8,0-3.28,1.48-3.28,3.28Zm24.19,4.1v-4.1c0-1.8-1.48-3.28-3.28-3.28h-11.48c-2.05,0-3.28,1.48-3.28,3.28v4.1c0,1.8,1.23,3.28,3.28,3.28h11.48c1.8,0,3.28-1.48,3.28-3.28Z"/><path class="cls-2" d="m359.99,234.78v8.2c0,2.25-1.84,4.1-4.1,4.1h-16.81s0,2.05,0,2.05c0,0-.82,0-.82,0v-11.48s.82,0,.82,0v4.51s16.81,0,16.81,0c1.8,0,3.28-1.48,3.28-3.28v-4.1c0-1.8-1.48-3.28-3.28-3.28h-16.81s0,4.51,0,4.51h-.82s0-11.48,0-11.48h.82s0,2.05,0,2.05h26.24s0-2.05,0-2.05h.82s0,6.15,0,6.15v5.33s-.82,0-.82,0v-4.51s-6.97,0-6.97,0c0,0,1.64,1.02,1.64,3.27Z"/><path class="cls-2" d="m359.17,253.03v-2.05s.82,0,.82,0v9.02s-.82,0-.82,0v-2.05s-20.09,0-20.09,0v2.05s-.82,0-.82,0v-9.02s.82,0,.82,0v2.05s20.09,0,20.09,0Zm4.51,0c-1.35,0-2.46,1.11-2.46,2.46s1.11,2.46,2.46,2.46,2.46-1.11,2.46-2.46-1.11-2.46-2.46-2.46Z"/><path class="cls-2" d="m359.99,262.45v9.02s-.82,0-.82,0v-2.05s-20.91,0-20.91,0c-2.25,0-4.1-1.84-4.1-4.1s1.84-4.3,4.1-4.3,4.06,1.85,4.06,3.48h16.85s0-2.05,0-2.05h.82Zm-18.53,2.05c0-1.19-1.39-2.67-3.2-2.67-2.05,0-2.83,2.46-1.23,2.66h4.43Zm24.68,2.46c0,1.35-1.11,2.46-2.46,2.46s-2.46-1.11-2.46-2.46,1.11-2.46,2.46-2.46,2.46,1.11,2.46,2.46Z"/><path class="cls-2" d="m346.18,280.08h-7.09s0,2.5,0,2.5h-.82s0-9.47,0-9.47h.82s0,2.05,0,2.05h26.24s0-2.05,0-2.05h.82s0,9.02,0,9.02h-.82s0-2.05,0-2.05h-17.83s8.41,6.68,8.41,6.68c1.76,1.43,3.28,1.68,3.28-.21v-2.13s.82,0,.82,0v7.95s-.82,0-.82,0v-1.97s-7.63-6.06-7.63-6.06l-12.46,7.22v2.04s-.82.01-.82.01v-10.21s.81,0,.81,0v2.5s8.36-4.82,8.36-4.82l-1.27-1.01Z"/><path class="cls-2" d="m365.32,297.3v-2.05s.82,0,.82,0v9.02s-.82,0-.82,0v-2.05s-26.24,0-26.24,0v2.05s-.82,0-.82,0v-9.02s.82,0,.82,0v2.05s26.24,0,26.24,0Z"/><path class="cls-2" d="m294.35,86.26v3.28s-.82,0-.82,0v-7.38s.82,0,.82,0v3.28s20.09,0,20.09,0v-3.69c0-1.8-1.48-3.28-3.28-3.28h-16.81s0,2.05,0,2.05h-.82s0-9.02,0-9.02h.82s0,2.05,0,2.05h16.81c2.25,0,4.1,1.85,4.1,4.1v16.4c0,2.25-1.84,4.1-4.1,4.1h-16.81s0,2.05,0,2.05h-.82s0-9.02,0-9.02h.82s0,2.05,0,2.05h16.81c1.8,0,3.28-1.48,3.28-3.28v-3.69s-20.09,0-20.09,0Z"/><path class="cls-2" d="m294.35,103.89h16.81c2.25,0,4.1,1.84,4.1,4.1v12.3c0,2.25-1.84,4.1-4.1,4.1h-16.81s0,2.05,0,2.05h-.82s0-11.48,0-11.48h.82s0,4.51,0,4.51h16.81c1.8,0,3.28-1.48,3.28-3.08v-4.3c0-1.8-1.48-3.28-3.28-3.28h-16.81s0,4.51,0,4.51h-.82s0-11.48,0-11.48h.82s0,2.05,0,2.05Z"/><path class="cls-2" d="m294.35,130.13h16.81c2.25,0,4.1,1.84,4.1,4.1v12.3c0,2.25-1.84,4.1-4.1,4.1h-16.81s0,2.05,0,2.05h-.82s0-11.48,0-11.48h.82s0,4.51,0,4.51h16.81c1.8,0,3.28-1.48,3.28-3.08v-4.3c0-1.8-1.48-3.28-3.28-3.28h-16.81s0,4.51,0,4.51h-.82s0-11.48,0-11.48h.82s0,2.05,0,2.05Zm23.78,4.92h-.82s0,10.66,0,10.66h.82s0-10.66,0-10.66Z"/><path class="cls-2" d="m315.26,158.42v12.3c0,2.25-1.84,4.1-4.1,4.1h-13.53c-2.25,0-4.1-1.85-4.1-4.1v-12.3c0-2.25,1.85-4.1,4.1-4.1h13.53c2.25,0,4.1,1.85,4.1,4.1Zm-17.63.82c-1.8,0-3.28,1.48-3.28,3.28v4.1c0,1.8,1.48,3.28,3.28,3.28h13.53c1.8,0,3.28-1.48,3.28-3.28v-4.1c0-1.8-1.48-3.28-3.28-3.28h-13.53Z"/><path class="cls-2" d="m295.17,183.43h-4.92s0,7.37,0,7.37h-.82s0-14.35,0-14.35h.82s0,2.05,0,2.05h24.19s0-2.05,0-2.05h.82s0,6.97,0,6.97h-1.64s1.64,1.02,1.64,3.28v8.2c0,2.25-1.84,4.1-4.1,4.1h-13.53c-2.25,0-4.1-1.85-4.1-4.1v-8.2c0-2.26,1.64-3.27,1.64-3.27Zm2.46,10.65h13.53c1.8,0,3.28-1.48,3.28-3.28v-4.1c0-1.8-1.48-3.28-3.28-3.28h-13.53c-1.8,0-3.28,1.48-3.28,3.28v4.1c0,1.8,1.48,3.28,3.28,3.28Z"/><path class="cls-2" d="m293.53,223.2v-2.05s-3.28,0-3.28,0v2.05s-.82,0-.82,0v-14.35s.82,0,.82,0v7.38s3.28,0,3.28,0v-11.48c0-2.25,1.85-4.1,4.1-4.1h13.53c2.25,0,4.1,1.85,4.1,4.1v8.2c0,2.25-1.64,3.27-1.64,3.27h1.64s0,6.98,0,6.98h-.82s0-2.05,0-2.05h-20.09s0,2.05,0,2.05h-.82Zm.82-6.97h16.81c1.8,0,3.28-1.48,3.28-3.28v-4.1c0-1.8-1.48-3.28-3.28-3.28h-13.53c-1.8,0-3.28,1.48-3.28,3.28v7.38Z"/><path class="cls-2" d="m311.16,239.19v-.82c1.8,0,3.28-1.48,3.28-3.28s-1.48-3.28-3.28-3.28h-16.81s0,2.05,0,2.05h-.82s0-9.02,0-9.02h.82s0,2.05,0,2.05h20.09s0-2.05,0-2.05h.82s0,6.97,0,6.97h-1.64s1.64,1.02,1.64,3.28-1.84,4.1-4.1,4.1Z"/><path class="cls-2" d="m298.45,263.38h-.82c-2.3,0-4.1-1.84-4.1-4.1v-12.3c0-2.25,1.85-4.1,4.1-4.1v-2.05s.82,0,.82,0v9.02s-.82,0-.82,0v-2.05c-1.8,0-3.28,1.48-3.28,3.28v4.1c0,1.8,1.48,3.28,3.28,3.28s2.58-1.48,3.32-3.28c0-.04,3.32-8.2,3.32-8.2.94-2.26,2.79-4.1,6.07-4.1h.82c2.26,0,4.1,1.84,4.1,4.1v12.3c0,2.25-1.84,4.1-4.1,4.1v2.05s-.82,0-.82,0v-9.02s.82,0,.82,0v2.05c1.8,0,3.28-1.48,3.28-3.28v-4.1c0-1.8-1.48-3.28-3.28-3.28s-2.54,1.48-3.28,3.28c-.02.04-3.32,8.2-3.32,8.2-.78,2.3-2.83,4.1-6.11,4.1Z"/><path class="cls-2" d="m294.48,274.04c0,.98,1.65,2.46,3.16,2.46v.82c-2.26,0-4.1-1.84-4.1-4.1s1.85-4.1,4.1-4.1h9.43s0-2.05,0-2.05h.82s0,2.05,0,2.05h12.71s0-2.05,0-2.05h.82s0,9.02,0,9.02h-.82s0-2.05,0-2.05h-12.71s0,2.05,0,2.05h-.82s0-2.05,0-2.05h-12.59Z"/><path class="cls-2" d="m314.44,278.96h.82s0,11.48,0,11.48h-.82s0-4.51,0-4.51h-16.81c-1.8,0-3.28,1.48-3.28,3.28v4.1c0,1.8,1.48,3.28,3.28,3.28h16.81s0-4.51,0-4.51h.82s0,11.48,0,11.48h-.82s0-2.05,0-2.05h-16.81c-2.25,0-4.1-1.85-4.1-4.1v-12.3c0-2.25,1.85-4.1,4.1-4.1h16.81s0-2.05,0-2.05Z"/><path class="cls-2" d="m248.8,133l20.91-10.25v-2.05s.82,0,.82,0v11.48s-.82,0-.82,0v-3.94s-14.39,7.05-14.39,7.05c0,0,11.11,5.45,11.11,5.45,1.97.98,3.28-.37,3.28-2.42v-4.51s.82,0,.82,0v11.48s-.82,0-.82,0v-2.05s-20.91-10.25-20.91-10.25Z"/><path class="cls-2" d="m249.62,161.7v3.69c0,1.8,1.48,3.28,3.28,3.28h16.81s0-2.05,0-2.05h.82s0,9.02,0,9.02h-.82s0-2.05,0-2.05h-16.81c-2.25,0-4.1-1.85-4.1-4.1v-16.4c0-2.25,1.85-4.1,4.1-4.1h16.81s0-2.05,0-2.05h.82s0,9.02,0,9.02h-.82s0-2.05,0-2.05h-16.81c-1.8,0-3.28,1.48-3.28,3.28v3.69s20.09,0,20.09,0v-3.28s.82,0,.82,0v7.38s-.82,0-.82,0v-3.28s-20.09,0-20.09,0Z"/><path class="cls-2" d="m252.9,184.09c-1.8-1.65-3.28.36-3.28,2.41v2.26s-.82,0-.82,0v-11.48s.82,0,.82,0v2.79s8.49,7.58,8.49,7.58l11.6-7.77v-2.6s.82,0,.82,0v11.48s-.82,0-.82,0v-2.94s-7.79,5.22-7.79,5.22l4.51,4.03c1.8,1.64,3.28-.37,3.28-2.42v-2.26s.82,0,.82,0v11.48s-.82,0-.82,0v-2.79s-8.49-7.57-8.49-7.57l-11.6,7.76v2.6s-.82,0-.82,0v-11.48s.82,0,.82,0v2.93s7.79-5.21,7.79-5.21l-4.51-4.02Z"/><path class="cls-2" d="m269.71,216.64h.82s0,11.48,0,11.48h-.82s0-2.05,0-2.05h-20.91c-2.25,0-4.1-1.85-4.1-4.1v-8.2c0-2.26,1.84-4.1,4.1-4.1v.82c-1.8,0-3.28,1.48-3.28,3.28,0,0,0,4.1,0,4.1,0,1.8,1.48,3.28,3.28,3.28h3.69s-1.64-1.03-1.64-3.28v-8.2c0-2.26,2.05-4.1,4.1-4.1h14.76s0-2.05,0-2.05h.82s0,11.48,0,11.48h-.82s0-4.51,0-4.51h-14.76c-2.05,0-3.28,1.48-3.28,3.28v4.1c0,1.8,1.23,3.28,3.28,3.28h14.76s0-4.51,0-4.51Z"/><path class="cls-2" d="m252.9,238.78c-1.8-1.64-3.28.41-3.28,2.46v2.87c0,1.8,1.48,3.28,3.28,3.28v-2.05s.82,0,.82,0v9.02s-.82,0-.82,0v-2.05c-2.25,0-4.1-1.85-4.1-4.1v-12.3c0-2.26,3.61-4.55,5.74-2.46l4.71,4.71v-1.44s.82,0,.82,0v2.25s6.36,6.36,6.36,6.36c1.8,1.64,3.28-.41,3.28-2.46v-2.87c0-1.8-1.48-3.28-3.28-3.28v2.05s-.82,0-.82,0v-9.02s.82,0,.82,0v2.05c2.25,0,4.1,1.85,4.1,4.1v12.3c0,2.25-3.61,4.55-5.74,2.46l-4.71-4.71v1.44s-.82,0-.82,0v-2.25s-6.35-6.36-6.35-6.36Z"/><path class="cls-2" d="m227.85,79.07h-22.96s0,2.05,0,2.05h-.82s0-9.02,0-9.02h.82s0,2.05,0,2.05h26.24s0-2.05,0-2.05h.82s0,2.87,0,2.87c0,2.25-1.85,4.1-4.1,4.1Z"/><path class="cls-2" d="m231.13,93.02c0-1.8-1.48-3.28-3.28-3.28v2.05s-.82,0-.82,0v-9.02s.82,0,.82,0v2.05c2.25,0,4.1,1.85,4.1,4.1v9.23c0,3.98-3.2,7.17-7.18,7.17s-7.17-3.2-7.17-7.17v-5.12c0-1.8-1.48-3.28-3.28-3.28h-6.15c-1.8,0-3.28,1.48-3.28,3.28v4.1c0,1.8,1.48,3.28,3.28,3.28v-2.05s.82,0,.82,0v9.02s-.82,0-.82,0v-2.05c-2.25,0-4.1-1.85-4.1-4.1v-12.3c0-2.26,1.84-4.1,4.1-4.1h6.15c2.26,0,4.1,1.84,4.1,4.1v5.12c0,3.49,2.83,6.35,6.35,6.36s6.36-2.86,6.36-6.35v-1.02Z"/><path class="cls-2" d="m218.01,129.27s-1.07,2.3-3.69,2.3h-6.15c-2.25,0-4.1-1.82-4.1-4.1v-12.3c0-2.28,1.85-4.1,4.1-4.1h2.87s0-2.05,0-2.05h.82s0,9.02,0,9.02h-.82s0-2.05,0-2.05h-2.87c-1.8,0-3.28,1.48-3.28,3.28v4.1c0,1.8,1.48,3.28,3.28,3.28h6.15c1.8,0,3.28-1.48,3.28-3.28v-4.1s.82,0,.82,0v4.1c0,1.8,1.48,3.28,3.28,3.28h6.15c1.8,0,3.28-1.48,3.28-3.28v-4.1c0-1.8-1.48-3.28-3.28-3.28h-2.5s0,2.05,0,2.05h-.82s0-9.01,0-9.01h.82s0,2.04,0,2.04h2.5c2.25,0,4.1,1.84,4.1,4.1v12.3c0,2.26-1.85,4.1-4.1,4.1h-6.15c-2.62,0-3.69-2.3-3.69-2.3Z"/><path class="cls-2" d="m213.91,139.35c0-2.26,1.84-4.1,4.1-4.1h13.12s0-2.05,0-2.05h.82s0,9.02,0,9.02h-.82s0-2.05,0-2.05h-13.12c-1.8,0-3.28,1.48-3.28,3.28v4.1c0,1.8,1.48,3.28,3.28,3.28h13.12s0-2.05,0-2.05h.82s0,9.02,0,9.02h-.82s0-2.05,0-2.05h-26.24s0,2.05,0,2.05h-.82s0-9.02,0-9.02h.82s0,2.05,0,2.05h9.02s0-11.48,0-11.48Z"/><path class="cls-2" d="m204.07,174.82v-9.23c0-2.25,1.85-4.1,4.1-4.1v-2.05s.82,0,.82,0v9.02s-.82,0-.82,0v-2.05c-1.8,0-3.28,1.48-3.28,3.28v1.02c0,3.49,2.83,6.35,6.36,6.36h3.69c3.53,0,6.36-2.87,6.36-6.35v-5.12c0-2.26,1.84-4.1,4.1-4.1h2.46c2.26,0,4.1,1.84,4.1,4.1v12.3c0,2.25-1.85,4.1-4.1,4.1v2.05s-.82,0-.82,0v-9.02s.82,0,.82,0v2.05c1.8,0,3.28-1.48,3.28-3.28v-4.1c0-1.8-1.48-3.28-3.28-3.28h-2.46c-1.8,0-3.28,1.48-3.28,3.28v5.12c0,3.98-3.2,7.17-7.17,7.17h-3.69c-3.98,0-7.18-3.2-7.18-7.17Z"/><path class="cls-2" d="m222.11,202.08c0,2.25-1.84,4.1-4.1,4.1h-9.84c-2.25,0-4.1-1.85-4.1-4.1v-12.3c0-2.25,1.85-4.1,4.1-4.1h19.68c2.25,0,4.1,1.85,4.1,4.1v12.3c0,2.25-1.85,4.1-4.1,4.1v2.05s-.82,0-.82,0v-9.02s.82,0,.82,0v2.05c1.8,0,3.28-1.48,3.28-3.28v-4.1c0-1.8-1.48-3.28-3.28-3.28h-7.38s1.64,1.03,1.64,3.28v8.2Zm-17.22-8.2v4.1c0,1.8,1.48,3.28,3.28,3.28h9.84c1.8,0,3.28-1.48,3.28-3.28v-4.1c0-1.8-1.48-3.29-3.28-3.29h-9.84c-1.8,0-3.28,1.48-3.28,3.29Z"/><path class="cls-2" d="m204.89,222.5v2.75s-.82,0-.82,0v-11.48s.82,0,.82,0v3.4s16.4,6.23,16.4,6.23v-3.28s.82,0,.82,0v3.56s9.02,3.44,9.02,3.44v-7.01c0-1.8-1.48-3.28-3.28-3.28v2.05s-.82,0-.82,0v-9.02s.82,0,.82,0v2.05c2.25,0,4.1,1.85,4.1,4.1v18.45s-.82,0-.82,0v-2.05s-26.24-9.92-26.24-9.92Z"/><path class="cls-2" d="m214.32,236.11c2.62,0,3.69,2.3,3.69,2.3,0,0,1.07-2.3,3.69-2.3h6.15c2.25,0,4.1,1.82,4.1,4.1v12.3c0,2.28-1.85,4.1-4.1,4.1h-6.15c-2.62,0-3.69-2.3-3.69-2.3,0,0-1.07,2.3-3.69,2.3h-6.15c-2.25,0-4.1-1.85-4.1-4.1v-12.3c0-2.25,1.85-4.1,4.1-4.1h6.15Zm4.1,8.2v4.1c0,1.8,1.48,3.28,3.28,3.28h6.15c1.8,0,3.28-1.48,3.28-3.28v-4.1c0-1.8-1.48-3.28-3.28-3.28h-6.15c-1.8,0-3.28,1.48-3.28,3.28Zm-13.53,0v4.1c0,1.8,1.48,3.28,3.28,3.28h6.15c1.8,0,3.28-1.48,3.28-3.28v-4.1c0-1.8-1.48-3.28-3.28-3.28h-6.15c-1.8,0-3.28,1.48-3.28,3.28Z"/><path class="cls-2" d="m208.17,260.3v-2.05s.82,0,.82,0v9.02s-.82,0-.82,0v-2.05c-1.8,0-3.28,1.48-3.28,3.28v4.1c0,1.8,1.48,3.28,3.28,3.28h2.46c1.84,0,3.28-1.48,3.28-3.28v-8.2c0-2.26,1.84-4.1,4.1-4.1h9.84c2.26,0,4.1,1.84,4.1,4.1v12.3c0,2.25-1.85,4.1-4.1,4.1h-19.68c-2.25,0-4.1-1.85-4.1-4.1v-12.1c0-2.46,1.85-4.3,4.1-4.31Zm9.84,15.58h9.84c1.8,0,3.28-1.48,3.28-3.28v-4.1c0-1.8-1.48-3.28-3.28-3.28h-9.84c-1.8,0-3.28,1.48-3.28,3.28v4.1c0,1.8,1.48,3.28,3.28,3.28Z"/><path class="cls-2" d="m214.32,302.94c-5.66,0-10.25-4.59-10.25-10.25s4.59-10.25,10.25-10.25h7.38c5.66,0,10.25,4.59,10.25,10.25s-4.59,10.25-10.25,10.25h-7.38Zm-4.06-15.58c-2.95,0-5.37,2.38-5.37,5.33s2.42,5.33,5.37,5.33h15.5c2.95,0,5.37-2.38,5.37-5.33s-2.42-5.33-5.37-5.33h-15.5Z"/><path class="cls-2" d="m162.21,52.57v4.92c-3.77,0-6.97-3.26-6.97-7.17v-6.15c0-3.98,3.2-7.18,7.17-7.18s7.17,3.2,7.17,7.18h6.97s0,4.92,0,4.92h-7.79s0-.82,0-.82c0-3.49-2.83-6.35-6.36-6.36s-6.35,2.25-6.35,5.33,2.83,5.33,6.15,5.33Zm18.45-3.48c1.35,0,2.46-1.11,2.46-2.46s-1.11-2.46-2.46-2.46-2.46,1.11-2.46,2.46,1.11,2.46,2.46,2.46Z"/><path class="cls-2" d="m180.25,57.95v-4.92c3.77,0,6.97,3.26,6.97,7.17v6.15c0,3.98-3.2,7.18-7.18,7.18s-7.17-3.2-7.17-7.18h-6.97s0-4.92,0-4.92h7.79s0,.82,0,.82c0,3.49,2.83,6.36,6.35,6.36s6.36-2.26,6.36-5.33-2.83-5.33-6.15-5.33Zm-18.45,3.48c-1.35,0-2.46,1.11-2.46,2.46s1.11,2.46,2.46,2.46,2.46-1.11,2.46-2.46-1.11-2.46-2.46-2.46Z"/><path class="cls-2" d="m180.66,75.66c1.35,0,2.46,1.11,2.46,2.46s-1.11,2.46-2.46,2.46-2.46-1.11-2.46-2.46,1.11-2.46,2.46-2.46Zm-22.96,4.92c-1.35,0-2.46-1.11-2.46-2.46s1.11-2.46,2.46-2.46c1.43,0,18.86,2.05,18.86,2.05v.82s-17.43,2.05-18.86,2.05Z"/><path class="cls-2" d="m165.9,87.55v-.82s17.43-2.05,18.86-2.05c1.35,0,2.46,1.11,2.46,2.46s-1.11,2.46-2.46,2.46c-1.43,0-18.86-2.05-18.86-2.05Zm-1.64-.41c0,1.35-1.11,2.46-2.46,2.46s-2.46-1.11-2.46-2.46,1.11-2.46,2.46-2.46,2.46,1.11,2.46,2.46Z"/><path class="cls-2" d="m174.39,111.74c5.46,0,8.25-3.85,8.25-8.11,0-5.47-4.29-10.34-10.55-10.34-5.26,0-8.6,3.57-8.6,8.53,0,2.19.92,5.07,2.38,7.05l-.8.4c-1.79-2.63-2.41-5.37-2.41-7.53,0-4.8,3.06-9.27,9.4-9.27,7.15,0,11.41,5.69,11.41,11.25,0,5.12-3.64,8.84-9.03,8.84-4.9,0-7.13-3.1-7.13-5.7s1.97-2.67,1.97-2.67c-2.05-.98-1.98-2.83-1.98-3.33,0-2.46,2.1-3.82,4.36-3.82,3.44,0,6.88,2.39,6.88,5.59,0,2.13-2.13,2.54-2.13,2.54l1.67.46v2.19s-5.36-1.14-7.15-1.36c-1.15-.14-2.8-.23-2.8.92,0,1.92,2.25,4.34,6.27,4.34Zm-1.72-7.13c2.54.45,5.04.16,5.04-1.54,0-2.07-3.41-3.47-5.9-3.47-2,0-3.69.96-3.69,2.06,0,1.94,2.37,2.57,4.55,2.95Z"/><path class="cls-2" d="m178.53,125.64s-5.49,0-5.49-4.84,5.45-4.96,5.45-4.96h2.34s5.54,0,5.54,4.96-5.54,4.84-5.54,4.84h-2.3Zm7.83,10.7v-1.02s-25.83-19.48-25.83-19.48v1.03s25.83,19.48,25.83,19.48Zm-7.26-17.59s-5.24,0-5.25,2.05c0,1.97,5.25,2.05,5.25,2.05h1.11s5.33-.02,5.33-2.05-5.33-2.05-5.33-2.05h-1.11Zm-13.08,17.59s-5.49,0-5.49-4.84,5.45-4.96,5.45-4.96h2.34s5.54,0,5.54,4.96-5.54,4.84-5.54,4.84h-2.3Zm.57-6.89s-5.24,0-5.25,2.05c0,1.97,5.25,2.05,5.25,2.05h1.11s5.33-.02,5.33-2.05-5.33-2.05-5.33-2.05h-1.11Z"/><path class="cls-2" d="m172.87,153.56v-2.05s.82,0,.82,0v9.02s-.82,0-.82,0v-2.05s-10.87-2.46-10.87-2.46l-4.71,2.46v-5.7s2.05-1.07,2.05-1.07v-9.64c0-2.25,1.84-4.1,4.1-4.1h5.45c3.85,0,4.39,2.27,5.9,5.78l2.58-1.35c1.6-.74,3.14-1.56,5.73-1.56,2.26,0,4.11,1.85,4.11,4.1v6.56c0,2.25-1.86,4.1-4.11,4.1-2.57,0-4.74-1.44-7.04-7.01l-7.63,4,4.43.96Zm1.15-9.43c-.57-1.03-2.46-1.23-5.12-1.23h-5.45c-1.8,0-3.28,1.48-3.28,3.28v2.05c0,1.31,1.27,2.36,1.27,2.36l12.59-6.46Zm9.09,6.56c1.8,0,3.29-.66,3.29-2.46s-1.49-2.46-3.29-2.46c-2.08,0-6.3,2.46-6.3,2.46,1.27,2.71,4.46,2.46,6.3,2.46Z"/><path class="cls-2" d="m159.34,174.06v-5.74c0-2.25,1.85-4.1,4.1-4.1v-2.05s.82,0,.82,0v9.02s-.82,0-.82,0v-2.05c-1.8,0-3.28,1.48-3.28,3.28v1.64s10.62,0,10.62,0l2.34-5.74c.94-2.26,2.79-4.1,6.07-4.1h3.94c2.26,0,4.1,1.84,4.1,4.1v5.74s2.46,0,2.46,0v.82s-2.46,0-2.46,0v5.74c0,2.25-1.85,4.1-4.1,4.1v2.05s-.82,0-.82,0v-9.02s.82,0,.82,0v2.05c1.8,0,3.28-1.48,3.28-3.28v-1.64s-10.67,0-10.67,0l-2.33,5.74c-.78,2.3-2.83,4.1-6.11,4.1h-3.85c-2.3,0-4.1-1.84-4.1-4.1v-5.74s-2.46,0-2.46,0v-.82s2.46,0,2.46,0Zm16.72,0h10.34s0-1.64,0-1.64c0-1.8-1.48-3.28-3.28-3.28h-2.05c-1.84,0-3.46,1.08-4.35,3.28,0,.01-.66,1.64-.66,1.64Zm-15.9.82v1.64c0,1.8,1.48,3.28,3.28,3.28h2.05c1.8,0,3.43-1.08,4.3-3.28l.66-1.64h-10.29Z"/><path class="cls-2" d="m175.13,202.76h-.82s0-7.38,0-7.38h-2.05s0,7.38,0,7.38h-.82s0-7.38,0-7.38h-8c-1.8,0-3.28,1.48-3.28,3.28v4.1c0,1.8,1.48,3.28,3.28,3.28v-2.05s.82,0,.82,0v9.02s-.82,0-.82,0v-2.05c-2.25,0-4.1-1.85-4.1-4.1v-12.3c0-2.26,1.85-4.1,4.1-4.1h8s0-2.05,0-2.05h.82s0,2.05,0,2.05h2.05s0-2.05,0-2.05h.82s0,2.05,0,2.05h8c2.25,0,4.1,1.84,4.1,4.1v12.3c0,2.25-1.85,4.1-4.1,4.1v2.05s-.82,0-.82,0v-9.02s.82,0,.82,0v2.05c1.8,0,3.28-1.48,3.28-3.28v-4.1c0-1.8-1.48-3.28-3.28-3.28h-8s0,7.38,0,7.38Z"/><path class="cls-2" d="m165.08,229.41h-4.92s0,2.34,0,2.34h-.82s0-9.59,0-9.59h.82s0,2.34,0,2.34h4.92s0-2.87,0-2.87h.82s0,2.87,0,2.87h1.64s0-2.87,0-2.87h.82s0,2.87,0,2.87h1.23s16.81-7.7,16.81-7.7v-2.15s.82,0,.82,0v11.48s-.82,0-.82,0v-3.93s-15.21,7-15.21,7l11.93,5.33c1.97.74,3.28-.12,3.28-2.17v-4.59s.82,0,.82,0v11.48s-.82,0-.82,0v-2.34s-16.81-7.5-16.81-7.5h-1.23s0,2.87,0,2.87h-.82s0-2.87,0-2.87h-1.64s0,2.87,0,2.87h-.82s0-2.87,0-2.87Z"/><path class="cls-2" d="m183.12,263.44v2.05s-.82,0-.82,0v-9.02s.82,0,.82,0v2.05c1.8,0,3.28-1.48,3.28-3.28v-1.03c0-3.49-2.83-6.35-6.36-6.36-1.97,0-8.53,1.76-10.04,2.21v5.17s-.82,0-.82,0v-4.97c-1.27.3-4.32.87-5.74.87-2.25,0-3.28-1.65-3.28-1.65v13.95s-.82,0-.82,0v-22.55s.82,0,.82,0v2.05c0,1.8,1.48,3.28,3.28,3.28,1.28,0,5.74-1.05,5.74-1.05v-4.28s.82,0,.82,0v4.07s8.04-2.02,10.04-2.02c3.98,0,7.18,3.2,7.18,7.17v9.23c0,2.25-1.85,4.1-4.1,4.1Z"/><path class="cls-2" d="m158.6,277.52c-.04.1-.53,1-1.6,1-.98,0-1.76-.78-1.76-1.76s.78-1.76,1.76-1.76v.82c-.53,0-.94.41-.94.94s.41.94.94.94c.74,0,.9-.62,1.04-1.18l1.3.35v-5.65c0-2.26,1.85-4.1,4.1-4.1h19.68c2.25,0,4.1,1.84,4.1,4.1v12.3c0,2.25-1.85,4.1-4.1,4.1v2.05s-.82,0-.82,0v-9.02s.82,0,.82,0v2.05c1.8,0,3.28-1.48,3.28-3.28v-4.1c0-1.8-1.48-3.28-3.28-3.28h-19.68c-1.8,0-3.28,1.48-3.28,3.28v4.1c0,1.8,1.48,3.28,3.28,3.28v-2.05s.82,0,.82,0v9.02s-.82,0-.82,0v-2.05c-2.25,0-4.1-1.85-4.1-4.1v-5.8s-.74-.2-.74-.2Z"/><path class="cls-2" d="m158.6,301.71c-.04.1-.53,1-1.6,1-.98,0-1.76-.78-1.76-1.76s.78-1.76,1.76-1.76v.82c-.53,0-.94.41-.94.94s.41.94.94.94c.74,0,.9-.62,1.04-1.18l1.3.35v-5.65c0-2.26,1.85-4.1,4.1-4.1h13.53c2.25,0,4.1,1.84,4.1,4.1v12.3c0,2.25-1.84,4.1-4.1,4.1v2.05s-.82,0-.82,0v-9.02s.82,0,.82,0v2.05c1.8,0,3.28-1.48,3.28-3.28v-4.1c0-1.8-1.48-3.28-3.28-3.28h-13.53c-1.8,0-3.28,1.48-3.28,3.28v4.1c0,1.8,1.48,3.28,3.28,3.28v-2.05s.82,0,.82,0v9.02s-.82,0-.82,0v-2.05c-2.25,0-4.1-1.85-4.1-4.1v-5.8s-.74-.2-.74-.2Z"/><path class="cls-2" d="m160.16,327.81c0,1.8,1.48,3.28,3.28,3.28v-2.05s.82,0,.82,0v9.02s-.82,0-.82,0v-2.05c-2.25,0-4.1-1.85-4.1-4.1v-5.74s-2.05,0-2.05,0v-.82s2.05,0,2.05,0v-5.74c0-2.26,1.85-4.1,4.1-4.1h13.53c2.25,0,4.1,1.84,4.1,4.1v5.74s2.05,0,2.05,0v.82s-2.05,0-2.05,0v5.74c0,2.25-1.84,4.1-4.1,4.1v2.05s-.82,0-.82,0v-9.02s.82,0,.82,0v2.05c1.8,0,3.28-1.48,3.28-3.28v-1.64s-20.09,0-20.09,0v1.64Zm20.09-2.46v-1.64c0-1.8-1.48-3.28-3.28-3.28h-13.53c-1.8,0-3.28,1.48-3.28,3.28v1.64s20.09,0,20.09,0Z"/><path class="cls-2" d="m114.82,112.44c1.97,0,8.9.01,10.87,0,1.64,0,2.87-2.67,2.87-2.67,0,0,1.23,2.67,2.87,2.67,1.97,0,8.9,0,10.87,0,3.28,0,3.08,4.1,3.08,4.55h-.82c0-2.09-.78-3.73-2.25-3.73h-10.87c-1.64,0-2.87-1.69-2.87-1.69,0,0-1.23,1.7-2.87,1.69-1.97-.01-8.9,0-10.87,0-1.48,0-2.25,1.64-2.25,3.73h-.82c0-.45-.2-4.55,3.08-4.55Z"/><path class="cls-2" d="m111.74,131.34h33.62s0,4.72,0,4.72h-.82s0-3.9,0-3.9h-31.98s0,3.89,0,3.89h-.82s0-4.72,0-4.72Z"/><path class="cls-2" d="m128.55,150.4c12.59,0,16.81,7.63,16.81,7.63v1.26s-4.72-8.07-16.81-8.07-16.81,8.07-16.81,8.07v-1.26s4.22-7.63,16.81-7.63Z"/><path class="cls-2" d="m111.74,174.91v-1.26s4.72,8.07,16.81,8.07,16.81-8.07,16.81-8.07v1.26s-4.22,7.63-16.81,7.63c-12.59,0-16.81-7.63-16.81-7.63Z"/><path class="cls-2" d="m111.74,196.07h.82s0,3.9,0,3.9h31.98s0-3.89,0-3.89h.82s0,4.71,0,4.71h-33.62s0-4.72,0-4.72Z"/><path class="cls-2" d="m111.74,215.14h.82c0,2.09.78,3.73,2.25,3.73,1.97,0,8.9.01,10.87,0,1.64-.01,2.87,1.69,2.87,1.69,0,0,1.23-1.69,2.87-1.69h10.87c1.48,0,2.25-1.64,2.25-3.73h.82c0,.45.21,4.55-3.08,4.55-1.97,0-8.9,0-10.87,0-1.64,0-2.87,2.66-2.87,2.66,0,0-1.23-2.66-2.87-2.66-1.97-.01-8.9,0-10.87,0-3.28,0-3.08-4.1-3.08-4.55Z"/><path class="cls-2" d="m145.36,248.43v.86s-33.62-10.91-33.62-10.91v-.86s33.62,10.9,33.62,10.9Z"/><path class="cls-2" d="m111.74,265.28v-.82s33.62,0,33.62,0v.82s-33.62,0-33.62,0Z"/><path class="cls-2" d="m74.8,80.89c0,1.35-1.11,2.46-2.46,2.46s-2.46-1.11-2.46-2.46,1.11-2.46,2.46-2.46,2.46,1.11,2.46,2.46Z"/><path class="cls-2" d="m70.25,89.96s-.37-.46-.37-1.28c0-1.35,1.11-2.46,2.46-2.46s2.46,1.11,2.46,2.46-1.11,2.45-2.46,2.46c-4.51.04-6.56-2.3-6.56-4.92h.82c0,2.17,2.09,3.73,3.65,3.74Z"/><path class="cls-2" d="m86.28,97.7c0,1.35-1.11,2.46-2.46,2.46s-2.46-1.11-2.46-2.46,1.11-2.46,2.46-2.46,2.46,1.11,2.46,2.46Zm-11.48,0c0,1.35-1.11,2.46-2.46,2.46s-2.46-1.11-2.46-2.46,1.11-2.46,2.46-2.46,2.46,1.11,2.46,2.46Z"/><path class="cls-2" d="m86.28,106.72c0,1.35-1.11,2.46-2.46,2.46s-2.46-1.11-2.46-2.46,1.11-2.46,2.46-2.46,2.46,1.11,2.46,2.46Zm-19.68-2.46h-.82c0,2.62,2.05,4.96,6.56,4.92,1.35-.01,2.46-1.11,2.46-2.46s-1.11-2.46-2.46-2.46-2.46,1.11-2.46,2.46c0,.82.37,1.28.37,1.28-1.56,0-3.65-1.56-3.65-3.74Z"/><path class="cls-2" d="m84.23,118.61h-.82s0-6.56,0-6.56h.82s0,6.56,0,6.56Z"/><path class="cls-2" d="m70.7,133.74h-.82s0-12.3,0-12.3h.82s0,12.3,0,12.3Z"/><path class="cls-2" d="m85.66,148.04v-11.48s.82,0,.82,0v11.48s-.82,0-.82,0Zm-4.51,0v-11.48s.82,0,.82,0v11.48s-.82,0-.82,0Z"/><path class="cls-2" d="m83.82,153.66l-3.53,5.45h-.98s4.51-6.99,4.51-6.99l4.51,6.99h-.98s-3.53-5.45-3.53-5.45Z"/><path class="cls-2" d="m87.35,164.73h.98s-4.51,6.99-4.51,6.99l-4.51-6.99h.98s3.53,5.45,3.53,5.45l3.53-5.45Z"/><path class="cls-2" d="m79.31,179.69v-1.11s4.51-4,4.51-4l4.43,4.01v1.11s-4.43-4-4.43-4l-4.51,3.99Zm0,3.46v-1.11s4.51-4,4.51-4l4.43,4.01v1.11s-4.43-4-4.43-4l-4.51,3.99Z"/><path class="cls-2" d="m83.82,189.97l4.43-4v1.11s-4.43,4.01-4.43,4.01l-4.5-4v-1.11s4.5,3.99,4.5,3.99Zm0,3.46l4.43-4v1.11s-4.43,4.01-4.43,4.01l-4.5-4v-1.11s4.5,4,4.5,4Z"/><path class="cls-2" d="m97.76,199.41v.86s-6.15-2-6.15-2v-.86s6.15,1.99,6.15,1.99Zm0,2.86v.86s-6.15-2-6.15-2v-.86s6.15,1.99,6.15,1.99Z"/><path class="cls-2" d="m97.76,207.98v.86s-6.15-2-6.15-2v-.86s6.15,1.99,6.15,1.99Zm0,2.86v.86s-6.15-2-6.15-2v-.86s6.15,1.99,6.15,1.99Z"/><path class="cls-2" d="m97.76,214.59v.86s-6.15,0-6.15,0v-.86s6.15,0,6.15,0Z"/><path class="cls-2" d="m84.23,224.47v5.33s-.82,0-.82,0v-5.33s-5.33,0-5.33,0v-.82s5.33,0,5.33,0v-5.33s.82,0,.82,0v5.33s5.33,0,5.33,0v.82s-5.33,0-5.33,0Z"/><path class="cls-2" d="m84.23,238.82v5.33s-.82,0-.82,0v-5.33s-5.33,0-5.33,0v-.82s5.33,0,5.33,0v-5.33s.82,0,.82,0v5.33s5.33,0,5.33,0v.82s-5.33,0-5.33,0Zm-8.61-6.15h-.82s0,11.48,0,11.48h.82s0-11.48,0-11.48Z"/><path class="cls-2" d="m84.23,258.5h-.82s0-11.48,0-11.48h.82s0,11.48,0,11.48Zm7.79-5.74c0,1.35-1.11,2.46-2.46,2.46s-2.46-1.11-2.46-2.46,1.11-2.46,2.46-2.46,2.46,1.11,2.46,2.46Zm-11.48,0c0,1.35-1.11,2.46-2.46,2.46s-2.46-1.11-2.46-2.46,1.11-2.46,2.46-2.46,2.46,1.11,2.46,2.46Z"/><path class="cls-2" d="m87.72,285.51l-.82-.27v-6.64s-6.31-2.07-6.31-2.07v6.66s-.82-.27-.82-.27v-6.66s-6.11-1.99-6.11-1.99v-.86s6.11,1.99,6.11,1.99v-6.66s-6.11-1.97-6.11-1.97v-.86s6.11,1.97,6.11,1.97v-6.52s.82.27.82.27v6.52s6.32,2.09,6.32,2.09v-6.56s.82.27.82.27v6.56s6.44,2.09,6.44,2.09v.86s-6.44-2.09-6.44-2.09v6.64s6.44,2.09,6.44,2.09v.86s-6.44-2.09-6.44-2.09v6.64Zm-.82-14.41l-6.31-2.09v6.66s6.31,2.07,6.31,2.07v-6.64Z"/><path class="cls-2" d="m101.28,290.97l1.44-2.62,1.42.82-1.59,2.54,2.99-.04v1.64s-2.99-.04-2.99-.04l1.59,2.54-1.42.82-1.44-2.62-1.44,2.62-1.42-.82,1.59-2.54-3.03.04v-1.64s3.03.04,3.03.04l-1.59-2.54,1.42-.82,1.44,2.62Z"/></g></svg>