<?xml version="1.0" encoding="UTF-8"?><svg id="Capa_2" xmlns="http://www.w3.org/2000/svg" viewBox="0 0 377.1 564.58"><defs><style>.cls-1{fill:#942c00;}.cls-2{fill:#c3d8c3;}</style></defs><g id="Capa_1-2"><rect class="cls-1" x="0" y="0" width="377.09" height="564.58"/><path class="cls-2" d="m65.02,78.59v12.71s4.51,0,4.51,0v.82s-11.48,0-11.48,0v-.82s2.05,0,2.05,0v-22.96c0-2.25,1.85-4.1,4.1-4.1h12.3c2.25,0,4.1,1.84,4.1,4.1v22.96s2.05,0,2.05,0v.82s-11.48,0-11.48,0v-.82s4.51,0,4.51,0v-12.71s-10.66,0-10.66,0Zm10.66-10.25c0-1.8-1.48-3.28-3.28-3.28h-4.1c-1.8,0-3.28,1.46-3.28,3.28v9.43s10.66,0,10.66,0v-9.43Z"/><path class="cls-2" d="m91.27,90.48v1.64s-6.98,0-6.98,0v-.82s2.05,0,2.05,0v-26.24s-2.05,0-2.05,0v-.82s6.97,0,6.97,0v1.64s1.02-1.64,3.28-1.64h4.1c2.26,0,4.1,1.84,4.1,4.1v2.46c0,2.25-1.64,3.28-1.64,3.28h1.64c2.28,0,4.1,1.85,4.1,4.1v9.84c0,2.26-1.84,4.1-4.1,4.1h-8.2c-2.26,0-3.27-1.64-3.27-1.64Zm0-22.14v5.74s3.24,0,3.24,0c1.8,0,3.32-1.48,3.32-3.28v-2.46c0-1.8-1.48-3.28-3.28-3.28s-3.28,1.48-3.28,3.28Zm0,19.68c0,1.8,1.48,3.28,3.28,3.28h4.1c1.8,0,3.28-1.48,3.28-3.28v-9.84c0-1.8-1.52-3.28-3.32-3.28h-7.34s0,13.12,0,13.12Z"/><path class="cls-2" d="m108.48,64.24h6.97s0,1.64,0,1.64c0,0,1.02-1.64,3.27-1.64h8.2c2.25,0,4.1,1.84,4.1,4.1v19.68c0,2.26-1.85,4.1-4.1,4.1h-8.2c-2.26,0-3.27-1.64-3.27-1.64v1.64s-6.98,0-6.98,0v-.82s2.05,0,2.05,0v-26.24s-2.05,0-2.05,0v-.82Zm17.63,4.1c0-1.8-1.48-3.28-3.28-3.28h-4.1c-1.8,0-3.28,1.48-3.28,3.28v19.68c0,1.8,1.48,3.28,3.28,3.28h4.1c1.8,0,3.28-1.48,3.28-3.28v-19.68Z"/><path class="cls-2" d="m137.59,78.59v9.43c0,1.8,1.48,3.28,3.28,3.28h4.1c1.8,0,3.28-1.48,3.28-3.28h-2.05s0-.82,0-.82h9.02s0,.82,0,.82h-2.05c0,2.26-1.85,4.1-4.1,4.1h-12.3c-2.26,0-4.1-1.84-4.1-4.1v-19.68c0-2.25,1.84-4.1,4.1-4.1h12.3c2.25,0,4.1,1.84,4.1,4.1h2.05s0,.82,0,.82h-9.02s0-.82,0-.82h2.05c0-1.8-1.48-3.28-3.28-3.28h-4.1c-1.8,0-3.28,1.48-3.28,3.28v9.43s7.38,0,7.38,0v.82s-7.38,0-7.38,0Z"/><path class="cls-2" d="m175.31,64.24c2.25,0,4.1,1.84,4.1,4.1h2.05s0,.82,0,.82h-9.02s0-.82,0-.82h2.05c0-1.8-1.48-3.28-3.28-3.28h-4.1c-1.8,0-3.28,1.48-3.28,3.28v9.43s7.38,0,7.38,0v.82s-7.38,0-7.38,0v12.71s2.05,0,2.05,0v.82s-9.02,0-9.02,0v-.82s2.05,0,2.05,0v-26.24s-2.05,0-2.05,0v-.82s18.45,0,18.45,0Z"/><path class="cls-2" d="m198.68,81.87c0-1.8-1.48-3.28-3.28-3.28h-2.05s0-.82,0-.82h12.3s0,.82,0,.82h-2.05s0,9.43,0,9.43c0,2.26-1.85,4.1-4.1,4.1h-12.3c-2.25,0-4.1-1.84-4.1-4.1v-19.68c0-2.25,1.85-4.1,4.1-4.1h12.3c2.25,0,4.1,1.84,4.1,4.1h2.05s0,.82,0,.82h-9.02s0-.82,0-.82h2.05c0-1.8-1.48-3.28-3.28-3.28h-4.1c-1.8,0-3.28,1.48-3.28,3.28v19.68c0,1.8,1.48,3.28,3.28,3.28h4.1c1.8,0,3.28-1.48,3.28-3.28v-6.15Z"/><path class="cls-2" d="m214.26,77.77h10.66s0-12.71,0-12.71h-4.51s0-.82,0-.82h11.48s0,.82,0,.82h-2.05s0,26.24,0,26.24h2.05s0,.82,0,.82h-11.48s0-.82,0-.82h4.51s0-12.71,0-12.71h-10.66s0,12.71,0,12.71h4.51s0,.82,0,.82h-11.48s0-.82,0-.82h2.05s0-26.24,0-26.24h-2.05s0-.82,0-.82h11.48s0,.82,0,.82h-4.51s0,12.71,0,12.71Z"/><path class="cls-2" d="m235.59,65.06h-2.05s0-.82,0-.82h9.02s0,.82,0,.82h-2.05s0,26.24,0,26.24h2.05s0,.82,0,.82h-9.02s0-.82,0-.82h2.05s0-26.24,0-26.24Z"/><path class="cls-2" d="m251,88.02c0,1.8,1.48,3.28,3.28,3.28s3.28-1.48,3.28-3.28v-22.96s-2.05,0-2.05,0v-.82s9.02,0,9.02,0v.82s-2.05,0-2.05,0v22.96c0,2.26-1.85,4.1-4.1,4.1h-8.2c-2.25,0-4.1-1.84-4.1-4.1v-5.74s-2.05,0-2.05,0v-.82s9.02,0,9.02,0v.82s-2.05,0-2.05,0v5.74Z"/><path class="cls-2" d="m273.14,78.18v13.12s4.51,0,4.51,0v.82s-11.48,0-11.48,0v-.82s2.05,0,2.05,0v-26.24s-2.05,0-2.05,0v-.82s11.48,0,11.48,0v.82s-4.51,0-4.51,0v12.05s11.48-9.68,11.48-9.68c1.19-.98,1.64-2.38,0-2.38h-5.33s0-.82,0-.82h11.48s0,.82,0,.82h-2.05s-11.83,9.96-11.83,9.96l11.83,16.28h2.05s0,.82,0,.82h-11.48s0-.82,0-.82h3.36s-9.51-13.12-9.51-13.12Z"/><path class="cls-2" d="m310.04,88.03h-2.05s0-.82,0-.82h9.02s0,.82,0,.82h-2.05c0,2.26-1.85,4.1-4.1,4.1h-18.45s0-.82,0-.82h2.05s0-26.24,0-26.24h-2.05s0-.82,0-.82h9.02s0,.82,0,.82h-2.05s0,22.96,0,22.96c0,1.8,1.48,3.28,3.28,3.28h4.1c1.8,0,3.28-1.48,3.28-3.28Z"/><path class="cls-2" d="m77.46,136.03h2.86s0,.82,0,.82h-7.38s0-.82,0-.82h2.86s-3.55-20.17-3.55-20.17c-.49-2.79-3-1.97-2.99.08v20.09s2.05,0,2.05,0v.82s-9.02,0-9.02,0v-.82s2.05,0,2.05,0v-26.24s-2.05,0-2.05,0v-.82s6.15,0,6.15,0c2.25,0,3.77,2.13,4.18,4.35l4.02,22.71,4.02-22.71c.41-2.21,1.93-4.35,4.18-4.35h6.15s0,.82,0,.82h-2.05s0,26.24,0,26.24h2.05s0,.82,0,.82h-9.02s0-.82,0-.82h2.05s0-20.09,0-20.09c0-2.05-2.5-2.87-2.99-.08l-3.55,20.17Z"/><path class="cls-2" d="m101.64,115.29c-.37-.98-2.05-1.39-2.05.66v20.09s2.05,0,2.05,0v.82s-9.02,0-9.02,0v-.82s2.05,0,2.05,0v-26.24s-2.05,0-2.05,0v-.82s5,0,5,0c2.25,0,3.36,2.21,4.18,4.39l6.4,17.18c.37.98,2.05,1.39,2.05-.66v-20.09s-2.05,0-2.05,0v-.82s9.02,0,9.02,0v.82s-2.05,0-2.05,0v26.24s2.05,0,2.05,0v.82s-5,0-5,0c-2.25,0-3.36-2.21-4.18-4.39l-6.4-17.18Z"/><path class="cls-2" d="m127.88,115.29c-.37-.98-2.05-1.39-2.05.66v20.09s2.05,0,2.05,0v.82s-9.02,0-9.02,0v-.82s2.05,0,2.05,0v-26.24s-2.05,0-2.05,0v-.82s5,0,5,0c2.25,0,3.36,2.21,4.18,4.39l6.4,17.18c.37.98,2.05,1.39,2.05-.66v-20.09s-2.05,0-2.05,0v-.82s9.02,0,9.02,0v.82s-2.05,0-2.05,0v26.24s2.05,0,2.05,0v.82s-5,0-5,0c-2.25,0-3.36-2.21-4.18-4.39l-6.4-17.18Zm8.61-8.77v.82s-10.66,0-10.66,0v-.82s10.66,0,10.66,0Z"/><path class="cls-2" d="m149.2,108.97h12.3c2.25,0,4.1,1.84,4.1,4.1v19.68c0,2.26-1.85,4.1-4.1,4.1h-12.3c-2.25,0-4.1-1.84-4.1-4.1v-19.68c0-2.25,1.85-4.1,4.1-4.1Zm.82,23.78c0,1.8,1.48,3.28,3.28,3.28h4.1c1.8,0,3.28-1.48,3.28-3.28v-19.68c0-1.8-1.48-3.28-3.28-3.28h-4.1c-1.8,0-3.28,1.48-3.28,3.28v19.68Z"/><path class="cls-2" d="m176.26,136.85h-9.02s0-.82,0-.82h2.05s0-26.24,0-26.24h-2.05s0-.82,0-.82h6.97s0,1.64,0,1.64c0,0,1.02-1.64,3.27-1.64h8.2c2.25,0,4.1,1.84,4.1,4.1v9.84c0,2.25-1.85,4.1-4.1,4.1h-8.2c-2.26,0-3.27-1.64-3.27-1.64,0,0,0,10.66,0,10.66h2.05s0,.82,0,.82Zm8.61-23.78c0-1.8-1.48-3.28-3.28-3.28h-4.1c-1.8,0-3.28,1.48-3.28,3.28v9.84c0,1.8,1.48,3.28,3.28,3.28h4.1c1.8,0,3.28-1.48,3.28-3.28v-9.84Z"/><path class="cls-2" d="m195.53,108.97h12.3c2.25,0,4.1,1.84,4.1,4.1v19.68c0,2.26-1.85,4.1-4.1,4.1h-12.3c-2.25,0-4.1-1.84-4.1-4.1v-19.68c0-2.25,1.85-4.1,4.1-4.1Zm11.48,23.78v-19.68c0-1.8-1.48-3.28-3.28-3.28h-4.1c-1.8,0-3.28,1.48-3.28,3.28v19.68c0,1.8,1.48,3.28,3.28,3.28h3.45s-1.65-1.02-1.65-3.28,1.84-4.1,4.1-4.1v.82c-1.8,0-3.28,1.48-3.28,3.28s1.48,3.28,3.28,3.28c1.48,0,1.48-1.48,1.48-3.28Z"/><path class="cls-2" d="m225.05,136.04v.82s-11.48,0-11.48,0v-.82s2.05,0,2.05,0v-26.24s-2.05,0-2.05,0v-.82s6.97,0,6.97,0v1.64s1.02-1.64,3.28-1.64h8.2c2.26,0,4.1,1.84,4.1,4.1v9.84c0,2.25-1.84,4.1-4.1,4.1h-3.6s7.7,9.02,7.7,9.02h2.05s0,.82,0,.82h-11.48s0-.82,0-.82h2.95s-9.12-10.66-9.12-10.66v10.66s4.52,0,4.52,0Zm2.87-26.24h-4.14c-1.76,0-3.24,1.48-3.24,3.28v9.84c0,1.8,1.48,3.28,3.28,3.28h4.1c2.05,0,3.28-1.48,3.28-3.28v-9.84c0-1.8-1.48-3.28-3.28-3.28Z"/><path class="cls-2" d="m262.36,128.9v3.85c0,2.3-1.84,4.1-4.1,4.1h-12.3c-2.25,0-4.1-1.84-4.1-4.1h-2.05s0-.82,0-.82h9.02s0,.82,0,.82h-2.05c0,1.8,1.48,3.28,3.28,3.28h4.1c1.8,0,3.28-1.48,3.28-3.28v-2.05c0-1.8-1.08-3.43-3.28-4.31-.04-.02-8.2-3.32-8.2-3.32-2.26-.94-4.1-2.79-4.1-6.07v-3.94c0-2.26,1.84-4.1,4.1-4.1h12.3c2.25,0,4.1,1.84,4.1,4.1h2.05s0,.82,0,.82h-9.02s0-.82,0-.82h2.05c0-1.8-1.48-3.28-3.28-3.28h-4.1c-1.8,0-3.28,1.48-3.28,3.28v2.05c0,1.84,1.08,3.46,3.28,4.35.04.02,8.2,3.32,8.2,3.32,2.3.78,4.1,2.83,4.1,6.11Z"/><path class="cls-2" d="m286.54,113.9h-.81s0-.82,0-.82c0-1.8-1.48-3.28-3.28-3.28h-3.69s0,26.24,0,26.24h2.05s0,.82,0,.82h-9.02s0-.82,0-.82h2.05s0-26.24,0-26.24h-3.69c-1.8,0-3.28,1.48-3.28,3.28v.82s-.82,0-.82,0v-4.92s20.5,0,20.5,0v4.92Z"/><path class="cls-2" d="m288.19,109.8v-.82s11.48,0,11.48,0v.82s-4.51,0-4.51,0v22.96c0,1.8,1.48,3.28,3.28,3.28h4.1c1.8,0,3.28-1.48,3.28-3.28v-22.96s-4.51,0-4.51,0v-.82s11.48,0,11.48,0v.82s-2.05,0-2.05,0v22.96c0,2.26-1.85,4.1-4.1,4.1h-12.3c-2.25,0-4.1-1.84-4.1-4.1v-22.96s-2.05,0-2.05,0Z"/><path class="cls-2" d="m122.75,154.52h-2.05s0-.82,0-.82h11.48s0,.82,0,.82h-4.14s7.17,18.94,7.17,18.94l5.95-15.66c.74-1.97-.78-3.28-2.83-3.28h-4.51s0-.82,0-.82h11.48s0,.82,0,.82h-2.05s-10.25,27.06-10.25,27.06l-10.25-27.06Z"/><path class="cls-2" d="m161.29,154.53l-4.02,22.71c-.41,2.21-1.93,4.35-4.18,4.35s-4.1-1.85-4.1-4.1v-22.96s-2.05,0-2.05,0v-.82s9.02,0,9.02,0v.82s-2.05,0-2.05,0v20.09c0,2.05,2.5,2.87,2.99.08l3.55-20.17h-2.86s0-.82,0-.82h7.38s0,.82,0,.82h-2.86s3.55,20.17,3.55,20.17c.49,2.79,3,1.97,2.99-.08v-20.09s-2.05,0-2.05,0v-.82s9.02,0,9.02,0v.82s-2.05,0-2.05,0v22.96c0,2.25-1.85,4.1-4.1,4.1s-3.77-2.13-4.18-4.35l-4.02-22.71Z"/><path class="cls-2" d="m183.18,177.49c-1.19,1.97.78,3.28,2.83,3.28h2.75s0,.82,0,.82h-11.48s0-.82,0-.82c0,0,2.62,0,2.62,0l7.75-11.07-7.89-15.17h-2.48s0-.82,0-.82h11.48s0,.82,0,.82h-3.41s5.52,10.58,5.52,10.58l5.11-7.3c1.19-1.97-.78-3.28-2.83-3.28h-2.75s0-.82,0-.82h11.48s0,.82,0,.82h-2.62s-7.98,11.4-7.98,11.4l7.73,14.84h2.87s0,.82,0,.82h-11.48s0-.82,0-.82h3.04s-5.36-10.29-5.36-10.29l-4.89,7.01Z"/><path class="cls-2" d="m221.23,154.53h-4.59s0-.82,0-.82h11.48s0,.82,0,.82h-2.34s-7.5,16.81-7.5,16.81v9.43s2.34,0,2.34,0v.82s-9.59,0-9.59,0v-.82s2.34,0,2.34,0v-9.43s-7.7-16.81-7.7-16.81h-2.15s0-.82,0-.82h11.48s0,.82,0,.82h-3.93s7,15.21,7,15.21l5.33-11.93c.74-1.97-.12-3.28-2.17-3.28Z"/><path class="cls-2" d="m238.21,180.23s.57.53,1.8.53h4.1c1.8,0,3.28-1.48,3.28-3.28h-2.05s0-.82,0-.82h9.02s0,.82,0,.82h-2.05c0,2.25-1.85,4.1-4.1,4.1h-12.3c-2.25,0-4.1-1.85-4.1-4.1,0-1.56.98-2.67.98-2.67,0,0,5.71-6.76,5.7-6.76h-1.76s0-.82,0-.82h2.46s6.81-8.08,6.81-8.08c1.31-1.56,1.27-2.99-.08-4.1,0,0-.57-.53-1.8-.53h-4.1c-1.8,0-3.28,1.48-3.28,3.28h2.05s0,.82,0,.82h-9.02s0-.82,0-.82h2.05c0-2.25,1.85-4.1,4.1-4.1h12.3c2.25,0,4.1,1.84,4.1,4.1,0,1.56-.98,2.67-.98,2.67,0,0-5.7,6.77-5.7,6.77h1.76s0,.82,0,.82h-2.46s-6.81,8.08-6.81,8.08c-1.31,1.56-1.27,2.99.08,4.1Z"/><path class="cls-2" d="m78.98,204.59h14.35s0,.82,0,.82h-2.05s0,20.09,0,20.09h2.05s0,.82,0,.82h-6.97s0-1.64,0-1.64c0,0-1.03,1.64-3.27,1.64h-8.2c-2.26,0-4.1-1.85-4.1-4.1v-9.43c0-2.25,1.84-4.1,4.1-4.1,0-2.25,1.84-4.1,4.1-4.1Zm4.1,4.1c2.25,0,3.27,1.64,3.27,1.64v-1.64c0-2.26-1.47-3.28-3.27-3.28h-4.1c-1.8,0-3.28,1.48-3.28,3.28h7.38Zm0,16.81c1.8,0,3.28-1.48,3.28-3.28v-9.43c0-1.8-1.48-3.28-3.28-3.28h-4.1c-1.8,0-3.28,1.48-3.28,3.28v9.43c0,1.8,1.48,3.28,3.28,3.28h4.1Z"/><path class="cls-2" d="m105.22,204.59h8.2c2.25,0,4.1,1.84,4.1,4.1v13.53c0,2.25-1.85,4.1-4.1,4.1h-8.2c-2.26,0-3.27-1.64-3.27-1.64v1.64s-6.98,0-6.98,0v-.82s2.05,0,2.05,0v-26.24s-2.05,0-2.05,0v-.82s14.35,0,14.35,0v.82s-7.38,0-7.38,0v6.97s1.02-1.64,3.28-1.64Zm4.1.82h-4.1c-1.8,0-3.28,1.48-3.28,3.28v13.53c0,1.8,1.48,3.28,3.28,3.28h4.1c1.8,0,3.28-1.48,3.28-3.28v-13.53c0-1.8-1.48-3.28-3.28-3.28Z"/><path class="cls-2" d="m135.56,204.59c2.25,0,4.1,1.84,4.1,4.1h2.05s0,.82,0,.82h-9.02s0-.82,0-.82h2.05c0-1.8-1.48-3.28-3.28-3.28h-4.1c-1.8,0-3.28,1.48-3.28,3.28v13.53c0,1.8,1.48,3.28,3.28,3.28h4.1c1.8,0,3.28-1.48,3.28-3.28h-2.05s0-.82,0-.82h9.02s0,.82,0,.82h-2.05c0,2.25-1.85,4.1-4.1,4.1h-12.3c-2.26,0-4.1-1.85-4.1-4.1v-13.53c0-2.25,1.84-4.1,4.1-4.1h12.3Z"/><path class="cls-2" d="m158.93,206.23v-6.97s-7.37,0-7.37,0v-.82s14.35,0,14.35,0v.82s-2.05,0-2.05,0v26.24s2.05,0,2.05,0v.82s-6.97,0-6.97,0v-1.64s-1.03,1.64-3.28,1.64h-8.2c-2.25,0-4.1-1.85-4.1-4.1v-13.53c0-2.25,1.85-4.1,4.1-4.1h8.2c2.25,0,3.27,1.64,3.27,1.64Zm-10.65,2.46v13.53c0,1.8,1.48,3.28,3.28,3.28h4.1c1.8,0,3.28-1.48,3.28-3.28v-13.53c0-1.8-1.48-3.28-3.28-3.28h-4.1c-1.8,0-3.28,1.48-3.28,3.28Z"/><path class="cls-2" d="m175.74,225.5h8.21c1.8,0,3.28-1.48,3.28-3.28h.82c0,2.25-1.85,4.1-4.1,4.1h-12.3c-2.3,0-4.1-1.85-4.1-4.1v-13.53c0-2.25,1.85-4.1,4.1-4.1h12.3c2.25,0,4.1,1.84,4.1,4.1v9.43c0,2.05-1.85,4.1-4.1,4.1h-8.21c-2.25,0-3.27-1.72-3.27-1.72v1.72c0,1.8,1.48,3.28,3.27,3.28Zm0-20.09c-1.8,0-3.28,1.48-3.28,3.28v9.43c0,1.6,1.48,3.28,3.28,3.28h4.1c1.8,0,3.28-1.68,3.28-3.28v-9.43c0-1.8-1.48-3.28-3.27-3.28h-4.11Z"/><path class="cls-2" d="m195.84,198.44h2.87s0,.82,0,.82h-2.05s0,12.71,0,12.71h2.05s0,.82,0,.82h-2.05s0,12.71,0,12.71h2.05s0,.82,0,.82h-9.02s0-.82,0-.82h2.05s0-12.71,0-12.71h-2.05s0-.82,0-.82h2.05s0-9.43,0-9.43c0-2.25,1.84-4.1,4.1-4.1Z"/><path class="cls-2" d="m208.54,229.6s4.1,0,4.1,0c1.8,0,3.28-1.48,3.28-3.28v-3.69s-1.03,1.64-3.28,1.64h-8.2c-2.25,0-4.1-2.05-4.1-4.1v-11.48c0-2.25,1.84-4.1,4.1-4.1h18.45s0,.82,0,.82h-2.05s0,3.28,0,3.28v17.63c0,2.25-1.85,4.1-4.1,4.1h-8.2c-2.26,0-4.1-1.84-4.1-4.1h.82c0,1.8,1.48,3.28,3.28,3.28Zm4.1-24.19h-4.1c-1.8,0-3.28,1.48-3.28,3.28v11.48c0,2.05,1.48,3.28,3.28,3.28h4.1c1.8,0,3.28-1.23,3.28-3.28v-11.48c0-1.8-1.48-3.28-3.28-3.28Z"/><path class="cls-2" d="m234.78,204.59h8.2c2.25,0,4.1,1.84,4.1,4.1v16.81s2.05,0,2.05,0c0,0,0,.82,0,.82h-11.48s0-.82,0-.82h4.51s0-16.81,0-16.81c0-1.8-1.48-3.28-3.28-3.28h-4.1c-1.8,0-3.28,1.48-3.28,3.28v16.81s4.51,0,4.51,0v.82s-11.48,0-11.48,0v-.82s2.05,0,2.05,0v-26.24s-2.05,0-2.05,0v-.82s6.15,0,6.15,0h5.33s0,.82,0,.82h-4.51s0,6.97,0,6.97c0,0,1.02-1.64,3.27-1.64Z"/><path class="cls-2" d="m253.04,205.41h-2.05s0-.82,0-.82h9.02s0,.82,0,.82h-2.05s0,20.09,0,20.09h2.05s0,.82,0,.82h-9.02s0-.82,0-.82h2.05s0-20.09,0-20.09Zm0-4.51c0,1.35,1.11,2.46,2.46,2.46s2.46-1.11,2.46-2.46-1.11-2.46-2.46-2.46-2.46,1.11-2.46,2.46Z"/><path class="cls-2" d="m262.45,204.59h9.02s0,.82,0,.82h-2.05s0,20.91,0,20.91c0,2.25-1.84,4.1-4.1,4.1s-4.3-1.84-4.3-4.1,1.85-4.06,3.48-4.06v-16.85s-2.05,0-2.05,0v-.82Zm2.05,18.53c-1.19,0-2.67,1.39-2.67,3.2,0,2.05,2.46,2.83,2.66,1.23v-4.43Zm2.46-24.68c1.35,0,2.46,1.11,2.46,2.46s-1.11,2.46-2.46,2.46-2.46-1.11-2.46-2.46,1.11-2.46,2.46-2.46Z"/><path class="cls-2" d="m280.08,218.41v7.09s2.5,0,2.5,0v.82s-9.47,0-9.47,0v-.82s2.05,0,2.05,0v-26.24s-2.05,0-2.05,0v-.82s9.02,0,9.02,0v.82s-2.05,0-2.05,0v17.83s6.68-8.41,6.68-8.41c1.43-1.76,1.68-3.28-.21-3.28h-2.13s0-.82,0-.82h7.95s0,.82,0,.82h-1.97s-6.06,7.63-6.06,7.63l7.22,12.46h2.04s.01.82.01.82h-10.21s0-.81,0-.81h2.5s-4.82-8.36-4.82-8.36l-1.01,1.27Z"/><path class="cls-2" d="m297.31,199.26h-2.05s0-.82,0-.82h9.02s0,.82,0,.82h-2.05s0,26.24,0,26.24h2.05s0,.82,0,.82h-9.02s0-.82,0-.82h2.05s0-26.24,0-26.24Z"/><path class="cls-2" d="m86.26,270.23h3.28s0,.82,0,.82h-7.38s0-.82,0-.82h3.28s0-20.09,0-20.09h-3.69c-1.8,0-3.28,1.48-3.28,3.28v16.81s2.05,0,2.05,0v.82s-9.02,0-9.02,0v-.82s2.05,0,2.05,0v-16.81c0-2.25,1.85-4.1,4.1-4.1h16.4c2.25,0,4.1,1.84,4.1,4.1v16.81s2.05,0,2.05,0v.82s-9.02,0-9.02,0v-.82s2.05,0,2.05,0v-16.81c0-1.8-1.48-3.28-3.28-3.28h-3.69s0,20.09,0,20.09Z"/><path class="cls-2" d="m103.89,270.23v-16.81c0-2.25,1.84-4.1,4.1-4.1h12.3c2.25,0,4.1,1.84,4.1,4.1v16.81s2.05,0,2.05,0v.82s-11.48,0-11.48,0v-.82s4.51,0,4.51,0v-16.81c0-1.8-1.48-3.28-3.07-3.28h-4.3c-1.8,0-3.28,1.48-3.28,3.28v16.81s4.51,0,4.51,0v.82s-11.48,0-11.48,0v-.82s2.05,0,2.05,0Z"/><path class="cls-2" d="m130.13,270.23v-16.81c0-2.25,1.84-4.1,4.1-4.1h12.3c2.25,0,4.1,1.84,4.1,4.1v16.81s2.05,0,2.05,0v.82s-11.48,0-11.48,0v-.82s4.51,0,4.51,0v-16.81c0-1.8-1.48-3.28-3.07-3.28h-4.3c-1.8,0-3.28,1.48-3.28,3.28v16.81s4.51,0,4.51,0v.82s-11.48,0-11.48,0v-.82s2.05,0,2.05,0Zm4.92-23.78v.82s10.66,0,10.66,0v-.82s-10.66,0-10.66,0Z"/><path class="cls-2" d="m158.42,249.32h12.3c2.25,0,4.1,1.84,4.1,4.1v13.53c0,2.25-1.85,4.1-4.1,4.1h-12.3c-2.25,0-4.1-1.85-4.1-4.1v-13.53c0-2.25,1.85-4.1,4.1-4.1Zm.82,17.63c0,1.8,1.48,3.28,3.28,3.28h4.1c1.8,0,3.28-1.48,3.28-3.28v-13.53c0-1.8-1.48-3.28-3.28-3.28h-4.1c-1.8,0-3.28,1.48-3.28,3.28v13.53Z"/><path class="cls-2" d="m183.44,269.41v4.92s7.37,0,7.37,0v.82s-14.35,0-14.35,0v-.82s2.05,0,2.05,0v-24.19s-2.05,0-2.05,0v-.82s6.97,0,6.97,0v1.64s1.02-1.64,3.28-1.64h8.2c2.25,0,4.1,1.84,4.1,4.1v13.53c0,2.25-1.85,4.1-4.1,4.1h-8.2c-2.26,0-3.27-1.64-3.27-1.64Zm10.65-2.46v-13.53c0-1.8-1.48-3.28-3.28-3.28h-4.1c-1.8,0-3.28,1.48-3.28,3.28v13.53c0,1.8,1.48,3.28,3.28,3.28h4.1c1.8,0,3.28-1.48,3.28-3.28Z"/><path class="cls-2" d="m223.2,271.05h-2.05s0,3.28,0,3.28h2.05s0,.82,0,.82h-14.35s0-.82,0-.82h7.38s0-3.28,0-3.28h-11.48c-2.25,0-4.1-1.85-4.1-4.1v-13.53c0-2.25,1.85-4.1,4.1-4.1h8.2c2.25,0,3.27,1.64,3.27,1.64v-1.64s6.98,0,6.98,0v.82s-2.05,0-2.05,0v20.09s2.05,0,2.05,0v.82Zm-6.97-.82v-16.81c0-1.8-1.48-3.28-3.28-3.28h-4.1c-1.8,0-3.28,1.48-3.28,3.28v13.53c0,1.8,1.48,3.28,3.28,3.28h7.38Z"/><path class="cls-2" d="m239.19,253.42h-.82c0-1.8-1.48-3.28-3.28-3.28s-3.28,1.48-3.28,3.28v16.81s2.05,0,2.05,0v.82s-9.02,0-9.02,0v-.82s2.05,0,2.05,0v-20.09s-2.05,0-2.05,0v-.82s6.97,0,6.97,0v1.64s1.02-1.64,3.28-1.64,4.1,1.84,4.1,4.1Z"/><path class="cls-2" d="m263.38,266.13v.82c0,2.3-1.84,4.1-4.1,4.1h-12.3c-2.25,0-4.1-1.85-4.1-4.1h-2.05s0-.82,0-.82h9.02s0,.82,0,.82h-2.05c0,1.8,1.48,3.28,3.28,3.28h4.1c1.8,0,3.28-1.48,3.28-3.28s-1.48-2.58-3.28-3.32c-.04,0-8.2-3.32-8.2-3.32-2.26-.94-4.1-2.79-4.1-6.07v-.82c0-2.26,1.84-4.1,4.1-4.1h12.3c2.25,0,4.1,1.84,4.1,4.1h2.05s0,.82,0,.82h-9.02s0-.82,0-.82h2.05c0-1.8-1.48-3.28-3.28-3.28h-4.1c-1.8,0-3.28,1.48-3.28,3.28s1.48,2.54,3.28,3.28c.04.02,8.2,3.32,8.2,3.32,2.3.78,4.1,2.83,4.1,6.11Z"/><path class="cls-2" d="m274.04,270.11c.98,0,2.46-1.65,2.46-3.16h.82c0,2.26-1.84,4.1-4.1,4.1s-4.1-1.85-4.1-4.1v-9.43s-2.05,0-2.05,0v-.82s2.05,0,2.05,0v-12.71s-2.05,0-2.05,0v-.82s9.02,0,9.02,0v.82s-2.05,0-2.05,0v12.71s2.05,0,2.05,0v.82s-2.05,0-2.05,0v12.59Z"/><path class="cls-2" d="m278.96,250.14v-.82s11.48,0,11.48,0v.82s-4.51,0-4.51,0v16.81c0,1.8,1.48,3.28,3.28,3.28h4.1c1.8,0,3.28-1.48,3.28-3.28v-16.81s-4.51,0-4.51,0v-.82s11.48,0,11.48,0v.82s-2.05,0-2.05,0v16.81c0,2.25-1.85,4.1-4.1,4.1h-12.3c-2.25,0-4.1-1.85-4.1-4.1v-16.81s-2.05,0-2.05,0Z"/><path class="cls-2" d="m133,315.78l-10.25-20.91h-2.05s0-.82,0-.82h11.48s0,.82,0,.82h-3.94s7.05,14.39,7.05,14.39c0,0,5.45-11.11,5.45-11.11.98-1.97-.37-3.28-2.42-3.28h-4.51s0-.82,0-.82h11.48s0,.82,0,.82h-2.05s-10.25,20.91-10.25,20.91Z"/><path class="cls-2" d="m161.7,314.96h3.69c1.8,0,3.28-1.48,3.28-3.28v-16.81s-2.05,0-2.05,0v-.82s9.02,0,9.02,0v.82s-2.05,0-2.05,0v16.81c0,2.25-1.85,4.1-4.1,4.1h-16.4c-2.25,0-4.1-1.85-4.1-4.1v-16.81s-2.05,0-2.05,0v-.82s9.02,0,9.02,0v.82s-2.05,0-2.05,0v16.81c0,1.8,1.48,3.28,3.28,3.28h3.69s0-20.09,0-20.09h-3.28s0-.82,0-.82h7.38s0,.82,0,.82h-3.28s0,20.09,0,20.09Z"/><path class="cls-2" d="m184.09,311.68c-1.65,1.8.36,3.28,2.41,3.28h2.26s0,.82,0,.82h-11.48s0-.82,0-.82h2.79s7.58-8.49,7.58-8.49l-7.76-11.6h-2.6s0-.82,0-.82h11.48s0,.82,0,.82h-2.94s5.22,7.79,5.22,7.79l4.03-4.51c1.64-1.8-.37-3.28-2.42-3.28h-2.26s0-.82,0-.82h11.48s0,.82,0,.82h-2.79s-7.57,8.49-7.57,8.49l7.76,11.6h2.6s0,.82,0,.82h-11.48s0-.82,0-.82h2.93s-5.21-7.79-5.21-7.79l-4.02,4.51Z"/><path class="cls-2" d="m216.64,294.87v-.82s11.48,0,11.48,0v.82s-2.05,0-2.05,0v20.91c0,2.25-1.85,4.1-4.1,4.1h-8.2c-2.26,0-4.1-1.84-4.1-4.1h.82c0,1.8,1.48,3.28,3.28,3.28,0,0,4.1,0,4.1,0,1.8,0,3.28-1.48,3.28-3.28v-3.69s-1.03,1.64-3.28,1.64h-8.2c-2.26,0-4.1-2.05-4.1-4.1v-14.76s-2.05,0-2.05,0v-.82s11.48,0,11.48,0v.82s-4.51,0-4.51,0v14.76c0,2.05,1.48,3.28,3.28,3.28h4.1c1.8,0,3.28-1.23,3.28-3.28v-14.76s-4.51,0-4.51,0Z"/><path class="cls-2" d="m238.78,311.68c-1.64,1.8.41,3.28,2.46,3.28h2.87c1.8,0,3.28-1.48,3.28-3.28h-2.05s0-.82,0-.82h9.02s0,.82,0,.82h-2.05c0,2.25-1.85,4.1-4.1,4.1h-12.3c-2.26,0-4.55-3.61-2.46-5.74l4.71-4.71h-1.44s0-.82,0-.82h2.25s6.36-6.36,6.36-6.36c1.64-1.8-.41-3.28-2.46-3.28h-2.87c-1.8,0-3.28,1.48-3.28,3.28h2.05s0,.82,0,.82h-9.02s0-.82,0-.82h2.05c0-2.25,1.85-4.1,4.1-4.1h12.3c2.25,0,4.55,3.61,2.46,5.74l-4.71,4.71h1.44s0,.82,0,.82h-2.25s-6.36,6.35-6.36,6.35Z"/><path class="cls-2" d="m79.08,336.73v22.96s2.05,0,2.05,0v.82s-9.02,0-9.02,0v-.82s2.05,0,2.05,0v-26.24s-2.05,0-2.05,0v-.82s2.87,0,2.87,0c2.25,0,4.1,1.85,4.1,4.1Z"/><path class="cls-2" d="m93.02,333.45c-1.8,0-3.28,1.48-3.28,3.28h2.05s0,.82,0,.82h-9.02s0-.82,0-.82h2.05c0-2.25,1.85-4.1,4.1-4.1h9.23c3.98,0,7.17,3.2,7.17,7.18s-3.2,7.17-7.17,7.17h-5.12c-1.8,0-3.28,1.48-3.28,3.28v6.15c0,1.8,1.48,3.28,3.28,3.28h4.1c1.8,0,3.28-1.48,3.28-3.28h-2.05s0-.82,0-.82h9.02s0,.82,0,.82h-2.05c0,2.25-1.85,4.1-4.1,4.1h-12.3c-2.26,0-4.1-1.84-4.1-4.1v-6.15c0-2.26,1.84-4.1,4.1-4.1h5.12c3.49,0,6.36-2.83,6.36-6.35s-2.86-6.36-6.35-6.36h-1.02Z"/><path class="cls-2" d="m129.27,346.57s2.3,1.07,2.3,3.69v6.15c0,2.25-1.82,4.1-4.1,4.1h-12.3c-2.28,0-4.1-1.85-4.1-4.1v-2.87s-2.05,0-2.05,0v-.82s9.02,0,9.02,0v.82s-2.05,0-2.05,0v2.87c0,1.8,1.48,3.28,3.28,3.28h4.1c1.8,0,3.28-1.48,3.28-3.28v-6.15c0-1.8-1.48-3.28-3.28-3.28h-4.1s0-.82,0-.82h4.1c1.8,0,3.28-1.48,3.28-3.28v-6.15c0-1.8-1.48-3.28-3.28-3.28h-4.1c-1.8,0-3.28,1.48-3.28,3.28v2.5s2.05,0,2.05,0v.82s-9.01,0-9.01,0v-.82s2.04,0,2.04,0v-2.5c0-2.25,1.84-4.1,4.1-4.1h12.3c2.26,0,4.1,1.85,4.1,4.1v6.15c0,2.62-2.3,3.69-2.3,3.69Z"/><path class="cls-2" d="m139.35,350.67c-2.26,0-4.1-1.84-4.1-4.1v-13.12s-2.05,0-2.05,0v-.82s9.02,0,9.02,0v.82s-2.05,0-2.05,0v13.12c0,1.8,1.48,3.28,3.28,3.28h4.1c1.8,0,3.28-1.48,3.28-3.28v-13.12s-2.05,0-2.05,0v-.82s9.02,0,9.02,0v.82s-2.05,0-2.05,0v26.24s2.05,0,2.05,0v.82s-9.02,0-9.02,0v-.82s2.05,0,2.05,0v-9.02s-11.48,0-11.48,0Z"/><path class="cls-2" d="m174.82,360.51h-9.23c-2.25,0-4.1-1.85-4.1-4.1h-2.05s0-.82,0-.82h9.02s0,.82,0,.82h-2.05c0,1.8,1.48,3.28,3.28,3.28h1.02c3.49,0,6.36-2.83,6.36-6.36v-3.69c0-3.53-2.87-6.36-6.35-6.36h-5.12c-2.26,0-4.1-1.84-4.1-4.1v-2.46c0-2.26,1.84-4.1,4.1-4.1h12.3c2.25,0,4.1,1.85,4.1,4.1h2.05s0,.82,0,.82h-9.02s0-.82,0-.82h2.05c0-1.8-1.48-3.28-3.28-3.28h-4.1c-1.8,0-3.28,1.48-3.28,3.28v2.46c0,1.8,1.48,3.28,3.28,3.28h5.12c3.98,0,7.17,3.2,7.17,7.17v3.69c0,3.98-3.2,7.18-7.17,7.18Z"/><path class="cls-2" d="m202.08,342.47c2.25,0,4.1,1.84,4.1,4.1v9.84c0,2.25-1.85,4.1-4.1,4.1h-12.3c-2.25,0-4.1-1.85-4.1-4.1v-19.68c0-2.25,1.85-4.1,4.1-4.1h12.3c2.25,0,4.1,1.85,4.1,4.1h2.05s0,.82,0,.82h-9.02s0-.82,0-.82h2.05c0-1.8-1.48-3.28-3.28-3.28h-4.1c-1.8,0-3.28,1.48-3.28,3.28v7.38s1.03-1.64,3.28-1.64h8.2Zm-8.2,17.22h4.1c1.8,0,3.28-1.48,3.28-3.28v-9.84c0-1.8-1.48-3.28-3.28-3.28h-4.1c-1.8,0-3.29,1.48-3.29,3.28v9.84c0,1.8,1.48,3.28,3.29,3.28Z"/><path class="cls-2" d="m222.5,359.69h2.75s0,.82,0,.82h-11.48s0-.82,0-.82h3.4s6.23-16.4,6.23-16.4h-3.28s0-.82,0-.82h3.56s3.44-9.02,3.44-9.02h-7.01c-1.8,0-3.28,1.48-3.28,3.28h2.05s0,.82,0,.82h-9.02s0-.82,0-.82h2.05c0-2.25,1.85-4.1,4.1-4.1h18.45s0,.82,0,.82h-2.05s-9.92,26.24-9.92,26.24Z"/><path class="cls-2" d="m236.11,350.26c0-2.62,2.3-3.69,2.3-3.69,0,0-2.3-1.07-2.3-3.69v-6.15c0-2.25,1.82-4.1,4.1-4.1h12.3c2.28,0,4.1,1.85,4.1,4.1v6.15c0,2.62-2.3,3.69-2.3,3.69,0,0,2.3,1.07,2.3,3.69v6.15c0,2.25-1.85,4.1-4.1,4.1h-12.3c-2.25,0-4.1-1.85-4.1-4.1v-6.15Zm8.2-4.1h4.1c1.8,0,3.28-1.48,3.28-3.28v-6.15c0-1.8-1.48-3.28-3.28-3.28h-4.1c-1.8,0-3.28,1.48-3.28,3.28v6.15c0,1.8,1.48,3.28,3.28,3.28Zm0,13.53h4.1c1.8,0,3.28-1.48,3.28-3.28v-6.15c0-1.8-1.48-3.28-3.28-3.28h-4.1c-1.8,0-3.28,1.48-3.28,3.28v6.15c0,1.8,1.48,3.28,3.28,3.28Z"/><path class="cls-2" d="m260.3,356.41h-2.05s0-.82,0-.82h9.02s0,.82,0,.82h-2.05c0,1.8,1.48,3.28,3.28,3.28h4.1c1.8,0,3.28-1.48,3.28-3.28v-2.46c0-1.84-1.48-3.28-3.28-3.28h-8.2c-2.26,0-4.1-1.84-4.1-4.1v-9.84c0-2.26,1.84-4.1,4.1-4.1h12.3c2.25,0,4.1,1.85,4.1,4.1v19.68c0,2.25-1.85,4.1-4.1,4.1h-12.1c-2.46,0-4.3-1.85-4.31-4.1Zm15.58-9.84v-9.84c0-1.8-1.48-3.28-3.28-3.28h-4.1c-1.8,0-3.28,1.48-3.28,3.28v9.84c0,1.8,1.48,3.28,3.28,3.28h4.1c1.8,0,3.28-1.48,3.28-3.28Z"/><path class="cls-2" d="m302.94,350.26c0,5.66-4.59,10.25-10.25,10.25s-10.25-4.59-10.25-10.25v-7.38c0-5.66,4.59-10.25,10.25-10.25s10.25,4.59,10.25,10.25v7.38Zm-15.58,4.06c0,2.95,2.38,5.37,5.33,5.37s5.33-2.42,5.33-5.37v-15.5c0-2.95-2.38-5.37-5.33-5.37s-5.33,2.42-5.33,5.37v15.5Z"/><path class="cls-2" d="m52.58,402.37h4.92c0,3.77-3.26,6.97-7.17,6.97h-6.15c-3.98,0-7.18-3.2-7.18-7.17s3.2-7.17,7.18-7.17v-6.97s4.92,0,4.92,0v7.79s-.82,0-.82,0c-3.49,0-6.36,2.83-6.36,6.36s2.25,6.35,5.33,6.35,5.33-2.83,5.33-6.15Zm-3.48-18.45c0-1.35-1.11-2.46-2.46-2.46s-2.46,1.11-2.46,2.46,1.11,2.46,2.46,2.46,2.46-1.11,2.46-2.46Z"/><path class="cls-2" d="m57.95,384.33h-4.92c0-3.77,3.26-6.97,7.17-6.97h6.15c3.98,0,7.18,3.2,7.18,7.18s-3.2,7.17-7.18,7.17v6.97s-4.92,0-4.92,0v-7.79s.82,0,.82,0c3.49,0,6.36-2.83,6.36-6.35s-2.26-6.36-5.33-6.36-5.33,2.83-5.33,6.15Zm3.48,18.45c0,1.35,1.11,2.46,2.46,2.46s2.46-1.11,2.46-2.46-1.11-2.46-2.46-2.46-2.46,1.11-2.46,2.46Z"/><path class="cls-2" d="m75.66,383.92c0-1.35,1.11-2.46,2.46-2.46s2.46,1.11,2.46,2.46-1.11,2.46-2.46,2.46-2.46-1.11-2.46-2.46Zm4.92,22.96c0,1.35-1.11,2.46-2.46,2.46s-2.46-1.11-2.46-2.46c0-1.43,2.05-18.86,2.05-18.86h.82s2.05,17.43,2.05,18.86Z"/><path class="cls-2" d="m87.55,398.68h-.82s-2.05-17.43-2.05-18.86c0-1.35,1.11-2.46,2.46-2.46s2.46,1.11,2.46,2.46c0,1.43-2.05,18.86-2.05,18.86Zm-.41,1.64c1.35,0,2.46,1.11,2.46,2.46s-1.11,2.46-2.46,2.46-2.46-1.11-2.46-2.46,1.11-2.46,2.46-2.46Z"/><path class="cls-2" d="m111.74,390.19c0-5.46-3.85-8.25-8.11-8.25-5.47,0-10.34,4.29-10.34,10.55,0,5.26,3.57,8.6,8.53,8.6,2.19,0,5.07-.91,7.05-2.38l.4.8c-2.63,1.79-5.37,2.41-7.53,2.41-4.8,0-9.27-3.06-9.27-9.4,0-7.15,5.69-11.41,11.25-11.41,5.12,0,8.84,3.64,8.84,9.03,0,4.9-3.1,7.13-5.7,7.13s-2.67-1.97-2.67-1.97c-.98,2.05-2.83,1.98-3.33,1.98-2.46,0-3.82-2.1-3.82-4.36,0-3.44,2.39-6.88,5.59-6.88,2.13,0,2.54,2.13,2.54,2.13l.46-1.67h2.19s-1.14,5.36-1.36,7.15c-.14,1.15-.23,2.8.92,2.8,1.92,0,4.34-2.25,4.34-6.27Zm-7.13,1.72c.45-2.54.16-5.04-1.54-5.04-2.07,0-3.47,3.41-3.47,5.9,0,2,.96,3.69,2.06,3.69,1.94,0,2.57-2.37,2.95-4.55Z"/><path class="cls-2" d="m125.64,386.05s0,5.49-4.84,5.49-4.96-5.45-4.96-5.45v-2.34s0-5.54,4.96-5.54,4.84,5.54,4.84,5.54v2.3Zm10.7-7.83h-1.02s-19.48,25.83-19.48,25.83h1.03s19.48-25.83,19.48-25.83Zm-17.59,7.26s0,5.24,2.05,5.25c1.97,0,2.05-5.25,2.05-5.25v-1.11s-.02-5.33-2.05-5.33-2.05,5.33-2.05,5.33v1.11Zm17.59,13.08s0,5.49-4.84,5.49-4.96-5.45-4.96-5.45v-2.34s0-5.54,4.96-5.54,4.84,5.54,4.84,5.54v2.3Zm-6.89-.57s0,5.24,2.05,5.25c1.97,0,2.05-5.25,2.05-5.25v-1.11s-.02-5.33-2.05-5.33-2.05,5.33-2.05,5.33v1.11Z"/><path class="cls-2" d="m153.56,391.71h-2.05s0-.82,0-.82h9.02s0,.82,0,.82h-2.05s-2.46,10.87-2.46,10.87l2.46,4.71h-5.7s-1.07-2.05-1.07-2.05h-9.64c-2.25,0-4.1-1.84-4.1-4.1v-5.45c0-3.85,2.27-4.39,5.78-5.9l-1.35-2.58c-.74-1.6-1.56-3.14-1.56-5.73,0-2.26,1.85-4.11,4.1-4.11h6.56c2.25,0,4.1,1.86,4.1,4.11,0,2.57-1.44,4.74-7.01,7.04l4,7.63.96-4.43Zm-9.43-1.15c-1.03.57-1.23,2.46-1.23,5.12v5.45c0,1.8,1.48,3.28,3.28,3.28h2.05c1.31,0,2.36-1.27,2.36-1.27l-6.46-12.59Zm6.56-9.09c0-1.8-.66-3.29-2.46-3.29s-2.46,1.49-2.46,3.29c0,2.08,2.46,6.3,2.46,6.3,2.71-1.27,2.46-4.46,2.46-6.3Z"/><path class="cls-2" d="m174.06,405.24h-5.74c-2.25,0-4.1-1.85-4.1-4.1h-2.05s0-.82,0-.82h9.02s0,.82,0,.82h-2.05c0,1.8,1.48,3.28,3.28,3.28h1.64s0-10.62,0-10.62l-5.74-2.34c-2.26-.94-4.1-2.79-4.1-6.07v-3.94c0-2.26,1.84-4.1,4.1-4.1h5.74s0-2.46,0-2.46h.82s0,2.46,0,2.46h5.74c2.25,0,4.1,1.85,4.1,4.1h2.05s0,.82,0,.82h-9.02s0-.82,0-.82h2.05c0-1.8-1.48-3.28-3.28-3.28h-1.64s0,10.67,0,10.67l5.74,2.33c2.3.78,4.1,2.83,4.1,6.11v3.85c0,2.3-1.84,4.1-4.1,4.1h-5.74s0,2.46,0,2.46h-.82s0-2.46,0-2.46Zm0-16.72v-10.34s-1.64,0-1.64,0c-1.8,0-3.28,1.48-3.28,3.28v2.05c0,1.84,1.08,3.46,3.28,4.35.01,0,1.64.66,1.64.66Zm.82,15.9h1.64c1.8,0,3.28-1.48,3.28-3.28v-2.05c0-1.8-1.08-3.43-3.28-4.3l-1.64-.66v10.29Z"/><path class="cls-2" d="m202.76,389.46v.82s-7.38,0-7.38,0v2.05s7.38,0,7.38,0v.82s-7.38,0-7.38,0v8c0,1.8,1.48,3.28,3.28,3.28h4.1c1.8,0,3.28-1.48,3.28-3.28h-2.05s0-.82,0-.82h9.02s0,.82,0,.82h-2.05c0,2.25-1.85,4.1-4.1,4.1h-12.3c-2.26,0-4.1-1.85-4.1-4.1v-8s-2.05,0-2.05,0v-.82s2.05,0,2.05,0v-2.05s-2.05,0-2.05,0v-.82s2.05,0,2.05,0v-8c0-2.25,1.84-4.1,4.1-4.1h12.3c2.25,0,4.1,1.85,4.1,4.1h2.05s0,.82,0,.82h-9.02s0-.82,0-.82h2.05c0-1.8-1.48-3.28-3.28-3.28h-4.1c-1.8,0-3.28,1.48-3.28,3.28v8s7.38,0,7.38,0Z"/><path class="cls-2" d="m229.41,399.5v4.92s2.34,0,2.34,0v.82s-9.59,0-9.59,0v-.82s2.34,0,2.34,0v-4.92s-2.87,0-2.87,0v-.82s2.87,0,2.87,0v-1.64s-2.87,0-2.87,0v-.82s2.87,0,2.87,0v-1.23s-7.7-16.81-7.7-16.81h-2.15s0-.82,0-.82h11.48s0,.82,0,.82h-3.93s7,15.21,7,15.21l5.33-11.93c.74-1.97-.12-3.28-2.17-3.28h-4.59s0-.82,0-.82h11.48s0,.82,0,.82h-2.34s-7.5,16.81-7.5,16.81v1.23s2.87,0,2.87,0v.82s-2.87,0-2.87,0v1.64s2.87,0,2.87,0v.82s-2.87,0-2.87,0Z"/><path class="cls-2" d="m263.44,381.46h2.05s0,.82,0,.82h-9.02s0-.82,0-.82h2.05c0-1.8-1.48-3.28-3.28-3.28h-1.03c-3.49,0-6.36,2.83-6.36,6.36,0,1.97,1.76,8.53,2.21,10.04h5.17s0,.82,0,.82h-4.97c.3,1.27.87,4.32.87,5.74,0,2.25-1.65,3.28-1.65,3.28h13.95s0,.82,0,.82h-22.55s0-.82,0-.82h2.05c1.8,0,3.28-1.48,3.28-3.28,0-1.28-1.05-5.74-1.05-5.74h-4.28s0-.82,0-.82h4.07s-2.02-8.04-2.02-10.04c0-3.98,3.2-7.18,7.17-7.18h9.23c2.25,0,4.1,1.85,4.1,4.1Z"/><path class="cls-2" d="m277.53,405.98c.1.04,1,.53,1,1.6,0,.98-.78,1.76-1.76,1.76s-1.76-.78-1.76-1.76h.82c0,.53.41.94.94.94s.94-.41.94-.94c0-.74-.62-.9-1.18-1.04l.35-1.3h-5.65c-2.26,0-4.1-1.85-4.1-4.1v-19.68c0-2.25,1.84-4.1,4.1-4.1h12.3c2.25,0,4.1,1.85,4.1,4.1h2.05s0,.82,0,.82h-9.02s0-.82,0-.82h2.05c0-1.8-1.48-3.28-3.28-3.28h-4.1c-1.8,0-3.28,1.48-3.28,3.28v19.68c0,1.8,1.48,3.28,3.28,3.28h4.1c1.8,0,3.28-1.48,3.28-3.28h-2.05s0-.82,0-.82h9.02s0,.82,0,.82h-2.05c0,2.25-1.85,4.1-4.1,4.1h-5.8s-.2.74-.2.74Z"/><path class="cls-2" d="m301.72,405.98c.1.04,1,.53,1,1.6,0,.98-.78,1.76-1.76,1.76s-1.76-.78-1.76-1.76h.82c0,.53.41.94.94.94s.94-.41.94-.94c0-.74-.62-.9-1.18-1.04l.35-1.3h-5.65c-2.26,0-4.1-1.85-4.1-4.1v-13.53c0-2.25,1.84-4.1,4.1-4.1h12.3c2.25,0,4.1,1.84,4.1,4.1h2.05s0,.82,0,.82h-9.02s0-.82,0-.82h2.05c0-1.8-1.48-3.28-3.28-3.28h-4.1c-1.8,0-3.28,1.48-3.28,3.28v13.53c0,1.8,1.48,3.28,3.28,3.28h4.1c1.8,0,3.28-1.48,3.28-3.28h-2.05s0-.82,0-.82h9.02s0,.82,0,.82h-2.05c0,2.25-1.85,4.1-4.1,4.1h-5.8s-.2.74-.2.74Z"/><path class="cls-2" d="m327.81,404.42c1.8,0,3.28-1.48,3.28-3.28h-2.05s0-.82,0-.82h9.02s0,.82,0,.82h-2.05c0,2.25-1.85,4.1-4.1,4.1h-5.74s0,2.05,0,2.05h-.82s0-2.05,0-2.05h-5.74c-2.26,0-4.1-1.85-4.1-4.1v-13.53c0-2.25,1.84-4.1,4.1-4.1h5.74s0-2.05,0-2.05h.82s0,2.05,0,2.05h5.74c2.25,0,4.1,1.84,4.1,4.1h2.05s0,.82,0,.82h-9.02s0-.82,0-.82h2.05c0-1.8-1.48-3.28-3.28-3.28h-1.64s0,20.09,0,20.09h1.64Zm-2.46-20.09h-1.64c-1.8,0-3.28,1.48-3.28,3.28v13.53c0,1.8,1.48,3.28,3.28,3.28h1.64s0-20.09,0-20.09Z"/><path class="cls-2" d="m112.44,449.77c0-1.97.01-8.9,0-10.87,0-1.64-2.67-2.87-2.67-2.87,0,0,2.67-1.23,2.67-2.87,0-1.97,0-8.9,0-10.87,0-3.28,4.1-3.08,4.55-3.08v.82c-2.09,0-3.73.78-3.73,2.25v10.87c0,1.64-1.69,2.87-1.69,2.87,0,0,1.7,1.23,1.69,2.87-.01,1.97,0,8.9,0,10.87,0,1.48,1.64,2.25,3.73,2.25v.82c-.45,0-4.55.2-4.55-3.08Z"/><path class="cls-2" d="m131.34,452.84v-33.62s4.72,0,4.72,0v.82s-3.9,0-3.9,0v31.98s3.89,0,3.89,0v.82s-4.72,0-4.72,0Z"/><path class="cls-2" d="m150.4,436.03c0-12.59,7.63-16.81,7.63-16.81h1.26s-8.07,4.72-8.07,16.81,8.07,16.81,8.07,16.81h-1.26s-7.63-4.22-7.63-16.81Z"/><path class="cls-2" d="m174.91,452.84h-1.26s8.07-4.72,8.07-16.81-8.07-16.81-8.07-16.81h1.26s7.63,4.22,7.63,16.81c0,12.59-7.63,16.81-7.63,16.81Z"/><path class="cls-2" d="m196.08,452.84v-.82s3.9,0,3.9,0v-31.98s-3.89,0-3.89,0v-.82s4.71,0,4.71,0v33.62s-4.72,0-4.72,0Z"/><path class="cls-2" d="m215.14,452.84v-.82c2.09,0,3.73-.78,3.73-2.25,0-1.97.01-8.9,0-10.87-.01-1.64,1.69-2.87,1.69-2.87,0,0-1.69-1.23-1.69-2.87v-10.87c0-1.48-1.64-2.25-3.73-2.25v-.82c.45,0,4.55-.21,4.55,3.08,0,1.97,0,8.9,0,10.87,0,1.64,2.66,2.87,2.66,2.87,0,0-2.66,1.23-2.66,2.87-.01,1.97,0,8.9,0,10.87,0,3.28-4.1,3.08-4.55,3.08Z"/><path class="cls-2" d="m248.43,419.22h.86s-10.91,33.62-10.91,33.62h-.86s10.9-33.62,10.9-33.62Z"/><path class="cls-2" d="m265.28,452.84h-.82s0-33.62,0-33.62h.82s0,33.62,0,33.62Z"/><path class="cls-2" d="m80.89,489.78c1.35,0,2.46,1.11,2.46,2.46s-1.11,2.46-2.46,2.46-2.46-1.11-2.46-2.46,1.11-2.46,2.46-2.46Z"/><path class="cls-2" d="m89.96,494.33s-.46.37-1.28.37c-1.35,0-2.46-1.11-2.46-2.46s1.11-2.46,2.46-2.46,2.45,1.11,2.46,2.46c.04,4.51-2.3,6.56-4.92,6.56v-.82c2.17,0,3.73-2.09,3.74-3.65Z"/><path class="cls-2" d="m97.7,478.3c1.35,0,2.46,1.11,2.46,2.46s-1.11,2.46-2.46,2.46-2.46-1.11-2.46-2.46,1.11-2.46,2.46-2.46Zm0,11.48c1.35,0,2.46,1.11,2.46,2.46s-1.11,2.46-2.46,2.46-2.46-1.11-2.46-2.46,1.11-2.46,2.46-2.46Z"/><path class="cls-2" d="m106.72,478.3c1.35,0,2.46,1.11,2.46,2.46s-1.11,2.46-2.46,2.46-2.46-1.11-2.46-2.46,1.11-2.46,2.46-2.46Zm-2.46,19.68v.82c2.62,0,4.96-2.05,4.92-6.56-.01-1.35-1.11-2.46-2.46-2.46s-2.46,1.11-2.46,2.46,1.11,2.46,2.46,2.46c.82,0,1.28-.37,1.28-.37,0,1.56-1.56,3.65-3.74,3.65Z"/><path class="cls-2" d="m118.61,480.35v.82s-6.56,0-6.56,0v-.82s6.56,0,6.56,0Z"/><path class="cls-2" d="m133.74,493.88v.82s-12.3,0-12.3,0v-.82s12.3,0,12.3,0Z"/><path class="cls-2" d="m148.05,478.92h-11.48s0-.82,0-.82h11.48s0,.82,0,.82Zm0,4.51h-11.48s0-.82,0-.82h11.48s0,.82,0,.82Z"/><path class="cls-2" d="m153.66,480.76l5.45,3.53v.98s-6.99-4.51-6.99-4.51l6.99-4.51v.98s-5.45,3.53-5.45,3.53Z"/><path class="cls-2" d="m164.73,477.24v-.98s6.99,4.51,6.99,4.51l-6.99,4.51v-.98s5.45-3.53,5.45-3.53l-5.45-3.53Z"/><path class="cls-2" d="m179.69,485.27h-1.11s-4-4.51-4-4.51l4.01-4.43h1.11s-4,4.43-4,4.43l3.99,4.51Zm3.46,0h-1.11s-4-4.51-4-4.51l4.01-4.43h1.11s-4,4.43-4,4.43l3.99,4.51Z"/><path class="cls-2" d="m189.98,480.76l-4-4.43h1.11s4.01,4.43,4.01,4.43l-4,4.5h-1.11s3.99-4.5,3.99-4.5Zm3.46,0l-4-4.43h1.11s4.01,4.43,4.01,4.43l-4,4.5h-1.11s4-4.5,4-4.5Z"/><path class="cls-2" d="m199.41,466.82h.86s-2,6.15-2,6.15h-.86s1.99-6.15,1.99-6.15Zm2.86,0h.86s-2,6.15-2,6.15h-.86s1.99-6.15,1.99-6.15Z"/><path class="cls-2" d="m207.98,466.82h.86s-2,6.15-2,6.15h-.86s1.99-6.15,1.99-6.15Zm2.86,0h.86s-2,6.15-2,6.15h-.86s1.99-6.15,1.99-6.15Z"/><path class="cls-2" d="m214.59,466.82h.86s0,6.15,0,6.15h-.86s0-6.15,0-6.15Z"/><path class="cls-2" d="m224.47,480.35h5.33s0,.82,0,.82h-5.33s0,5.33,0,5.33h-.82s0-5.33,0-5.33h-5.33s0-.82,0-.82h5.33s0-5.33,0-5.33h.82s0,5.33,0,5.33Z"/><path class="cls-2" d="m238.82,480.35h5.33s0,.82,0,.82h-5.33s0,5.33,0,5.33h-.82s0-5.33,0-5.33h-5.33s0-.82,0-.82h5.33s0-5.33,0-5.33h.82s0,5.33,0,5.33Zm-6.15,8.61v.82s11.48,0,11.48,0v-.82s-11.48,0-11.48,0Z"/><path class="cls-2" d="m258.5,480.35v.82s-11.48,0-11.48,0v-.82s11.48,0,11.48,0Zm-5.74-7.79c1.35,0,2.46,1.11,2.46,2.46s-1.11,2.46-2.46,2.46-2.46-1.11-2.46-2.46,1.11-2.46,2.46-2.46Zm0,11.48c1.35,0,2.46,1.11,2.46,2.46s-1.11,2.46-2.46,2.46-2.46-1.11-2.46-2.46,1.11-2.46,2.46-2.46Z"/><path class="cls-2" d="m285.51,476.87l-.27.82h-6.64s-2.07,6.31-2.07,6.31h6.66s-.27.82-.27.82h-6.66s-1.99,6.11-1.99,6.11h-.86s1.99-6.11,1.99-6.11h-6.66s-1.97,6.11-1.97,6.11h-.86s1.97-6.11,1.97-6.11h-6.52s.27-.82.27-.82h6.52s2.09-6.32,2.09-6.32h-6.56s.27-.82.27-.82h6.56s2.09-6.44,2.09-6.44h.86s-2.09,6.44-2.09,6.44h6.64s2.09-6.44,2.09-6.44h.86s-2.09,6.44-2.09,6.44h6.64Zm-14.41.82l-2.09,6.31h6.66s2.07-6.31,2.07-6.31h-6.64Z"/><path class="cls-2" d="m290.97,463.3l-2.62-1.44.82-1.42,2.54,1.59-.04-2.99h1.64s-.04,2.99-.04,2.99l2.54-1.59.82,1.42-2.62,1.44,2.62,1.44-.82,1.42-2.54-1.59.04,3.03h-1.64s.04-3.03.04-3.03l-2.54,1.59-.82-1.42,2.62-1.44Z"/></g></svg>