<?xml version="1.0" encoding="UTF-8"?><svg id="Capa_2" xmlns="http://www.w3.org/2000/svg" viewBox="0 0 42.83 6.91"><defs><style>.cls-1{fill:#1d1d1b;}</style></defs><g id="Capa_1-2"><path class="cls-1" d="m3.35,6.59c-.36.21-.81.31-1.35.31-.66,0-1.2-.17-1.63-.5-.25-.29-.37-.57-.37-.83s.08-.38.25-.38c.2,0,.3.1.3.31,0,.29.19.51.58.67.24.1.53.14.87.14s.64-.05.92-.16c.36-.15.54-.37.54-.66,0-.42-.48-.68-1.44-.79-.41-.05-.71-.1-.89-.14-.65-.18-.97-.54-.97-1.08,0-.42.22-.75.66-.98.34-.17.72-.26,1.15-.26.56,0,1.04.14,1.42.43.28.3.42.57.42.8s-.1.36-.29.36c-.17,0-.27-.11-.29-.32-.01-.15-.1-.29-.27-.41-.22-.17-.55-.25-.98-.25-.22,0-.41.02-.56.06-.15.04-.3.1-.43.2-.16.12-.24.24-.24.38,0,.15.1.28.29.39.15.09.43.16.83.2.58.06.97.14,1.18.23h-.01c.66.23.99.62.99,1.18,0,.49-.23.87-.69,1.11Z"/><path class="cls-1" d="m5.89,4.76c.1.5.31.88.65,1.14s.76.4,1.27.4c.67,0,1.13-.17,1.38-.5.05-.07.14-.1.25-.1.19,0,.29.1.29.29,0,.09-.12.26-.37.5-.11.11-.27.2-.48.26-.36.1-.71.15-1.06.15-.73,0-1.33-.22-1.81-.66-.48-.44-.72-1.03-.72-1.76,0-.67.23-1.21.68-1.63.46-.42,1.02-.63,1.68-.63.71,0,1.28.22,1.71.66s.65,1.01.65,1.72v.05c0,.07-.03.1-.1.1h-4.02Zm.65-1.57c-.32.23-.53.55-.62.96h3.46c-.21-.87-.79-1.31-1.73-1.31-.42,0-.79.12-1.11.35Z"/><path class="cls-1" d="m18.24,6.75h-.9c-.25,0-.38-.1-.38-.31,0-.19.13-.29.38-.29h.13v-2.38c0-.26-.09-.48-.28-.66-.19-.18-.42-.27-.68-.27-.18,0-.39.09-.63.27-.25.23-.44.43-.57.58v2.46h.15c.25,0,.37.1.37.29,0,.21-.12.31-.37.31h-.92c-.25,0-.38-.1-.38-.31,0-.19.13-.29.38-.29h.15v-2.38c0-.26-.1-.48-.29-.66-.19-.18-.42-.27-.68-.27-.18,0-.39.09-.64.27-.13.1-.34.31-.63.64v2.4h.17c.25,0,.37.1.37.29,0,.21-.12.31-.37.31h-.96c-.25,0-.37-.1-.37-.31,0-.19.12-.29.37-.29h.18v-3.15h-.15c-.25,0-.37-.1-.37-.31s.12-.31.37-.31h.66c.07,0,.1.03.1.1v.37c.44-.41.86-.62,1.27-.62.57,0,1.02.24,1.34.73l.02.04c.56-.51,1.03-.77,1.42-.77.57,0,1.01.24,1.33.73.16.25.25.5.25.73v2.45h.14c.25,0,.37.1.37.29,0,.21-.12.31-.37.31Z"/><path class="cls-1" d="m24.53,6.22c-.42.46-.96.69-1.62.69s-1.22-.26-1.68-.78v.52c0,.07-.04.1-.1.1h-.85c-.25,0-.37-.1-.37-.31s.12-.3.37-.3h.35V1.05h-.35c-.25,0-.37-.1-.37-.31s.12-.31.37-.31h.85c.07,0,.1.03.1.09v2.44c.46-.53,1.02-.79,1.68-.79s1.21.22,1.63.67.63,1.01.63,1.68-.21,1.23-.63,1.69Zm-.44-2.92c-.31-.34-.71-.51-1.19-.51s-.9.17-1.21.51c-.31.34-.46.76-.46,1.25s.16.93.47,1.25c.31.33.71.49,1.2.49s.88-.17,1.19-.5c.31-.34.47-.75.47-1.24s-.16-.9-.47-1.25Z"/><path class="cls-1" d="m30.07,3.39c-.09.22-.21.33-.36.32-.12,0-.19-.07-.19-.21,0-.03.01-.08.04-.14.02-.06.04-.11.05-.13s.01-.05.01-.07c-.02-.05-.13-.12-.34-.19-.25-.08-.42-.12-.53-.12-.39,0-.71.16-.97.47-.06.1-.11.18-.14.23v2.61h.34c.25,0,.37.1.37.29,0,.21-.12.31-.37.31h-1.22c-.24,0-.36-.1-.36-.31,0-.19.12-.29.36-.29h.29v-3.15h-.21c-.25,0-.38-.1-.38-.31s.13-.31.38-.31h.7c.06,0,.09.03.09.1v.19c.32-.29.69-.43,1.13-.43.48,0,.84.12,1.09.36.04-.05.1-.08.17-.08.04,0,.08,0,.1.02.11.06.17.13.17.24,0,.05-.01.11-.04.17l-.19.44Z"/><path class="cls-1" d="m32.72,6.75h-1.15c-.23,0-.34-.1-.34-.31s.11-.3.34-.3h.32v-3.19h-.25c-.23,0-.35-.1-.35-.31s.12-.31.35-.31h.71c.06,0,.09.03.09.1v3.72h.28c.23,0,.35.1.35.3s-.12.31-.35.31Zm-.31-5.46c-.08.19-.2.29-.35.29-.18,0-.3-.11-.37-.32-.05-.11-.08-.26-.08-.46,0-.15.03-.31.09-.46.09-.22.21-.33.36-.33s.27.1.35.3c.06.15.09.32.09.5s-.03.35-.09.49Z"/><path class="cls-1" d="m36.15,2.95h-.67v3.19h.24c.24,0,.36.1.36.31s-.12.3-.36.3h-.9c-.23,0-.35-.1-.35-.3s.12-.31.35-.31h.09v-3.19h-.26c-.23,0-.35-.1-.35-.3s.12-.3.35-.3h.26v-1.1c0-.25.09-.37.28-.37s.29.12.29.37v1.1h.67c.24,0,.36.1.36.3s-.12.3-.36.3Z"/><path class="cls-1" d="m42.45,6.75h-.86c-.07,0-.1-.03-.1-.1v-.5c-.47.51-1.02.76-1.67.76s-1.2-.22-1.62-.67c-.42-.45-.64-1.01-.64-1.67s.21-1.22.64-1.66c.42-.44.97-.66,1.62-.66s1.19.26,1.67.78v-.72c0-.07.03-.1.1-.1h.86c.25,0,.37.1.37.31s-.12.31-.37.31h-.35v3.35h.35c.25,0,.37.1.37.29,0,.21-.12.31-.37.31Zm-1.42-3.41c-.31-.33-.7-.49-1.19-.49s-.9.16-1.21.49-.46.74-.46,1.24.16.92.47,1.24c.31.33.71.49,1.2.49s.88-.17,1.18-.5c.31-.33.46-.74.46-1.23s-.15-.91-.46-1.24Z"/></g></svg>