<?xml version="1.0" encoding="UTF-8"?><svg id="Capa_2" xmlns="http://www.w3.org/2000/svg" viewBox="0 0 24 24"><defs><style>.cls-1{fill:#fff;}.cls-2{fill:none;}</style></defs><g id="Capa_16"><rect class="cls-2" width="24" height="24"/></g><g id="Capa_14"><path class="cls-1" d="m8,11.95c0-1.03.48-1.96,1.24-2.43.24-.14.54-.07.69.17.14.24.07.54-.17.69-.46.28-.76.9-.76,1.58s.3,1.29.75,1.57c.23.15.31.45.16.69-.15.23-.45.31-.69.16-.76-.47-1.23-1.4-1.23-2.42Z"/><path class="cls-1" d="m8.5,6.45v-3.36c0-1.2.76-2.14,1.73-2.14h3.54c.95,0,1.73.96,1.73,2.14v3.36h-1v-3.36c0-.61-.34-1.14-.73-1.14h-3.54c-.39,0-.73.53-.73,1.14v3.36h-1Z"/><path class="cls-1" d="m8.5,20.8v-3.36h1v3.36c0,.61.34,1.14.73,1.14h3.54c.39,0,.73-.53.73-1.14v-3.36h1v3.36c0,1.18-.78,2.14-1.73,2.14h-3.54c-.97,0-1.73-.94-1.73-2.14Z"/><path class="cls-1" d="m5,11.95c0-3.86,3.14-7,7-7s7,3.14,7,7-3.14,7-7,7-7-3.14-7-7Zm13,0c0-3.31-2.69-6-6-6s-6,2.69-6,6,2.69,6,6,6,6-2.69,6-6Z"/><path class="cls-1" d="m1,12.45c0-.28.22-.5.5-.5s.5.22.5.5c0,3.87,2.67,7.29,6.65,8.52.26.08.41.36.33.62-.08.26-.36.41-.62.33C3.95,20.57,1,16.76,1,12.45Z"/><path class="cls-1" d="m14.87,2.77l.31-.95.48.15c4.39,1.43,7.35,5.44,7.35,9.98s-2.94,8.54-7.32,9.97l-.48.16-.31-.95.48-.16c3.97-1.3,6.63-4.93,6.63-9.02s-2.67-7.73-6.65-9.03l-.48-.15Z"/><path class="cls-1" d="m1.82,16.25l.88-.48.24.44c1.24,2.26,3.27,3.96,5.72,4.77l.47.16-.31.95-.47-.16c-2.69-.89-4.92-2.75-6.28-5.23l-.24-.44Z"/></g></svg>