<?xml version="1.0" encoding="UTF-8"?><svg id="Capa_2" xmlns="http://www.w3.org/2000/svg" viewBox="0 0 22 22"><defs><style>.cls-1{fill:#fff;}.cls-2{stroke:#fff;stroke-linecap:round;stroke-linejoin:round;}.cls-2,.cls-3{fill:none;}.cls-4{fill:#00ff42;}.cls-3{stroke:red;stroke-miterlimit:10;stroke-width:.1px;}.cls-5{fill:#0025ff;}.cls-6{fill:#c000ff;}</style></defs><g id="Capa_2-2"><g id="Capa_20"><rect class="cls-3" x="1" y="1" width="20" height="20"/><path class="cls-4" d="m21.9,19.9H.11V2.09h21.79v17.81m.1.1V1.99H.01v18.01h21.99Z"/><path class="cls-6" d="m19.89,21.9H2.08V.1h17.81v21.8m.1.1V0H1.98v22h18.01Z"/><path class="cls-5" d="m21.89,11c0,6-4.88,10.89-10.89,10.89S.11,17.01.11,11,5,.11,11,.11s10.89,4.89,10.89,10.89m.1,0c0-6.07-4.92-10.99-10.99-10.99S.01,4.93.01,11s4.92,10.99,10.99,10.99,10.99-4.92,10.99-10.99h0Z"/></g><g id="Blog"><path class="cls-1" d="m5.5,5.5v6c0,.28-.22.5-.5.5h0c-.28,0-.5-.22-.5-.5v-6c0-.28.22-.5.5-.5h0c.28,0,.5.22.5.5Z"/><path class="cls-1" d="m9.5,5.5v8c0,.28-.22.5-.5.5h0c-.28,0-.5-.22-.5-.5V5.5c0-.28.22-.5.5-.5h0c.28,0,.5.22.5.5Z"/><path class="cls-1" d="m13.5,5.5v8c0,.28-.22.5-.5.5h0c-.28,0-.5-.22-.5-.5V5.5c0-.28.22-.5.5-.5h0c.28,0,.5.22.5.5Z"/><path class="cls-1" d="m17.5,5.5v8c0,.28-.22.5-.5.5h0c-.28,0-.5-.22-.5-.5V5.5c0-.28.22-.5.5-.5h0c.28,0,.5.22.5.5Z"/><line class="cls-2" x1="5.68" y1="14.5" x2="5" y2="11.73"/><line class="cls-2" x1="5.01" y1="11.5" x2="8" y2="12.48"/><polyline class="cls-2" points="7.34 16.5 .5 16.5 .5 2.5 21.5 2.5 21.5 16.5 12.25 16.5"/><polyline class="cls-2" points="7.86 12.5 15.25 19.32 13.14 21.5 5.75 14.68"/></g></g></svg>