<?xml version="1.0" encoding="UTF-8"?><svg id="Capa_2" xmlns="http://www.w3.org/2000/svg" viewBox="0 0 24 24"><defs><style>.cls-1{fill:#fff;}.cls-2{fill:none;}</style></defs><g id="Capa_20"><rect class="cls-2" width="24" height="24" transform="translate(0 24) rotate(-90)"/></g><g id="Capa_17"><path class="cls-1" d="m5,6.81c0-1.44.5-2.66,1.5-3.57,1.81-1.64,4.8-1.73,7.26-.22.24.14.31.45.16.69-.14.24-.45.31-.69.16-2.09-1.28-4.58-1.23-6.06.11-1.46,1.33-1.56,3.6-.27,6.24.12.25.02.55-.23.67-.25.12-.55.02-.67-.23-.67-1.38-1.01-2.68-1.01-3.85Z"/><path class="cls-1" d="m1,11.7v-4.5c0-.23.16-.43.39-.49.23-.05.46.06.56.27,1.07,2.18,2.51,2.78,4.63,3.1.27.04.46.3.42.57-.04.27-.3.46-.57.42-1.79-.27-3.27-.78-4.43-2.16v2.79c0,.28-.22.5-.5.5s-.5-.22-.5-.5Z"/><path class="cls-1" d="m13,20.45c0-.16.08-.32.23-.42,1.03-.67,1.64-1.65,2.34-2.79,1.11-1.8,2.35-3.83,5.62-5.26-3.27-1.44-4.52-3.48-5.62-5.3-.7-1.15-1.3-2.14-2.34-2.81-.23-.15-.3-.46-.15-.69.15-.23.46-.3.69-.15,1.23.79,1.92,1.92,2.65,3.13,1.09,1.79,2.33,3.82,5.76,5.14l.5.19c.19.07.32.25.32.46,0,.19-.11.39-.3.47l-.49.22c-3.46,1.33-4.7,3.35-5.79,5.13-.73,1.19-1.43,2.32-2.65,3.11-.23.15-.54.08-.69-.15-.05-.08-.08-.18-.08-.27Z"/><path class="cls-1" d="m5,17.08c0-1.17.33-2.47,1.01-3.85.12-.25.42-.35.67-.23.25.12.35.42.23.67-1.29,2.64-1.19,4.92.27,6.24,1.48,1.35,3.98,1.39,6.06.11.24-.14.54-.07.69.16.14.24.07.54-.16.69-2.46,1.51-5.45,1.42-7.26-.22-1-.91-1.5-2.13-1.5-3.57Z"/><path class="cls-1" d="m1,16.7v-6.51c0-.27.22-.5.5-.5s.5.22.5.5v4.81c1.16-1.38,2.64-1.88,4.43-2.15.27-.04.53.15.57.42.03.27-.15.52-.42.57-2.12.32-3.55.92-4.63,3.08-.1.21-.34.32-.56.26-.23-.05-.39-.25-.39-.48Z"/></g></svg>