<?xml version="1.0" encoding="UTF-8"?><svg id="Capa_2" xmlns="http://www.w3.org/2000/svg" viewBox="0 0 24 24"><defs><style>.cls-1{fill:#fff;}.cls-2{fill:none;}</style></defs><g id="Slots"><path class="cls-1" d="m18,20.45c-.72.47-2.8,1.5-7,1.5-3.72,0-5.77-.81-6.69-1.31-.19-.11-.31-.31-.31-.53v-8s0-.2,0-.2V3.44c.72-.46,2.8-1.5,7-1.5s6.29,1.04,7,1.49v3.86s0,4.67,0,4.67v8.47m1-8.41V3.23c0-.19-.09-.37-.24-.48-.69-.5-2.92-1.8-7.76-1.8s-7.07,1.3-7.76,1.8c-.15.11-.24.29-.24.48v17.43c0,.19.09.37.24.48.69.5,2.92,1.8,7.76,1.8s7.07-1.3,7.76-1.8c.15-.11.24-.29.24-.48v-8.62Z"/><path class="cls-1" d="m7,17.45c0-.06.01-.12.04-.19.1-.26.39-.38.65-.28l4.31,1.73v-1.76c-.28,0-.5-.22-.5-.5s.22-.5.5-.5h.5c.28,0,.5.22.5.5v3c0,.17-.08.32-.22.41-.14.09-.31.11-.47.05l-5-2c-.2-.08-.31-.27-.31-.46Z"/><path class="cls-1" d="m7,5.45c0-.06.01-.12.04-.19.1-.26.39-.38.65-.28l4.31,1.73v-1.76c-.28,0-.5-.22-.5-.5s.22-.5.5-.5h.5c.28,0,.5.22.5.5v3c0,.17-.08.32-.22.41-.14.09-.31.11-.47.05l-5-2c-.2-.08-.31-.27-.31-.46Z"/><path class="cls-1" d="m6,11.35c0-.05,0-.11.03-.16.09-.26.37-.4.64-.31l8.34,2.87v-3.8h-.5c-.28,0-.5-.22-.5-.5s.22-.5.5-.5h1c.28,0,.5.22.5.5v5c0,.16-.08.31-.21.41-.13.09-.3.12-.45.07l-9-3.1c-.21-.07-.34-.27-.34-.47Z"/><path class="cls-1" d="m20.13,9.57h0s0,0,0,0m-.13,4.84l-1,.67v-6.26l1,.67v4.93m1,.16v-5.25c0-.23-.12-.45-.31-.58l-2.69-1.79v10l2.69-1.79c.19-.13.31-.35.31-.58h0Z"/></g><g id="Deportes"><rect class="cls-2" width="24" height="24" transform="translate(24) rotate(90)"/></g></svg>