<?xml version="1.0" encoding="UTF-8"?><svg id="Capa_2" xmlns="http://www.w3.org/2000/svg" viewBox="0 0 24 24"><defs><style>.cls-1{fill:#fff;}.cls-2{fill:none;}</style></defs><g id="Capa_18"><rect class="cls-2" width="24" height="24"/></g><g id="Capa_16"><path class="cls-1" d="m18,21.45s0-.07.01-.11c.8-3.74,2.96-7.63,3.77-9.1.07-.12.12-.22.16-.29-.04-.08-.1-.17-.16-.29-.81-1.47-2.97-5.37-3.77-9.1-.06-.27.11-.54.38-.59.27-.06.54.11.59.38.77,3.59,2.88,7.4,3.67,8.83.32.58.34.62.34.78s-.02.19-.34.78c-.79,1.43-2.89,5.24-3.67,8.83-.06.27-.32.44-.59.38-.23-.05-.39-.26-.39-.49Z"/><path class="cls-1" d="m1,11.97h0c0-.82,4.07-8.81,17.45-10.02.27-.02.52.18.54.45.02.29-.18.52-.45.54C6.19,4.07,2.48,11.03,2.03,11.97c.45.94,4.2,7.86,16.51,8.98.27.03.48.26.45.54-.02.27-.27.48-.54.45C5,20.72,1,12.8,1,11.97Z"/><path class="cls-1" d="m9.5,11.29c0-.13.05-.26.15-.36l2.65-2.6c.2-.19.51-.19.71,0,.19.2.19.51,0,.71l-2.28,2.24,4.64,4.55c.2.19.2.51,0,.71-.19.2-.51.2-.71,0l-5-4.9c-.1-.09-.15-.22-.15-.36Z"/></g></svg>