<?xml version="1.0" encoding="UTF-8"?><svg id="Capa_2" xmlns="http://www.w3.org/2000/svg" viewBox="0 0 24 24"><defs><style>.cls-1{fill:#fff;}.cls-2{fill:none;}</style></defs><g id="Ruleta"><path class="cls-1" d="m18,11.95c0,3.31-2.69,6-6,6s-6-2.69-6-6,2.69-6,6-6,6,2.69,6,6m1,0c0-3.87-3.13-7-7-7s-7,3.13-7,7,3.13,7,7,7,7-3.13,7-7h0Z"/><path class="cls-1" d="m22,11.95c0,5.51-4.49,10-10,10S2,17.46,2,11.95,6.49,1.95,12,1.95s10,4.49,10,10m1,0C23,5.87,18.08.95,12,.95S1,5.87,1,11.95s4.92,11,11,11,11-4.92,11-11h0Z"/><path class="cls-1" d="m11.5,9.45c0-.28.22-.5.5-.5s.5.22.5.5c0,1.1.9,2,2,2,.28,0,.5.22.5.5s-.22.5-.5.5c-1.65,0-3-1.35-3-3Z"/><path class="cls-1" d="m11.5,14.45c0-1.65,1.35-3,3-3h1c.28,0,.5.22.5.5s-.22.5-.5.5h-1c-1.1,0-2,.9-2,2,0,.28-.22.5-.5.5s-.5-.22-.5-.5Z"/><path class="cls-1" d="m9,11.95c0-.28.22-.5.5-.5,1.65,0,3,1.35,3,3v1c0,.28-.22.5-.5.5s-.5-.22-.5-.5v-1c0-1.1-.9-2-2-2-.28,0-.5-.22-.5-.5Z"/><path class="cls-1" d="m8,11.95c0-.28.22-.5.5-.5h1c1.1,0,2-.9,2-2v-1c0-.28.22-.5.5-.5s.5.22.5.5v1c0,1.65-1.35,3-3,3h-1c-.28,0-.5-.22-.5-.5Z"/><g id="Capa_5"><rect class="cls-1" x="9.5" y="19.95" width="5" height="1" rx=".5" ry=".5" transform="translate(32.45 8.45) rotate(90)"/><rect class="cls-1" x="9.5" y="2.95" width="5" height="1" rx=".5" ry=".5" transform="translate(15.45 -8.55) rotate(90)"/><rect class="cls-1" x="20" y="9.45" width="1" height="5" rx=".5" ry=".5" transform="translate(32.45 -8.55) rotate(90)"/><rect class="cls-1" x="3" y="9.45" width="1" height="5" rx=".5" ry=".5" transform="translate(15.45 8.45) rotate(90)"/><rect class="cls-1" x="5.5" y="15.83" width="1" height="4.24" rx=".5" ry=".5" transform="translate(14.45 1.01) rotate(45)"/><rect class="cls-1" x="17.5" y="3.83" width="1" height="4.24" rx=".5" ry=".5" transform="translate(9.48 -10.99) rotate(45)"/><rect class="cls-1" x="5.5" y="3.83" width="1" height="4.24" rx=".5" ry=".5" transform="translate(14.45 5.91) rotate(135)"/><rect class="cls-1" x="17.5" y="15.83" width="1" height="4.24" rx=".5" ry=".5" transform="translate(43.42 17.91) rotate(135)"/></g></g><g id="Deportes"><rect class="cls-2" width="24" height="24" transform="translate(24) rotate(90)"/></g></svg>