<?xml version="1.0" encoding="UTF-8"?><svg id="Capa_2" xmlns="http://www.w3.org/2000/svg" viewBox="0 0 24 24"><defs><style>.cls-1{fill:#fff;}.cls-2{fill:none;}</style></defs><g id="Capa_20"><path class="cls-1" d="m20.3,20.81c.41-.99-.05-2.13-1.02-2.54l-8.96-3.83,4.02-1.7c.61-.26,1.02-.81,1.14-1.42,0,0,0-.02,0-.03,0-.05.02-.1.02-.16,0-.02,0-.05,0-.07,0-.04,0-.08,0-.12,0-.03,0-.06,0-.09,0-.03,0-.06,0-.09,0-.04-.01-.08-.02-.13,0-.02,0-.04,0-.06-.12-.62-.53-1.16-1.14-1.42l-4.02-1.7,4.02-1.7c.97-.41,1.43-1.55,1.03-2.54-.4-.99-1.52-1.46-2.49-1.05l-8.25,3.5c-.71.3-1.17,1.01-1.17,1.79s.46,1.49,1.17,1.79l4.02,1.71-4.02,1.71c-.71.3-1.17,1.01-1.17,1.79s.46,1.49,1.17,1.79l4.12,1.75,9.06,3.87c.97.42,2.09-.05,2.5-1.04Z"/><rect class="cls-2" width="24" height="24" transform="translate(24 24) rotate(180)"/></g></svg>