<?xml version="1.0" encoding="UTF-8"?><svg id="Capa_2" xmlns="http://www.w3.org/2000/svg" viewBox="0 0 24 24"><defs><style>.cls-1{fill:#fff;}.cls-2{fill:none;}</style></defs><g id="Capa_15"><rect class="cls-2" width="24" height="24" transform="translate(24) rotate(90)"/></g><g id="Deportes"><path class="cls-1" d="m22.01,4v16H2.05V4h19.96m.4-1H1.72c-.37,0-.67.3-.67.67v16.66c0,.37.3.67.67.67h20.62c.37,0,.67-.3.67-.67V3.6c0-.33-.27-.6-.6-.6h0Z"/><path class="cls-1" d="m12.05,10c1.1,0,2,.9,2,2s-.9,2-2,2-2-.9-2-2,.9-2,2-2m0-1c-1.66,0-3,1.34-3,3s1.34,3,3,3,3-1.34,3-3-1.34-3-3-3h0Z"/><rect class="cls-1" x="3.05" y="11.5" width="18" height="1" transform="translate(24.05 -.05) rotate(90)"/><path class="cls-1" d="m4.05,8.5v7h-2v-7h2m.5-1H1.55c-.28,0-.5.22-.5.5v8c0,.28.22.5.5.5h3c.28,0,.5-.22.5-.5V8c0-.28-.22-.5-.5-.5h0Z"/><path class="cls-1" d="m22.05,8.5v7h-2v-7h2m.5-1h-3c-.28,0-.5.22-.5.5v8c0,.28.22.5.5.5h3c.28,0,.5-.22.5-.5V8c0-.28-.22-.5-.5-.5h0Z"/></g></svg>