<?xml version="1.0" encoding="UTF-8"?><svg id="Capa_2" xmlns="http://www.w3.org/2000/svg" viewBox="0 0 24 24"><defs><style>.cls-1{fill:#fff;}.cls-2{fill:none;}</style></defs><g id="Capa_13"><path class="cls-1" d="m7.5,9.45c0-.09.02-.17.07-.25.09-.15.25-.25.43-.25h8c.18,0,.34.09.43.25.09.15.09.34,0,.5l-4,7c-.09.16-.25.25-.43.25s-.35-.1-.43-.25l-4-7c-.04-.08-.07-.16-.07-.25Zm7.64.5h-6.28l3.14,5.49,3.14-5.49Z"/><path class="cls-1" d="m18,20.45v-4c0-.28.22-.5.5-.5s.5.22.5.5v3.5h3.5c.28,0,.5.22.5.5s-.22.5-.5.5h-4c-.28,0-.5-.22-.5-.5Z"/><path class="cls-1" d="m1,11.95C1,5.88,5.93.95,12,.95s11,4.93,11,11c0,3.32-1.48,6.44-4.06,8.54-.21.17-.53.14-.7-.07-.18-.21-.14-.53.07-.7,2.35-1.91,3.69-4.74,3.69-7.76,0-5.51-4.49-10-10-10S2,6.43,2,11.95c0,4.31,2.74,8.12,6.83,9.49,1.02.34,2.09.51,3.17.51.28,0,.5.22.5.5s-.22.5-.5.5c-1.19,0-2.37-.19-3.49-.57-4.49-1.5-7.51-5.7-7.51-10.43Z"/></g><g id="Capa_15"><rect class="cls-2" width="24" height="24"/></g></svg>