<?xml version="1.0" encoding="UTF-8"?><svg id="Capa_2" xmlns="http://www.w3.org/2000/svg" viewBox="0 0 24 24"><defs><style>.cls-1{fill:#fff;}.cls-2{fill:none;}</style></defs><g id="Capa_20"><rect class="cls-2" width="24" height="24" transform="translate(24 24) rotate(180)"/></g><g id="Capa_19"><path class="cls-1" d="m2,21.5V2.5c0-.28.22-.5.5-.5h10c.28,0,.5.22.5.5s-.22.5-.5.5H3v18h9.5c.28,0,.5.22.5.5s-.22.5-.5.5H2.5c-.28,0-.5-.22-.5-.5Z"/><path class="cls-1" d="m8,12c0-.28.22-.5.5-.5h13c.28,0,.5.22.5.5s-.22.5-.5.5h-13c-.28,0-.5-.22-.5-.5Z"/><path class="cls-1" d="m7.5,12c0-.12.04-.24.13-.34l3-3.25c.19-.2.5-.22.71-.03.2.19.22.5.03.71l-2.69,2.91,2.69,2.91c.19.2.17.52-.03.71-.2.19-.52.17-.71-.03l-3-3.25c-.09-.1-.13-.22-.13-.34Z"/></g></svg>