<?xml version="1.0" encoding="UTF-8"?><svg id="Capa_2" xmlns="http://www.w3.org/2000/svg" viewBox="0 0 22 22"><defs><style>.cls-1{fill:#fff;}.cls-2{stroke:red;stroke-miterlimit:10;stroke-width:.1px;}.cls-2,.cls-3{fill:none;}.cls-3{stroke:#fff;stroke-linecap:round;stroke-linejoin:round;}.cls-4{fill:#00ff42;}.cls-5{fill:#0025ff;}.cls-6{fill:#c000ff;}</style></defs><g id="Capa_20"><rect class="cls-2" x="1" y="1" width="20" height="20"/><path class="cls-4" d="m19.9.1v21.79H2.09V.1h17.81M20,0H1.99v21.99h18.01V0h0Z"/><path class="cls-6" d="m21.9,2.11v17.81H.1V2.11h21.8m.1-.1H0v18.01h22V2.01h0Z"/><path class="cls-5" d="m11,.11c6,0,10.89,4.88,10.89,10.89s-4.88,10.89-10.89,10.89S.11,17,.11,11,5,.11,11,.11m0-.1C4.93.01.01,4.93.01,11s4.92,10.99,10.99,10.99,10.99-4.92,10.99-10.99S17.07.01,11,.01h0Z"/></g><g id="Blog"><rect class="cls-1" x="5" y="16.5" width="7" height="1" rx=".5" ry=".5"/><rect class="cls-1" x="5" y="12.5" width="9" height="1" rx=".5" ry=".5"/><rect class="cls-1" x="5" y="8.5" width="9" height="1" rx=".5" ry=".5"/><rect class="cls-1" x="5" y="4.5" width="9" height="1" rx=".5" ry=".5"/><line class="cls-3" x1="14.5" y1="16.32" x2="11.73" y2="17"/><line class="cls-3" x1="11.5" y1="16.99" x2="12.48" y2="14"/><polyline class="cls-3" points="16.5 14.66 16.5 21.5 2.5 21.5 2.5 .5 16.5 .5 16.5 9.75"/><polyline class="cls-3" points="12.5 14.14 19.32 6.75 21.5 8.86 14.68 16.25"/></g></svg>