<?xml version="1.0" encoding="UTF-8"?><svg xmlns="http://www.w3.org/2000/svg" viewBox="0 0 24 24"><defs><style>.cls-1{fill:#fff;}.cls-2{fill:none;}</style></defs><g id="Ruleta"><g id="Capa_5"><path class="cls-1" d="m12,1C5.92,1,1,5.92,1,12s4.92,11,11,11,11-4.92,11-11S18.08,1,12,1Zm9.97,10.5h-3c-.11-1.56-.73-2.97-1.69-4.08l2.12-2.12c1.5,1.66,2.45,3.82,2.57,6.2Zm-14.55,5.79c1.11.96,2.52,1.58,4.08,1.69v3c-2.38-.12-4.54-1.07-6.2-2.57l2.12-2.12Zm5.08,1.69c1.56-.11,2.97-.73,4.08-1.69l2.12,2.12c-1.66,1.5-3.82,2.45-6.2,2.57v-3Zm-.5-.97c-3.31,0-6-2.69-6-6s2.69-6,6-6,6,2.69,6,6-2.69,6-6,6Zm4.58-11.29c-1.11-.96-2.52-1.58-4.08-1.69v-3c2.38.12,4.54,1.07,6.2,2.57l-2.12,2.12Zm-5.08-1.69c-1.56.11-2.97.73-4.08,1.69l-2.12-2.12c1.66-1.5,3.82-2.45,6.2-2.57v3Zm-6.9.28l2.12,2.12c-.96,1.11-1.58,2.52-1.69,4.08h-3c.12-2.38,1.07-4.54,2.57-6.2Zm-2.57,7.2h3c.11,1.56.73,2.97,1.69,4.08l-2.12,2.12c-1.5-1.66-2.45-3.82-2.57-6.2Zm17.38,6.2l-2.12-2.12c.96-1.11,1.58-2.52,1.69-4.08h3c-.12,2.38-1.07,4.54-2.57,6.2Z"/><path class="cls-1" d="m15.5,11.5h-1c-1.1,0-2-.9-2-2v-1c0-.28-.22-.5-.5-.5s-.5.22-.5.5v1c0,1.1-.9,2-2,2h-1c-.28,0-.5.22-.5.5s.22.5.5.5h1c1.1,0,2,.9,2,2v1c0,.28.22.5.5.5s.5-.22.5-.5v-1c0-1.1.9-2,2-2h1c.28,0,.5-.22.5-.5s-.22-.5-.5-.5Zm-3.5,1.35c-.22-.34-.51-.62-.85-.85.34-.22.62-.51.85-.85.22.34.51.62.85.85-.34.22-.62.51-.85.85Z"/></g></g><g id="Deportes"><rect class="cls-2" x="0" y="0" width="24" height="24"/></g></svg>