<?xml version="1.0" encoding="UTF-8"?><svg id="Capa_2" xmlns="http://www.w3.org/2000/svg" viewBox="0 0 24 24"><defs><style>.cls-1{fill:#fff;}.cls-2{fill:none;}</style></defs><g id="Blog"><rect class="cls-1" x="2.5" y="8.95" width="7" height="1" rx=".5" ry=".5" transform="translate(15.45 3.45) rotate(90)"/><rect class="cls-1" x="5.5" y="9.95" width="9" height="1" rx=".5" ry=".5" transform="translate(20.45 .45) rotate(90)"/><rect class="cls-1" x="9.5" y="9.95" width="9" height="1" rx=".5" ry=".5" transform="translate(24.45 -3.55) rotate(90)"/><rect class="cls-1" x="13.5" y="9.95" width="9" height="1" rx=".5" ry=".5" transform="translate(28.45 -7.55) rotate(90)"/><path class="cls-1" d="m5.5,12.68c0-.22.15-.43.38-.48.27-.07.54.1.61.37l.68,2.77c.07.27-.1.54-.37.61-.27.07-.54-.1-.61-.37l-.68-2.77s-.01-.08-.01-.12Z"/><path class="cls-1" d="m5.51,12.45c0-.05,0-.1.02-.16.09-.26.37-.41.63-.32l2.99.98c.26.09.41.37.32.63-.09.26-.37.41-.63.32l-2.99-.98c-.21-.07-.34-.26-.34-.48Z"/><path class="cls-1" d="m1,17.45V3.45c0-.28.22-.5.5-.5h21c.28,0,.5.22.5.5v14c0,.28-.22.5-.5.5h-9.25c-.28,0-.5-.22-.5-.5s.22-.5.5-.5h8.75V3.95H2v13h6.34c.28,0,.5.22.5.5s-.22.5-.5.5H1.5c-.28,0-.5-.22-.5-.5Z"/><path class="cls-1" d="m6.25,15.62c0-.12.04-.24.13-.34.19-.2.5-.22.71-.03l7.03,6.49,1.42-1.46-7.01-6.48c-.2-.19-.21-.5-.03-.71.19-.2.5-.22.71-.03l7.39,6.82c.1.09.16.22.16.35-.01.14-.05.27-.14.36l-2.11,2.18c-.19.19-.5.2-.7.02l-7.39-6.82c-.11-.1-.16-.23-.16-.37Z"/></g><g id="Deportes"><rect class="cls-2" width="24" height="24" transform="translate(24) rotate(90)"/></g></svg>