<?xml version="1.0" encoding="UTF-8"?><svg xmlns="http://www.w3.org/2000/svg" viewBox="0 0 24 24"><defs><style>.cls-1{fill:#fff;}.cls-2{fill:none;}</style></defs><g id="Capa_16"><path class="cls-1" d="m21.99,5.48s0-.07-.01-.1c0-.03-.02-.06-.03-.08-.01-.03-.03-.06-.05-.09-.02-.02-.04-.04-.06-.06-.02-.02-.05-.05-.08-.06-.03-.02-.06-.03-.09-.04-.02,0-.04-.02-.07-.03-3.59-.77-7.39-2.87-8.83-3.67-.59-.32-.62-.34-.78-.34s-.19.02-.78.34c-1.43.79-5.24,2.89-8.83,3.67-.03,0-.04.02-.07.03-.03.01-.06.02-.09.04-.03.02-.05.04-.08.06-.02.02-.04.04-.06.06-.02.03-.03.06-.05.09-.01.03-.03.05-.03.08,0,.03,0,.07-.01.1,0,.02,0,.05,0,.07,1.22,13.39,9.2,17.45,10.02,17.45h0c.83,0,8.75-4,9.97-17.45,0-.02,0-.05,0-.07Zm-9.96,16.49c-.93-.44-7.73-4.09-8.97-16.08,3.6-.87,7.25-2.89,8.66-3.66.12-.06.21-.12.29-.16.08.04.18.1.29.16,1.41.78,5.06,2.79,8.65,3.66-1.24,11.96-7.99,15.64-8.92,16.08Z"/><path class="cls-1" d="m16.6,8.64c-.2-.19-.51-.19-.71,0l-4.55,4.64-2.24-2.28c-.19-.2-.51-.2-.71,0-.2.19-.2.51,0,.71l2.6,2.65c.09.1.22.15.36.15s.26-.05.36-.15l4.9-5c.19-.2.19-.51,0-.71Z"/></g><g id="Deportes"><rect class="cls-2" width="24" height="24"/></g></svg>