<?xml version="1.0" encoding="UTF-8"?><svg id="Capa_2" xmlns="http://www.w3.org/2000/svg" viewBox="0 0 24 24"><defs><style>.cls-1{fill:#fff;}.cls-2{fill:none;}</style></defs><g id="Capa_20"><rect class="cls-2" width="24" height="24"/></g><g id="Capa_18"><path class="cls-1" d="m9,11.95c0-1.65,1.35-3,3-3s3,1.35,3,3-1.35,3-3,3-3-1.35-3-3Zm5,0c0-1.1-.9-2-2-2s-2,.9-2,2,.9,2,2,2,2-.9,2-2Z"/><path class="cls-1" d="m4.25,4.45c0-.13.05-.26.15-.35C6.42,2.06,9.12.95,12,.95s5.58,1.12,7.6,3.15c.2.2.19.51,0,.71s-.51.19-.71,0c-1.83-1.84-4.28-2.85-6.9-2.85s-5.06,1.01-6.9,2.85c-.19.2-.51.2-.71,0-.1-.1-.15-.23-.15-.35Z"/><path class="cls-1" d="m4.25,19.45c0-.13.05-.26.15-.35.2-.19.51-.19.71,0,1.83,1.84,4.28,2.85,6.9,2.85s5.06-1.01,6.9-2.85c.2-.2.51-.2.71,0,.2.2.2.51,0,.71-2.02,2.03-4.72,3.15-7.6,3.15s-5.58-1.12-7.6-3.15c-.1-.1-.15-.22-.15-.35Z"/><path class="cls-1" d="m7,16.45c0-.13.05-.25.14-.35.19-.2.51-.2.71,0,1.24,1.21,2.67,1.86,4.15,1.86s2.91-.64,4.15-1.86c.2-.19.51-.19.71,0,.19.2.19.51,0,.71-1.43,1.4-3.11,2.14-4.85,2.14s-3.42-.74-4.85-2.14c-.1-.1-.15-.23-.15-.36Z"/><path class="cls-1" d="m7,7.45c0-.13.05-.26.15-.36,1.43-1.4,3.11-2.14,4.85-2.14s3.42.74,4.85,2.14c.2.19.2.51,0,.71-.19.2-.51.2-.71,0-1.24-1.21-2.67-1.86-4.15-1.86s-2.91.64-4.15,1.86c-.2.19-.51.19-.71,0-.1-.1-.14-.22-.14-.35Z"/></g></svg>