<?xml version="1.0" encoding="UTF-8"?><svg xmlns="http://www.w3.org/2000/svg" viewBox="0 0 24 24"><defs><style>.cls-1{fill:#fff;}.cls-2{fill:none;}</style></defs><g id="Capa_19"><path class="cls-1" d="m20.81,3.65c-.99-.41-2.13.05-2.54,1.02l-3.83,8.96-1.7-4.02c-.26-.61-.81-1.02-1.42-1.14,0,0-.02,0-.03,0-.05,0-.1-.02-.16-.02-.02,0-.05,0-.07,0-.04,0-.08,0-.12,0-.03,0-.06,0-.09,0-.03,0-.06,0-.09,0-.04,0-.08.01-.13.02-.02,0-.04,0-.06,0-.62.12-1.16.53-1.42,1.14l-1.7,4.02-1.7-4.02c-.41-.97-1.55-1.43-2.54-1.03-.99.4-1.46,1.52-1.05,2.49l3.5,8.25c.3.71,1.01,1.17,1.79,1.17s1.49-.46,1.79-1.17l1.71-4.02,1.71,4.02c.3.71,1.01,1.17,1.79,1.17s1.49-.46,1.79-1.17l1.75-4.12,3.87-9.06c.42-.97-.05-2.09-1.04-2.5Z"/></g><g id="Deportes"><rect class="cls-2" width="24" height="24"/></g></svg>