<?xml version="1.0" encoding="UTF-8"?><svg xmlns="http://www.w3.org/2000/svg" viewBox="0 0 24 24"><defs><style>.cls-1{fill:#fff;}.cls-2{fill:none;}</style></defs><g id="Capa_15"><path class="cls-1" d="m21.5,5h-3.69c.42-.45.69-1.01.69-1.61,0-1.45-.92-2.39-2.34-2.39-.92,0-2.11.21-3.08,1.8l-1.08,1.75-1.08-1.74c-.98-1.6-2.16-1.8-3.09-1.8-1.42,0-2.34.94-2.34,2.39,0,.6.27,1.16.69,1.61h-3.69c-.28,0-.5.22-.5.5v6c0,.28.22.5.5.5h.5v10.5c0,.28.22.5.5.5h17c.28,0,.5-.22.5-.5v-10.5h.5c.28,0,.5-.22.5-.5v-6c0-.28-.22-.5-.5-.5Zm-7.57-1.67c.67-1.1,1.38-1.33,2.23-1.33,1.16,0,1.34.87,1.34,1.39,0,.83-.97,1.61-2,1.61h-2.6l1.03-1.67Zm-7.43.06c0-.52.17-1.39,1.34-1.39.85,0,1.56.23,2.23,1.33l1.03,1.67h-2.6c-1.03,0-2-.78-2-1.61Zm-3.5,2.61h6.5v5H3v-5Zm1,16v-10h5.5v10h-5.5Zm6.5,0V6h3v16h-3Zm9.5,0h-5.5v-10h5.5v10Zm1-11h-6.5v-5h6.5v5Z"/></g><g id="Deportes"><rect class="cls-2" x="0" width="24" height="24"/></g></svg>