<?xml version="1.0" encoding="UTF-8"?><svg xmlns="http://www.w3.org/2000/svg" viewBox="0 0 24 24"><defs><style>.cls-1{fill:#fff;}.cls-2{fill:none;}</style></defs><g id="Slots"><path class="cls-1" d="m21.2,5.24c-.11-.15-.29-.24-.48-.24h-4.38l-1.13-1.69c-.13-.19-.35-.31-.58-.31h-5.25c-.23,0-.45.12-.58.31l-1.13,1.69H3.28c-.19,0-.37.09-.48.24-.5.69-1.8,2.92-1.8,7.76s1.3,7.07,1.8,7.76c.11.15.29.24.48.24h17.43c.19,0,.37-.09.48-.24.5-.69,1.8-2.92,1.8-7.76s-1.3-7.07-1.8-7.76Zm-11.66-1.24h4.93l.67,1h-6.26l.67-1Zm11.15,15.69c-.11.19-.31.31-.53.31h-8s-.2,0-.2,0H3.5c-.46-.72-1.5-2.8-1.5-7s1.04-6.29,1.49-7h3.51s.36,0,.36,0h13.15c.47.72,1.5,2.8,1.5,7,0,3.72-.81,5.77-1.31,6.69Z"/><path class="cls-1" d="m19.5,11h-3c-.28,0-.5.22-.5.5v.5c0,.28.22.5.5.5s.5-.22.5-.5h1.76l-1.73,4.31c-.1.26.02.55.28.65.06.02.12.04.19.04.2,0,.39-.12.46-.31l2-5c.06-.15.04-.33-.05-.47-.09-.14-.25-.22-.41-.22Z"/><path class="cls-1" d="m7.5,11h-3c-.28,0-.5.22-.5.5v.5c0,.28.22.5.5.5s.5-.22.5-.5h1.76l-1.73,4.31c-.1.26.02.55.28.65.06.02.12.04.19.04.2,0,.39-.12.46-.31l2-5c.06-.15.04-.33-.05-.47-.09-.14-.25-.22-.41-.22Z"/><path class="cls-1" d="m14.5,8h-5c-.28,0-.5.22-.5.5v1c0,.28.22.5.5.5s.5-.22.5-.5v-.5h3.8l-2.87,8.34c-.09.26.05.55.31.64.05.02.11.03.16.03.21,0,.4-.13.47-.34l3.1-9c.05-.15.03-.32-.07-.45-.09-.13-.25-.21-.41-.21Z"/></g><g id="Deportes"><rect class="cls-2" x="0" width="24" height="24"/></g></svg>