<?xml version="1.0" encoding="UTF-8"?><svg xmlns="http://www.w3.org/2000/svg" viewBox="0 0 24 24"><defs><style>.cls-1{fill:#fff;}.cls-2{fill:none;}</style></defs><g id="Blog"><path class="cls-1" d="m6.5,10.5h8c.28,0,.5-.23.5-.5s-.22-.5-.5-.5H6.5c-.27,0-.5.22-.5.5s.23.5.5.5Z"/><path class="cls-1" d="m6.5,6.5h8c.28,0,.5-.23.5-.5s-.22-.5-.5-.5H6.5c-.27,0-.5.22-.5.5s.23.5.5.5Z"/><path class="cls-1" d="m22.85,9.5l-2.18-2.11c-.1-.09-.22-.13-.36-.14-.13,0-.26.06-.35.16l-1.96,2.12V1.5c0-.28-.22-.5-.5-.5H3.5c-.28,0-.5.22-.5.5v21c0,.28.22.5.5.5h14c.28,0,.5-.22.5-.5v-6.84c0-.05-.01-.1-.03-.15l4.9-5.3c.18-.2.18-.51-.02-.7Zm-5.85,12.5H4V2h13v8.61l-2.67,2.89h-7.83c-.27,0-.5.22-.5.5s.23.5.5.5h6.91-.01c-.18.04-.33.16-.39.35l-.87,2.65h-5.64c-.27,0-.5.22-.5.5s.23.5.5.5h6s.07-.01.1-.02c.04.01.08.02.13.02.04,0,.08,0,.12-.01l2.77-.68c.05-.01.1-.04.15-.07.1-.02.2-.06.28-.14l.96-1.04v5.45Zm-1.62-5.17s0,0,0,0l-2.15.53.61-1.87s.02,0,.02-.02l6.48-7.01,1.46,1.42-6.42,6.95Z"/></g><g id="Deportes"><rect class="cls-2" width="24" height="24"/></g></svg>