<?xml version="1.0" encoding="UTF-8"?><svg xmlns="http://www.w3.org/2000/svg" viewBox="0 0 24 24"><defs><style>.cls-1{fill:#fff;}.cls-2{fill:none;}</style></defs><g id="Capa_18"><path class="cls-1" d="m12,15c-1.65,0-3-1.35-3-3s1.35-3,3-3,3,1.35,3,3-1.35,3-3,3Zm0-5c-1.1,0-2,.9-2,2s.9,2,2,2,2-.9,2-2-.9-2-2-2Z"/><path class="cls-1" d="m4.5,19.75c-.13,0-.26-.05-.35-.15-2.03-2.02-3.15-4.72-3.15-7.6s1.12-5.58,3.15-7.6c.2-.2.51-.19.71,0s.19.51,0,.71c-1.84,1.83-2.85,4.28-2.85,6.9s1.01,5.06,2.85,6.9c.2.19.2.51,0,.71-.1.1-.23.15-.35.15Z"/><path class="cls-1" d="m19.5,19.75c-.13,0-.26-.05-.35-.15-.19-.2-.19-.51,0-.71,1.84-1.83,2.85-4.28,2.85-6.9s-1.01-5.06-2.85-6.9c-.2-.2-.2-.51,0-.71.2-.2.51-.2.71,0,2.03,2.02,3.15,4.72,3.15,7.6s-1.12,5.58-3.15,7.6c-.1.1-.22.15-.35.15Z"/><path class="cls-1" d="m16.5,17c-.13,0-.25-.05-.35-.14-.2-.19-.2-.51,0-.71,1.21-1.24,1.86-2.67,1.86-4.15s-.64-2.91-1.86-4.15c-.19-.2-.19-.51,0-.71.2-.19.51-.19.71,0,1.4,1.43,2.14,3.11,2.14,4.85s-.74,3.42-2.14,4.85c-.1.1-.23.15-.36.15Z"/><path class="cls-1" d="m7.5,17c-.13,0-.26-.05-.36-.15-1.4-1.43-2.14-3.11-2.14-4.85s.74-3.42,2.14-4.85c.19-.2.51-.2.71,0,.2.19.2.51,0,.71-1.21,1.24-1.86,2.67-1.86,4.15s.64,2.91,1.86,4.15c.19.2.19.51,0,.71-.1.1-.22.14-.35.14Z"/></g><g id="Deportes"><rect class="cls-2" width="24" height="24"/></g></svg>