<?xml version="1.0" encoding="UTF-8"?><svg id="Deportes" xmlns="http://www.w3.org/2000/svg" viewBox="0 0 24 24"><defs><style>.cls-1{fill:#fff;}.cls-2{fill:none;}</style></defs><path class="cls-1" d="m20,2v20H4V2h16m.33-1H3.6c-.33,0-.6.27-.6.6v20.73c0,.37.3.67.67.67h16.66c.37,0,.67-.3.67-.67V1.67c0-.37-.3-.67-.67-.67h0Z"/><path class="cls-1" d="m12,10c1.1,0,2,.9,2,2s-.9,2-2,2-2-.9-2-2,.9-2,2-2m0-1c-1.66,0-3,1.34-3,3s1.34,3,3,3,3-1.34,3-3-1.34-3-3-3h0Z"/><rect class="cls-1" x="3" y="11.5" width="18" height="1"/><path class="cls-1" d="m15.5,20v2h-7v-2h7m.5-1h-8c-.28,0-.5.22-.5.5v3c0,.28.22.5.5.5h8c.28,0,.5-.22.5-.5v-3c0-.28-.22-.5-.5-.5h0Z"/><path class="cls-1" d="m15.5,2v2h-7v-2h7m.5-1h-8c-.28,0-.5.23-.5.5v3c0,.27.22.5.5.5h8c.28,0,.5-.23.5-.5V1.5c0-.27-.22-.5-.5-.5h0Z"/><rect class="cls-2" x="0" width="24" height="24"/></svg>