<?xml version="1.0" encoding="UTF-8"?><svg xmlns="http://www.w3.org/2000/svg" viewBox="0 0 24 24"><defs><style>.cls-1{fill:#fff;}.cls-2{fill:none;}</style></defs><g id="Capa_17"><path class="cls-1" d="m20.7,17.5c1.64-1.81,1.73-4.8.22-7.26,0,0,0,0,0,0,0,0,0,0,0,0-.79-1.22-1.92-1.92-3.11-2.65-1.78-1.09-3.79-2.33-5.13-5.79l-.22-.49c-.08-.19-.28-.29-.47-.3-.2,0-.38.13-.46.32l-.19.5c-1.32,3.43-3.35,4.67-5.14,5.76-1.2.73-2.34,1.42-3.13,2.65,0,0,0,0,0,0,0,0,0,0,0,0-1.51,2.46-1.42,5.45.22,7.26.91,1,2.13,1.5,3.57,1.5.95,0,2-.23,3.09-.68-.37,1.63-1.08,2.82-2.93,3.73-.21.1-.32.34-.27.56.05.23.25.39.49.39h9.5c.23,0,.43-.16.48-.39.05-.23-.06-.46-.26-.56-1.84-.91-2.55-2.09-2.91-3.72,1.09.44,2.13.67,3.07.67,1.44,0,2.66-.5,3.57-1.5Zm-5.65,4.5h-4.81s0,0,0,0h-1.29c1.39-1.16,1.9-2.64,2.16-4.43.04-.27-.15-.53-.42-.57-.11-.01-.21.01-.3.06-.04,0-.08.01-.11.03-2.64,1.29-4.92,1.19-6.24-.27-1.34-1.48-1.39-3.97-.11-6.06.67-1.03,1.66-1.63,2.8-2.33,1.82-1.11,3.86-2.35,5.3-5.62,1.44,3.27,3.46,4.51,5.26,5.62,1.14.7,2.12,1.3,2.79,2.33,1.28,2.09,1.23,4.58-.11,6.06-1.33,1.46-3.6,1.56-6.24.27-.02-.01-.05-.01-.07-.02-.09-.06-.2-.09-.32-.07-.27.04-.46.3-.42.57.27,1.79.77,3.27,2.15,4.43Z"/></g><g id="Deportes"><rect class="cls-2" x="0" width="24" height="24"/></g></svg>