<?xml version="1.0" encoding="UTF-8"?><svg xmlns="http://www.w3.org/2000/svg" viewBox="0 0 24 24"><defs><style>.cls-1{fill:#fff;}.cls-2{fill:none;}</style></defs><g id="Capa_14"><path class="cls-1" d="m12.5,23c-.28,0-.5-.22-.5-.5s.22-.5.5-.5c3.87,0,7.29-2.67,8.52-6.65.08-.26.36-.41.62-.33.26.08.41.36.33.62-1.36,4.4-5.17,7.35-9.48,7.35Z"/><path class="cls-1" d="m14.26,14.08c-.24-.15-.54-.07-.69.16-.28.46-.9.75-1.57.75s-1.29-.3-1.58-.76c-.14-.24-.45-.31-.69-.17-.24.14-.31.45-.17.69.47.76,1.4,1.24,2.43,1.24s1.95-.47,2.42-1.23c.15-.23.07-.54-.16-.69Z"/><path class="cls-1" d="m22.08,8.81l.05-.02-.16-.48c-1.44-4.38-5.44-7.32-9.97-7.32S3.45,3.95,2.02,8.35l-.15.48h.03c-.54.32-.9.83-.9,1.41v3.54c0,.97.94,1.73,2.14,1.73h2.8c1.21,2.09,3.47,3.5,6.05,3.5s4.84-1.41,6.05-3.5h2.8s.07,0,.11,0c-.83,2.38-2.49,4.35-4.71,5.57l-.44.24.48.88.44-.24c2.48-1.37,4.34-3.6,5.23-6.28l.16-.47h-.02c.54-.32.89-.82.89-1.41v-3.54c0-.59-.37-1.1-.92-1.42ZM12,2c4.05,0,7.64,2.61,8.98,6.51-.04,0-.08,0-.12,0h-2.8c-1.21-2.09-3.47-3.5-6.05-3.5s-4.84,1.41-6.05,3.5h-2.8s-.08,0-.11,0c1.33-3.9,4.92-6.51,8.97-6.51ZM3.14,14.5c-.61,0-1.14-.34-1.14-.73v-3.54c0-.39.53-.73,1.14-.73h2.33c-.3.78-.47,1.62-.47,2.5s.17,1.72.47,2.5h-2.33Zm8.86,3.5c-3.31,0-6-2.69-6-6s2.69-6,6-6,6,2.69,6,6-2.69,6-6,6Zm6.53-3.5c.3-.78.47-1.62.47-2.5s-.17-1.72-.47-2.5h2.33c.61,0,1.14.34,1.14.73v3.54c0,.39-.53.73-1.14.73h-2.33Z"/></g><g id="Deportes"><rect class="cls-2" x="0" y="0" width="24" height="24"/></g></svg>