<?xml version="1.0" encoding="UTF-8"?><svg xmlns="http://www.w3.org/2000/svg" viewBox="0 0 24 24"><defs><style>.cls-1{fill:#fff;}.cls-2{fill:none;}</style></defs><g id="Capa_19"><path class="cls-1" d="m21.5,11c-.28,0-.5.22-.5.5v9.5H3v-9.5c0-.28-.22-.5-.5-.5s-.5.22-.5.5v10c0,.28.22.5.5.5h19c.28,0,.5-.22.5-.5v-10c0-.28-.22-.5-.5-.5Z"/><path class="cls-1" d="m11.66,16.37c.1.09.22.13.34.13s.24-.04.34-.13l3.25-3c.2-.19.22-.5.03-.71-.19-.2-.5-.22-.71-.03l-2.41,2.23V2.5c0-.28-.22-.5-.5-.5s-.5.22-.5.5v12.36l-2.41-2.23c-.2-.19-.52-.17-.71.03-.19.2-.17.52.03.71l3.25,3Z"/></g><g id="Deportes"><rect class="cls-2" width="24" height="24"/></g></svg>