<?xml version="1.0" encoding="UTF-8"?><svg id="Capa_2" xmlns="http://www.w3.org/2000/svg" viewBox="0 0 24 24"><defs><style>.cls-1{fill:#fff;}.cls-2{fill:none;}</style></defs><g id="Capa_14"><rect class="cls-2" width="24" height="24"/></g><g id="Capa_15"><path class="cls-1" d="m12,21.45v-7.5c0-.28.22-.5.5-.5s.5.22.5.5v7h5V2.95h-5v6.9c0,.28-.22.5-.5.5s-.5-.22-.5-.5V2.45c0-.28.22-.5.5-.5h6c.28,0,.5.22.5.5v19c0,.28-.22.5-.5.5h-6c-.28,0-.5-.22-.5-.5Z"/><path class="cls-1" d="m1,20.45V3.45c0-.28.22-.5.5-.5h11c.28,0,.5.22.5.5s-.22.5-.5.5H2v16h10.5c.28,0,.5.22.5.5s-.22.5-.5.5H1.5c-.28,0-.5-.22-.5-.5Z"/><path class="cls-1" d="m18.07,11.93c0-.17.02-.32.17-.41l2.44-1.5c1.1-.67,1.33-1.38,1.33-2.23,0-1.16-.87-1.34-1.39-1.34-.83,0-1.61.97-1.61,2,0,.28-.22.5-.5.5s-.5-.22-.5-.5c0-1.6,1.22-3,2.61-3s2.39.92,2.39,2.34c0,.92-.21,2.11-1.8,3.09l-2.43,1.5c-.23.15-.54.07-.69-.16-.05-.08,0-.19,0-.28Z"/><path class="cls-1" d="m18.09,11.95c0-.09-.07-.18-.02-.26.15-.23.45-.31.69-.16l2.44,1.5c1.6.98,1.8,2.16,1.8,3.08,0,1.42-.94,2.34-2.39,2.34s-2.61-1.4-2.61-3c0-.28.22-.5.5-.5s.5.22.5.5c0,1.03.78,2,1.61,2,.52,0,1.39-.17,1.39-1.34,0-.85-.23-1.56-1.33-2.23l-2.44-1.5c-.15-.09-.14-.26-.14-.43Z"/><rect class="cls-1" x="1" y="9.45" width="18" height="1" transform="translate(20 19.89) rotate(180)"/><rect class="cls-1" x="1" y="13.45" width="18" height="1" transform="translate(20 27.89) rotate(180)"/></g></svg>