<?xml version="1.0" encoding="UTF-8"?><svg xmlns="http://www.w3.org/2000/svg" viewBox="0 0 24 24"><defs><style>.cls-1{fill:#fff;}.cls-2{fill:none;}</style></defs><g id="Capa_13"><path class="cls-1" d="m9.75,7.57c-.15-.09-.35-.09-.5,0-.15.09-.25.25-.25.43v8c0,.18.09.34.25.43.08.04.16.07.25.07s.17-.02.25-.07l7-4c.16-.09.25-.25.25-.43s-.1-.35-.25-.43l-7-4Zm.25,7.57v-6.28l5.49,3.14-5.49,3.14Z"/><path class="cls-1" d="m22.5,11.5c-.28,0-.5.22-.5.5,0,1.09-.17,2.15-.51,3.17-1.37,4.08-5.18,6.83-9.49,6.83-5.51,0-10-4.49-10-10S6.49,2,12,2c2.71,0,5.25,1.09,7.13,3h-2.63c-.28,0-.5.22-.5.5s.22.5.5.5h4c.28,0,.5-.22.5-.5V1.5c0-.28-.22-.5-.5-.5s-.5.22-.5.5v2.97c-2.08-2.21-4.94-3.47-8-3.47C5.93,1,1,5.93,1,12s4.93,11,11,11c4.74,0,8.93-3.02,10.43-7.51.38-1.12.57-2.3.57-3.49,0-.28-.22-.5-.5-.5Z"/></g><g id="Deportes"><rect class="cls-2" width="24" height="24"/></g></svg>